<svg width="70" height="68" viewBox="0 0 70 68" fill="none" xmlns="http://www.w3.org/2000/svg">
<rect width="69.1465" height="68" rx="15" fill="url(#paint0_linear_87_73)"/>
<path d="M30.4974 43.2365C29.1886 43.2365 28.006 42.9054 26.9496 42.2431C25.9089 41.5809 25.0889 40.619 24.4898 39.3576C23.8906 38.0803 23.591 36.5351 23.591 34.7217C23.591 32.9084 23.8906 31.371 24.4898 30.1096C25.0889 28.8323 25.9089 27.8626 26.9496 27.2003C28.006 26.5381 29.1886 26.207 30.4974 26.207C31.8219 26.207 33.0045 26.5381 34.0452 27.2003C35.0859 27.8626 35.9059 28.8323 36.5051 30.1096C37.12 31.371 37.4275 32.9084 37.4275 34.7217C37.4275 36.5351 37.12 38.0803 36.5051 39.3576C35.9059 40.619 35.0859 41.5809 34.0452 42.2431C33.0045 42.9054 31.8219 43.2365 30.4974 43.2365ZM30.4974 40.5638C31.27 40.5638 31.9402 40.3588 32.5078 39.9489C33.0755 39.5231 33.517 38.8766 33.8324 38.0094C34.1635 37.1421 34.3291 36.0463 34.3291 34.7217C34.3291 33.3814 34.1635 32.2856 33.8324 31.4341C33.517 30.5668 33.0755 29.9282 32.5078 29.5183C31.9402 29.0925 31.27 28.8797 30.4974 28.8797C29.7563 28.8797 29.094 29.0925 28.5106 29.5183C27.943 29.9282 27.4936 30.5668 27.1624 31.4341C26.8471 32.2856 26.6894 33.3814 26.6894 34.7217C26.6894 36.0463 26.8471 37.1421 27.1624 38.0094C27.4936 38.8766 27.943 39.5231 28.5106 39.9489C29.094 40.3588 29.7563 40.5638 30.4974 40.5638ZM42.1313 43V27.6261L43.4795 29.0216H38.6308V26.4435H45.2061V43H42.1313Z" fill="white"/>
<defs>
<linearGradient id="paint0_linear_87_73" x1="23.2883" y1="34" x2="121.592" y2="34" gradientUnits="userSpaceOnUse">
<stop stop-color="#005F87"/>
<stop offset="1" stop-color="#029BDB" stop-opacity="0.31"/>
</linearGradient>
</defs>
</svg>
