<svg width="70" height="68" viewBox="0 0 70 68" fill="none" xmlns="http://www.w3.org/2000/svg">
<rect width="69.1465" height="68" rx="15" fill="url(#paint0_linear_87_81)"/>
<path d="M28.1183 43.2365C26.8096 43.2365 25.627 42.9054 24.5705 42.2431C23.5298 41.5809 22.7099 40.619 22.1107 39.3576C21.5115 38.0803 21.2119 36.5351 21.2119 34.7217C21.2119 32.9084 21.5115 31.371 22.1107 30.1096C22.7099 28.8323 23.5298 27.8626 24.5705 27.2003C25.627 26.5381 26.8096 26.207 28.1183 26.207C29.4428 26.207 30.6255 26.5381 31.6662 27.2003C32.7068 27.8626 33.5268 28.8323 34.126 30.1096C34.7409 31.371 35.0484 32.9084 35.0484 34.7217C35.0484 36.5351 34.7409 38.0803 34.126 39.3576C33.5268 40.619 32.7068 41.5809 31.6662 42.2431C30.6255 42.9054 29.4428 43.2365 28.1183 43.2365ZM28.1183 40.5638C28.891 40.5638 29.5611 40.3588 30.1288 39.9489C30.6964 39.5231 31.1379 38.8766 31.4533 38.0094C31.7844 37.1421 31.95 36.0463 31.95 34.7217C31.95 33.3814 31.7844 32.2856 31.4533 31.4341C31.1379 30.5668 30.6964 29.9282 30.1288 29.5183C29.5611 29.0925 28.891 28.8797 28.1183 28.8797C27.3772 28.8797 26.715 29.0925 26.1315 29.5183C25.5639 29.9282 25.1145 30.5668 24.7834 31.4341C24.468 32.2856 24.3103 33.3814 24.3103 34.7217C24.3103 36.0463 24.468 37.1421 24.7834 38.0094C25.1145 38.8766 25.5639 39.5231 26.1315 39.9489C26.715 40.3588 27.3772 40.5638 28.1183 40.5638ZM36.8903 43V40.9423L43.4656 34.6981C44.0175 34.1777 44.4275 33.7205 44.6955 33.3263C44.9636 32.9321 45.1371 32.5694 45.2159 32.2383C45.3105 31.8914 45.3578 31.5681 45.3578 31.2685C45.3578 30.5117 45.0976 29.9282 44.5773 29.5183C44.0569 29.0925 43.2922 28.8797 42.283 28.8797C41.4788 28.8797 40.7456 29.0216 40.0834 29.3054C39.4369 29.5892 38.8771 30.0228 38.4041 30.6063L36.2517 28.9506C36.8982 28.0834 37.7655 27.4132 38.8535 26.9402C39.9572 26.4514 41.1871 26.207 42.5432 26.207C43.7416 26.207 44.7823 26.4041 45.6653 26.7983C46.5641 27.1767 47.25 27.7207 47.723 28.4303C48.2118 29.1398 48.4562 29.9834 48.4562 30.961C48.4562 31.4972 48.3853 32.0333 48.2434 32.5694C48.1015 33.0897 47.8334 33.6416 47.4392 34.225C47.045 34.8085 46.4695 35.4628 45.7126 36.1882L40.0597 41.5572L39.4211 40.3983H49.0948V43H36.8903Z" fill="white"/>
<defs>
<linearGradient id="paint0_linear_87_81" x1="23.2883" y1="34" x2="121.592" y2="34" gradientUnits="userSpaceOnUse">
<stop stop-color="#005F87"/>
<stop offset="1" stop-color="#029BDB" stop-opacity="0.31"/>
</linearGradient>
</defs>
</svg>
