<svg width="70" height="68" viewBox="0 0 70 68" fill="none" xmlns="http://www.w3.org/2000/svg">
<rect width="69.1465" height="68" rx="15" fill="url(#paint0_linear_87_89)"/>
<path d="M28.2223 43.2365C26.9135 43.2365 25.7309 42.9054 24.6744 42.2431C23.6337 41.5809 22.8138 40.619 22.2146 39.3576C21.6154 38.0803 21.3158 36.5351 21.3158 34.7217C21.3158 32.9084 21.6154 31.371 22.2146 30.1096C22.8138 28.8323 23.6337 27.8626 24.6744 27.2003C25.7309 26.5381 26.9135 26.207 28.2223 26.207C29.5468 26.207 30.7294 26.5381 31.7701 27.2003C32.8108 27.8626 33.6307 28.8323 34.2299 30.1096C34.8449 31.371 35.1524 32.9084 35.1524 34.7217C35.1524 36.5351 34.8449 38.0803 34.2299 39.3576C33.6307 40.619 32.8108 41.5809 31.7701 42.2431C30.7294 42.9054 29.5468 43.2365 28.2223 43.2365ZM28.2223 40.5638C28.9949 40.5638 29.665 40.3588 30.2327 39.9489C30.8004 39.5231 31.2419 38.8766 31.5572 38.0094C31.8884 37.1421 32.0539 36.0463 32.0539 34.7217C32.0539 33.3814 31.8884 32.2856 31.5572 31.4341C31.2419 30.5668 30.8004 29.9282 30.2327 29.5183C29.665 29.0925 28.9949 28.8797 28.2223 28.8797C27.4812 28.8797 26.8189 29.0925 26.2355 29.5183C25.6678 29.9282 25.2184 30.5668 24.8873 31.4341C24.5719 32.2856 24.4143 33.3814 24.4143 34.7217C24.4143 36.0463 24.5719 37.1421 24.8873 38.0094C25.2184 38.8766 25.6678 39.5231 26.2355 39.9489C26.8189 40.3588 27.4812 40.5638 28.2223 40.5638ZM42.2027 43.2365C41.0359 43.2365 39.8927 43.071 38.7732 42.7398C37.6694 42.3929 36.7391 41.9199 35.9822 41.3207L37.3067 38.9318C37.9059 39.4206 38.6313 39.8148 39.4827 40.1144C40.3342 40.414 41.2251 40.5638 42.1554 40.5638C43.2592 40.5638 44.1186 40.3431 44.7335 39.9016C45.3485 39.4443 45.656 38.8293 45.656 38.0567C45.656 37.2998 45.3721 36.7006 44.8045 36.2591C44.2368 35.8176 43.3223 35.5969 42.0608 35.5969H40.5471V33.4918L45.2775 27.8626L45.6796 29.0216H36.7864V26.4435H48.0685V28.5012L43.338 34.1304L41.7297 33.1843H42.6521C44.6862 33.1843 46.2078 33.6416 47.217 34.5562C48.2419 35.455 48.7544 36.6139 48.7544 38.033C48.7544 38.9634 48.5179 39.8227 48.0448 40.6111C47.5718 41.3995 46.8464 42.0381 45.8688 42.527C44.907 43 43.6849 43.2365 42.2027 43.2365Z" fill="white"/>
<defs>
<linearGradient id="paint0_linear_87_89" x1="23.2883" y1="34" x2="121.592" y2="34" gradientUnits="userSpaceOnUse">
<stop stop-color="#005F87"/>
<stop offset="1" stop-color="#029BDB" stop-opacity="0.31"/>
</linearGradient>
</defs>
</svg>
