<svg width="31" height="18" viewBox="0 0 31 18" fill="none" xmlns="http://www.w3.org/2000/svg">
<path d="M6.96344 17.2365C5.65468 17.2365 4.47207 16.9054 3.41561 16.2431C2.37491 15.5809 1.55497 14.619 0.955782 13.3576C0.356594 12.0803 0.0569998 10.5351 0.0569998 8.72174C0.0569998 6.90841 0.356594 5.37101 0.955782 4.10956C1.55497 2.83235 2.37491 1.86261 3.41561 1.20035C4.47207 0.538086 5.65468 0.206956 6.96344 0.206956C8.28796 0.206956 9.47057 0.538086 10.5113 1.20035C11.552 1.86261 12.3719 2.83235 12.9711 4.10956C13.586 5.37101 13.8935 6.90841 13.8935 8.72174C13.8935 10.5351 13.586 12.0803 12.9711 13.3576C12.3719 14.619 11.552 15.5809 10.5113 16.2431C9.47057 16.9054 8.28796 17.2365 6.96344 17.2365ZM6.96344 14.5638C7.73607 14.5638 8.40622 14.3588 8.97387 13.9489C9.54152 13.5231 9.98303 12.8766 10.2984 12.0094C10.6295 11.1421 10.7951 10.0463 10.7951 8.72174C10.7951 7.38145 10.6295 6.28556 10.2984 5.43409C9.98303 4.56684 9.54152 3.92823 8.97387 3.51826C8.40622 3.09252 7.73607 2.87965 6.96344 2.87965C6.22233 2.87965 5.56007 3.09252 4.97665 3.51826C4.409 3.92823 3.95961 4.56684 3.62848 5.43409C3.31312 6.28556 3.15543 7.38145 3.15543 8.72174C3.15543 10.0463 3.31312 11.1421 3.62848 12.0094C3.95961 12.8766 4.409 13.5231 4.97665 13.9489C5.56007 14.3588 6.22233 14.5638 6.96344 14.5638ZM15.7349 13.2393V11.1106L23.8949 0.443477H27.1825L19.1408 11.1106L17.6034 10.6376H30.7304V13.2393H15.7349ZM24.8173 17V13.2393L24.9119 10.6376V7.30261H27.7975V17H24.8173Z" fill="white"/>
</svg>
