<svg width="29" height="18" viewBox="0 0 29 18" fill="none" xmlns="http://www.w3.org/2000/svg">
<path d="M7.08368 17.2365C5.77493 17.2365 4.59232 16.9054 3.53585 16.2431C2.49516 15.5809 1.67522 14.619 1.07603 13.3576C0.476839 12.0803 0.177245 10.5351 0.177245 8.72174C0.177245 6.90841 0.476839 5.37101 1.07603 4.10956C1.67522 2.83235 2.49516 1.86261 3.53585 1.20035C4.59232 0.538086 5.77493 0.206956 7.08368 0.206956C8.4082 0.206956 9.59081 0.538086 10.6315 1.20035C11.6722 1.86261 12.4921 2.83235 13.0913 4.10956C13.7063 5.37101 14.0138 6.90841 14.0138 8.72174C14.0138 10.5351 13.7063 12.0803 13.0913 13.3576C12.4921 14.619 11.6722 15.5809 10.6315 16.2431C9.59081 16.9054 8.4082 17.2365 7.08368 17.2365ZM7.08368 14.5638C7.85632 14.5638 8.52646 14.3588 9.09412 13.9489C9.66177 13.5231 10.1033 12.8766 10.4186 12.0094C10.7498 11.1421 10.9153 10.0463 10.9153 8.72174C10.9153 7.38145 10.7498 6.28556 10.4186 5.43409C10.1033 4.56684 9.66177 3.92823 9.09412 3.51826C8.52646 3.09252 7.85632 2.87965 7.08368 2.87965C6.34258 2.87965 5.68032 3.09252 5.0969 3.51826C4.52924 3.92823 4.07985 4.56684 3.74872 5.43409C3.43336 6.28556 3.27568 7.38145 3.27568 8.72174C3.27568 10.0463 3.43336 11.1421 3.74872 12.0094C4.07985 12.8766 4.52924 13.5231 5.0969 13.9489C5.68032 14.3588 6.34258 14.5638 7.08368 14.5638ZM21.579 17.2365C20.4121 17.2365 19.2689 17.071 18.1494 16.7398C17.0456 16.3929 16.1153 15.9199 15.3584 15.3207L16.6593 12.9318C17.2585 13.4206 17.9838 13.8148 18.8353 14.1144C19.7025 14.414 20.6013 14.5638 21.5316 14.5638C22.6196 14.5638 23.4711 14.3352 24.0861 13.8779C24.7168 13.4206 25.0322 12.8057 25.0322 12.033C25.0322 11.5127 24.8981 11.0554 24.6301 10.6612C24.3778 10.267 23.9205 9.96742 23.2583 9.76243C22.6118 9.55745 21.7209 9.45496 20.5856 9.45496H16.5883L17.4398 0.443477H27.1609V3.02156H18.5751L20.1835 1.55513L19.5449 8.296L17.9365 6.85322H21.2715C22.9114 6.85322 24.228 7.07397 25.2214 7.51548C26.2305 7.94122 26.9638 8.54041 27.421 9.31304C27.8941 10.0699 28.1306 10.9372 28.1306 11.9148C28.1306 12.8766 27.8941 13.7597 27.421 14.5638C26.948 15.368 26.2227 16.0145 25.245 16.5033C24.2832 16.9921 23.0612 17.2365 21.579 17.2365Z" fill="white"/>
</svg>
