<svg width="30" height="18" viewBox="0 0 30 18" fill="none" xmlns="http://www.w3.org/2000/svg">
<path d="M7.57553 17.2365C6.26677 17.2365 5.08417 16.9054 4.0277 16.2431C2.98701 15.5809 2.16706 14.619 1.56788 13.3576C0.968687 12.0803 0.669093 10.5351 0.669093 8.72174C0.669093 6.90841 0.968687 5.37101 1.56788 4.10956C2.16706 2.83235 2.98701 1.86261 4.0277 1.20035C5.08417 0.538086 6.26677 0.206956 7.57553 0.206956C8.90005 0.206956 10.0827 0.538086 11.1234 1.20035C12.1641 1.86261 12.984 2.83235 13.5832 4.10956C14.1981 5.37101 14.5056 6.90841 14.5056 8.72174C14.5056 10.5351 14.1981 12.0803 13.5832 13.3576C12.984 14.619 12.1641 15.5809 11.1234 16.2431C10.0827 16.9054 8.90005 17.2365 7.57553 17.2365ZM7.57553 14.5638C8.34817 14.5638 9.01831 14.3588 9.58596 13.9489C10.1536 13.5231 10.5951 12.8766 10.9105 12.0094C11.2416 11.1421 11.4072 10.0463 11.4072 8.72174C11.4072 7.38145 11.2416 6.28556 10.9105 5.43409C10.5951 4.56684 10.1536 3.92823 9.58596 3.51826C9.01831 3.09252 8.34817 2.87965 7.57553 2.87965C6.83443 2.87965 6.17217 3.09252 5.58874 3.51826C5.02109 3.92823 4.5717 4.56684 4.24057 5.43409C3.92521 6.28556 3.76753 7.38145 3.76753 8.72174C3.76753 10.0463 3.92521 11.1421 4.24057 12.0094C4.5717 12.8766 5.02109 13.5231 5.58874 13.9489C6.17217 14.3588 6.83443 14.5638 7.57553 14.5638ZM23.7501 17.2365C22.2521 17.2365 20.967 16.9212 19.8948 16.2904C18.8226 15.6439 18.0026 14.7136 17.435 13.4995C16.8673 12.2853 16.5835 10.7874 16.5835 9.00556C16.5835 7.11339 16.9225 5.51293 17.6005 4.20417C18.2943 2.89542 19.2483 1.90203 20.4625 1.224C21.6924 0.54597 23.1036 0.206956 24.6962 0.206956C25.5319 0.206956 26.3282 0.29368 27.0851 0.467129C27.8577 0.640579 28.5121 0.908637 29.0482 1.2713L27.9129 3.58922C27.4556 3.28962 26.9589 3.08464 26.4228 2.97426C25.9025 2.84812 25.3506 2.78504 24.7671 2.78504C23.2061 2.78504 21.9683 3.26597 21.0538 4.22783C20.1392 5.18968 19.6819 6.60881 19.6819 8.48522C19.6819 8.78481 19.6898 9.13959 19.7056 9.54956C19.7213 9.94377 19.7765 10.3459 19.8711 10.7558L18.9251 9.71513C19.2089 9.06864 19.5952 8.53252 20.084 8.10678C20.5886 7.66527 21.1799 7.33414 21.8579 7.11339C22.5517 6.89264 23.3007 6.78226 24.1049 6.78226C25.1929 6.78226 26.1626 6.99513 27.0141 7.42087C27.8656 7.83084 28.5436 8.42214 29.0482 9.19478C29.5528 9.95165 29.8051 10.8426 29.8051 11.8675C29.8051 12.9555 29.537 13.9016 29.0009 14.7057C28.4648 15.5099 27.7394 16.1328 26.8249 16.5743C25.9103 17.0158 24.8854 17.2365 23.7501 17.2365ZM23.5845 14.824C24.2153 14.824 24.775 14.7136 25.2638 14.4929C25.7527 14.2563 26.1311 13.9252 26.3991 13.4995C26.683 13.0737 26.8249 12.577 26.8249 12.0094C26.8249 11.1421 26.5253 10.4562 25.9261 9.95165C25.3269 9.44707 24.5227 9.19478 23.5136 9.19478C22.8513 9.19478 22.2679 9.32093 21.7633 9.57322C21.2745 9.80974 20.8803 10.1409 20.5807 10.5666C20.2969 10.9923 20.155 11.4812 20.155 12.033C20.155 12.5376 20.289 13.0028 20.5571 13.4285C20.8251 13.8543 21.2114 14.1933 21.716 14.4456C22.2364 14.6979 22.8592 14.824 23.5845 14.824Z" fill="white"/>
</svg>
