<svg width="30" height="18" viewBox="0 0 30 18" fill="none" xmlns="http://www.w3.org/2000/svg">
<path d="M7.8527 17.2365C6.54395 17.2365 5.36134 16.9054 4.30488 16.2431C3.26418 15.5809 2.44424 14.619 1.84505 13.3576C1.24586 12.0803 0.946267 10.5351 0.946267 8.72174C0.946267 6.90841 1.24586 5.37101 1.84505 4.10956C2.44424 2.83235 3.26418 1.86261 4.30488 1.20035C5.36134 0.538086 6.54395 0.206956 7.8527 0.206956C9.17722 0.206956 10.3598 0.538086 11.4005 1.20035C12.4412 1.86261 13.2612 2.83235 13.8604 4.10956C14.4753 5.37101 14.7828 6.90841 14.7828 8.72174C14.7828 10.5351 14.4753 12.0803 13.8604 13.3576C13.2612 14.619 12.4412 15.5809 11.4005 16.2431C10.3598 16.9054 9.17722 17.2365 7.8527 17.2365ZM7.8527 14.5638C8.62534 14.5638 9.29548 14.3588 9.86314 13.9489C10.4308 13.5231 10.8723 12.8766 11.1877 12.0094C11.5188 11.1421 11.6844 10.0463 11.6844 8.72174C11.6844 7.38145 11.5188 6.28556 11.1877 5.43409C10.8723 4.56684 10.4308 3.92823 9.86314 3.51826C9.29548 3.09252 8.62534 2.87965 7.8527 2.87965C7.1116 2.87965 6.44934 3.09252 5.86592 3.51826C5.29827 3.92823 4.84888 4.56684 4.51775 5.43409C4.20238 6.28556 4.0447 7.38145 4.0447 8.72174C4.0447 10.0463 4.20238 11.1421 4.51775 12.0094C4.84888 12.8766 5.29827 13.5231 5.86592 13.9489C6.44934 14.3588 7.1116 14.5638 7.8527 14.5638ZM19.5125 17L26.348 1.67339L27.1521 3.04522H17.7622L19.2287 1.55513V5.85983H16.3667V0.443477H29.2335V2.50122L22.8001 17H19.5125Z" fill="white"/>
</svg>
