<svg width="49" height="49" viewBox="0 0 49 49" fill="none" xmlns="http://www.w3.org/2000/svg">
<rect width="49" height="49" fill="white"/>
<path d="M32.58 1.22498C21.3454 1.22498 14.5331 13.7044 20.5875 23.1362C20.1069 23.1362 5.33129 23.1362 4.40674 23.1362C2.65211 23.1362 1.22461 24.5637 1.22461 26.3184V44.5928C1.22461 46.3475 2.65211 47.775 4.40674 47.775H22.6812C24.4359 47.775 25.8634 46.3475 25.8634 44.5928V28.0184C27.8655 29.094 30.1526 29.705 32.58 29.705C40.4318 29.705 46.82 23.317 46.82 15.465C46.82 7.61306 40.4318 1.22498 32.58 1.22498ZM11.0147 25.8638H16.0734V29.9134L14.7302 29.0903C13.9989 28.6434 13.0897 28.6434 12.3561 29.0914L11.0148 29.9134L11.0147 25.8638ZM23.1358 44.5928C23.1358 44.8436 22.9319 45.0474 22.6812 45.0474H4.40674C4.15608 45.0474 3.95215 44.8436 3.95215 44.5928V26.3184C3.95215 26.0677 4.15608 25.8638 4.40674 25.8638H8.28721V30.726C8.28721 31.9746 9.29976 32.9984 10.5597 32.9984C11.3669 32.9984 11.634 32.7328 13.5439 31.5623L15.3397 32.6628C16.8507 33.5907 18.8009 32.5007 18.8009 30.726V25.8638H22.6812C22.9319 25.8638 23.1358 26.0677 23.1358 26.3184V44.5928ZM32.58 26.9775C26.232 26.9775 21.0674 21.8129 21.0674 15.465C21.0674 9.11701 26.232 3.95251 32.58 3.95251C38.9279 3.95251 44.0924 9.11701 44.0924 15.465C44.0924 21.8129 38.9279 26.9775 32.58 26.9775Z" fill="url(#paint0_linear_1_137)"/>
<path d="M16.7565 37.66H10.3316C9.57839 37.66 8.96777 38.2706 8.96777 39.0238C8.96777 39.777 9.57839 40.3875 10.3316 40.3875H16.7565C17.5096 40.3875 18.1203 39.777 18.1203 39.0238C18.1203 38.2706 17.5096 37.66 16.7565 37.66Z" fill="#00A3E0"/>
<path d="M32.5803 7.46808C31.8271 7.46808 31.2165 8.07868 31.2165 8.83185V14.8736L28.6974 17.231C28.1475 17.7456 28.1189 18.6086 28.6334 19.1586C29.1482 19.7087 30.0113 19.737 30.5611 19.2225L33.5121 16.4608C33.7876 16.2031 33.9441 15.8426 33.9441 15.4651V8.83185C33.9441 8.07858 33.3334 7.46808 32.5803 7.46808Z" fill="#00A3E0"/>
<defs>
<linearGradient id="paint0_linear_1_137" x1="16.581" y1="24.5" x2="81.4024" y2="24.5" gradientUnits="userSpaceOnUse">
<stop stop-color="#005F87"/>
<stop offset="1" stop-color="#029BDB" stop-opacity="0.31"/>
</linearGradient>
</defs>
</svg>
