<svg width="567" height="270" viewBox="0 0 567 270" fill="none" xmlns="http://www.w3.org/2000/svg">
<g filter="url(#filter0_b_1_129)">
<rect width="566.129" height="270" rx="5" fill="white"/>
</g>
<path d="M76.1813 47.7961V41.1626C76.1813 38.9134 74.7026 37.0842 72.8344 36.9067L67.6134 26.147C67.1296 25.1519 66.3483 24.4406 65.4135 24.1453C64.4831 23.852 63.5102 24.006 62.6774 24.5779L44.7797 36.8722H41.6363C39.6309 36.8722 38 38.7963 38 41.1626V66.9057C38 69.2719 39.6308 71.1962 41.6363 71.1962H72.5449C74.5504 71.1962 76.1813 69.272 76.1813 66.9057V60.2723C77.2371 59.828 77.9994 58.6486 77.9994 57.252V50.8163C77.9994 49.4197 77.2371 48.2403 76.1813 47.7961ZM70.7217 36.8722H62.7982L68.7409 32.7899L70.7217 36.8722ZM67.8376 30.9283L59.1847 36.8722H55.5956L66.9401 29.0789L67.8376 30.9283ZM63.5926 26.4319C64.0037 26.148 64.4839 26.0726 64.943 26.2172C65.4073 26.3638 65.7944 26.7179 66.035 27.2133L66.0368 27.2173L51.9822 36.8722H48.3933L63.5926 26.4319ZM74.3631 66.9057C74.3631 68.0882 73.5472 69.0509 72.5449 69.0509H41.6363C40.6341 69.0509 39.8182 68.0882 39.8182 66.9057V41.1626C39.8182 39.9801 40.6341 39.0175 41.6363 39.0175H72.5449C73.5472 39.0175 74.3631 39.9801 74.3631 41.1626V47.5984H68.9086C65.9008 47.5984 63.4542 50.4853 63.4542 54.0342C63.4542 57.583 65.9008 60.4699 68.9086 60.4699H74.3631V66.9057ZM76.1813 57.252C76.1813 57.8438 75.7738 58.3247 75.2722 58.3247H68.9086C66.9032 58.3247 65.2723 56.4005 65.2723 54.0342C65.2723 51.6679 66.9031 49.7436 68.9086 49.7436H75.2722C75.7737 49.7436 76.1813 50.2244 76.1813 50.8163V57.252Z" fill="url(#paint0_linear_1_129)"/>
<path d="M89.045 61.25V36.75H100.455C103.302 36.75 105.518 37.2983 107.105 38.395C108.692 39.4917 109.485 41.055 109.485 43.085C109.485 45.0917 108.738 46.655 107.245 47.775C105.752 48.8717 103.768 49.42 101.295 49.42L101.96 47.95C104.713 47.95 106.848 48.4983 108.365 49.595C109.882 50.6917 110.64 52.2783 110.64 54.355C110.64 56.5017 109.823 58.1933 108.19 59.43C106.58 60.6433 104.223 61.25 101.12 61.25H89.045ZM94.68 57.05H100.91C102.217 57.05 103.208 56.7933 103.885 56.28C104.562 55.7667 104.9 54.9733 104.9 53.9C104.9 52.8733 104.562 52.115 103.885 51.625C103.208 51.1117 102.217 50.855 100.91 50.855H94.68V57.05ZM94.68 46.9H99.965C101.202 46.9 102.135 46.655 102.765 46.165C103.395 45.6517 103.71 44.905 103.71 43.925C103.71 42.945 103.395 42.21 102.765 41.72C102.135 41.2067 101.202 40.95 99.965 40.95H94.68V46.9ZM134.094 61.25V42.42H139.519V61.25H134.094ZM124.609 48.44C127.082 48.4633 128.937 49.0233 130.174 50.12C131.434 51.1933 132.064 52.7217 132.064 54.705C132.064 56.7817 131.352 58.4033 129.929 59.57C128.506 60.7133 126.487 61.285 123.874 61.285L114.704 61.25V42.42H120.129V48.44H124.609ZM123.384 57.4C124.434 57.4233 125.239 57.2017 125.799 56.735C126.359 56.2683 126.639 55.5683 126.639 54.635C126.639 53.7017 126.359 53.0367 125.799 52.64C125.239 52.22 124.434 51.9983 123.384 51.975L120.129 51.94V57.4H123.384ZM144.782 61.25V42.42H159.867V46.9H148.982L150.207 45.71V61.25H144.782ZM170.795 61.53C168.788 61.53 167.003 61.11 165.44 60.27C163.9 59.43 162.675 58.2867 161.765 56.84C160.878 55.37 160.435 53.7017 160.435 51.835C160.435 49.945 160.878 48.2767 161.765 46.83C162.675 45.36 163.9 44.2167 165.44 43.4C167.003 42.56 168.788 42.14 170.795 42.14C172.778 42.14 174.551 42.56 176.115 43.4C177.678 44.2167 178.903 45.3483 179.79 46.795C180.676 48.2417 181.12 49.9217 181.12 51.835C181.12 53.7017 180.676 55.37 179.79 56.84C178.903 58.2867 177.678 59.43 176.115 60.27C174.551 61.11 172.778 61.53 170.795 61.53ZM170.795 57.05C171.705 57.05 172.521 56.84 173.245 56.42C173.968 56 174.54 55.405 174.96 54.635C175.38 53.8417 175.59 52.9083 175.59 51.835C175.59 50.7383 175.38 49.805 174.96 49.035C174.54 48.265 173.968 47.67 173.245 47.25C172.521 46.83 171.705 46.62 170.795 46.62C169.885 46.62 169.068 46.83 168.345 47.25C167.621 47.67 167.038 48.265 166.595 49.035C166.175 49.805 165.965 50.7383 165.965 51.835C165.965 52.9083 166.175 53.8417 166.595 54.635C167.038 55.405 167.621 56 168.345 56.42C169.068 56.84 169.885 57.05 170.795 57.05ZM197.552 58.8V46.9H191.392L191.287 49.315C191.24 50.3183 191.182 51.275 191.112 52.185C191.042 53.095 190.902 53.9233 190.692 54.67C190.505 55.3933 190.225 56.0117 189.852 56.525C189.478 57.015 188.977 57.3533 188.347 57.54L182.957 56.77C183.633 56.77 184.182 56.5717 184.602 56.175C185.022 55.755 185.348 55.1833 185.582 54.46C185.815 53.7133 185.99 52.8733 186.107 51.94C186.223 50.9833 186.305 49.98 186.352 48.93L186.597 42.42H203.012V58.8H197.552ZM182.327 65.31V56.77H205.707V65.31H200.632V61.25H187.402V65.31H182.327ZM209.143 61.25V42.42H214.568V49.77H222.758V42.42H228.218V61.25H222.758V54.215H214.568V61.25H209.143ZM242.264 61.53C240.258 61.53 238.473 61.11 236.909 60.27C235.369 59.43 234.144 58.2867 233.234 56.84C232.348 55.37 231.904 53.7017 231.904 51.835C231.904 49.945 232.348 48.2767 233.234 46.83C234.144 45.36 235.369 44.2167 236.909 43.4C238.473 42.56 240.258 42.14 242.264 42.14C244.248 42.14 246.021 42.56 247.584 43.4C249.148 44.2167 250.373 45.3483 251.259 46.795C252.146 48.2417 252.589 49.9217 252.589 51.835C252.589 53.7017 252.146 55.37 251.259 56.84C250.373 58.2867 249.148 59.43 247.584 60.27C246.021 61.11 244.248 61.53 242.264 61.53ZM242.264 57.05C243.174 57.05 243.991 56.84 244.714 56.42C245.438 56 246.009 55.405 246.429 54.635C246.849 53.8417 247.059 52.9083 247.059 51.835C247.059 50.7383 246.849 49.805 246.429 49.035C246.009 48.265 245.438 47.67 244.714 47.25C243.991 46.83 243.174 46.62 242.264 46.62C241.354 46.62 240.538 46.83 239.814 47.25C239.091 47.67 238.508 48.265 238.064 49.035C237.644 49.805 237.434 50.7383 237.434 51.835C237.434 52.9083 237.644 53.8417 238.064 54.635C238.508 55.405 239.091 56 239.814 56.42C240.538 56.84 241.354 57.05 242.264 57.05Z" fill="#005F87"/>
<path d="M40.95 115V97.5H48.225C50.075 97.5 51.525 97.8833 52.575 98.65C53.6417 99.4 54.175 100.508 54.175 101.975C54.175 103.425 53.6667 104.525 52.65 105.275C51.6333 106.008 50.3 106.375 48.65 106.375L49.075 105.75C51.025 105.75 52.5083 106.133 53.525 106.9C54.5417 107.667 55.05 108.792 55.05 110.275C55.05 111.775 54.5167 112.942 53.45 113.775C52.4 114.592 50.8167 115 48.7 115H40.95ZM42.775 113.525H48.7C50.1833 113.525 51.3083 113.25 52.075 112.7C52.8417 112.15 53.225 111.3 53.225 110.15C53.225 109.017 52.8417 108.183 52.075 107.65C51.3083 107.117 50.1833 106.85 48.7 106.85H42.775V113.525ZM42.775 105.425H48.125C49.475 105.425 50.5083 105.158 51.225 104.625C51.9583 104.075 52.325 103.267 52.325 102.2C52.325 101.133 51.9583 100.333 51.225 99.8C50.5083 99.25 49.475 98.975 48.125 98.975H42.775V105.425ZM72.0506 115V101.875H73.8256V115H72.0506ZM64.7756 106.5C66.4256 106.517 67.6839 106.883 68.5506 107.6C69.4173 108.317 69.8506 109.35 69.8506 110.7C69.8506 112.1 69.3839 113.175 68.4506 113.925C67.5173 114.675 66.1839 115.042 64.4506 115.025L59.2506 115V101.875H61.0256V106.45L64.7756 106.5ZM64.3256 113.675C65.5589 113.692 66.4839 113.45 67.1006 112.95C67.7339 112.433 68.0506 111.683 68.0506 110.7C68.0506 109.717 67.7423 109 67.1256 108.55C66.5089 108.083 65.5756 107.842 64.3256 107.825L61.0256 107.775V113.625L64.3256 113.675ZM87.2475 109V107.65H94.8725V109H87.2475ZM88.9975 101.75C90.3308 101.75 91.5225 102.042 92.5725 102.625C93.6225 103.192 94.4475 103.983 95.0475 105C95.6641 106 95.9725 107.142 95.9725 108.425C95.9725 109.708 95.6641 110.858 95.0475 111.875C94.4475 112.892 93.6225 113.692 92.5725 114.275C91.5225 114.858 90.3308 115.15 88.9975 115.15C87.9141 115.15 86.9058 114.983 85.9725 114.65C85.0558 114.3 84.2808 113.8 83.6475 113.15L84.6975 112.1C85.2641 112.633 85.9058 113.033 86.6225 113.3C87.3391 113.55 88.1058 113.675 88.9225 113.675C89.9558 113.675 90.8725 113.45 91.6725 113C92.4891 112.533 93.1308 111.908 93.5975 111.125C94.0641 110.325 94.2975 109.425 94.2975 108.425C94.2975 107.425 94.0641 106.533 93.5975 105.75C93.1308 104.95 92.4891 104.325 91.6725 103.875C90.8725 103.425 89.9558 103.2 88.9225 103.2C88.1058 103.2 87.3391 103.333 86.6225 103.6C85.9058 103.85 85.2641 104.242 84.6975 104.775L83.6475 103.75C84.2808 103.083 85.0558 102.583 85.9725 102.25C86.9058 101.917 87.9141 101.75 88.9975 101.75ZM109.33 115L103.93 108.5L105.405 107.625L111.43 115H109.33ZM99.7047 115V101.875H101.48V115H99.7047ZM100.93 109.15V107.625H105.155V109.15H100.93ZM105.555 108.625L103.905 108.375L109.13 101.875H111.055L105.555 108.625ZM119.167 115.125C117.901 115.125 116.759 114.842 115.742 114.275C114.742 113.692 113.951 112.9 113.367 111.9C112.784 110.883 112.492 109.725 112.492 108.425C112.492 107.108 112.784 105.95 113.367 104.95C113.951 103.95 114.742 103.167 115.742 102.6C116.742 102.033 117.884 101.75 119.167 101.75C120.467 101.75 121.617 102.033 122.617 102.6C123.634 103.167 124.426 103.95 124.992 104.95C125.576 105.95 125.867 107.108 125.867 108.425C125.867 109.725 125.576 110.883 124.992 111.9C124.426 112.9 123.634 113.692 122.617 114.275C121.601 114.842 120.451 115.125 119.167 115.125ZM119.167 113.55C120.117 113.55 120.959 113.342 121.692 112.925C122.426 112.492 123.001 111.892 123.417 111.125C123.851 110.342 124.067 109.442 124.067 108.425C124.067 107.392 123.851 106.492 123.417 105.725C123.001 104.958 122.426 104.367 121.692 103.95C120.959 103.517 120.126 103.3 119.192 103.3C118.259 103.3 117.426 103.517 116.692 103.95C115.959 104.367 115.376 104.958 114.942 105.725C114.509 106.492 114.292 107.392 114.292 108.425C114.292 109.442 114.509 110.342 114.942 111.125C115.376 111.892 115.959 112.492 116.692 112.925C117.426 113.342 118.251 113.55 119.167 113.55ZM129.661 115V101.875H131.436V107.675H139.711V101.875H141.486V115H139.711V109.2H131.436V115H129.661ZM151.931 115.125C150.664 115.125 149.523 114.842 148.506 114.275C147.506 113.692 146.714 112.9 146.131 111.9C145.548 110.883 145.256 109.725 145.256 108.425C145.256 107.108 145.548 105.95 146.131 104.95C146.714 103.95 147.506 103.167 148.506 102.6C149.506 102.033 150.648 101.75 151.931 101.75C153.231 101.75 154.381 102.033 155.381 102.6C156.398 103.167 157.189 103.95 157.756 104.95C158.339 105.95 158.631 107.108 158.631 108.425C158.631 109.725 158.339 110.883 157.756 111.9C157.189 112.9 156.398 113.692 155.381 114.275C154.364 114.842 153.214 115.125 151.931 115.125ZM151.931 113.55C152.881 113.55 153.723 113.342 154.456 112.925C155.189 112.492 155.764 111.892 156.181 111.125C156.614 110.342 156.831 109.442 156.831 108.425C156.831 107.392 156.614 106.492 156.181 105.725C155.764 104.958 155.189 104.367 154.456 103.95C153.723 103.517 152.889 103.3 151.956 103.3C151.023 103.3 150.189 103.517 149.456 103.95C148.723 104.367 148.139 104.958 147.706 105.725C147.273 106.492 147.056 107.392 147.056 108.425C147.056 109.442 147.273 110.342 147.706 111.125C148.139 111.892 148.723 112.492 149.456 112.925C150.189 113.342 151.014 113.55 151.931 113.55ZM162.424 115V101.875H164.224L170.174 111.95H169.424L175.474 101.875H177.124V115H175.499V103.9L175.824 104.05L170.174 113.4H169.374L163.674 103.95L164.049 103.875V115H162.424ZM182.175 115V101.875H183.95V112.3L192.725 101.875H194.3V115H192.525V104.55L183.775 115H182.175ZM201.887 115V102.95L202.337 103.425H196.912V101.875H208.637V103.425H203.212L203.662 102.95V115H201.887ZM216.218 115.125C214.852 115.125 213.652 114.842 212.618 114.275C211.585 113.692 210.777 112.9 210.193 111.9C209.61 110.883 209.318 109.725 209.318 108.425C209.318 107.125 209.593 105.975 210.143 104.975C210.71 103.975 211.477 103.192 212.443 102.625C213.427 102.042 214.527 101.75 215.743 101.75C216.977 101.75 218.068 102.033 219.018 102.6C219.985 103.15 220.743 103.933 221.293 104.95C221.843 105.95 222.118 107.108 222.118 108.425C222.118 108.508 222.11 108.6 222.093 108.7C222.093 108.783 222.093 108.875 222.093 108.975H210.668V107.65H221.143L220.443 108.175C220.443 107.225 220.235 106.383 219.818 105.65C219.418 104.9 218.868 104.317 218.168 103.9C217.468 103.483 216.66 103.275 215.743 103.275C214.843 103.275 214.035 103.483 213.318 103.9C212.602 104.317 212.043 104.9 211.643 105.65C211.243 106.4 211.043 107.258 211.043 108.225V108.5C211.043 109.5 211.26 110.383 211.693 111.15C212.143 111.9 212.76 112.492 213.543 112.925C214.343 113.342 215.252 113.55 216.268 113.55C217.068 113.55 217.81 113.408 218.493 113.125C219.193 112.842 219.793 112.408 220.293 111.825L221.293 112.975C220.71 113.675 219.977 114.208 219.093 114.575C218.227 114.942 217.268 115.125 216.218 115.125ZM232.59 115V101.875H234.365V107.675H242.64V101.875H244.415V115H242.64V109.2H234.365V115H232.59ZM257.611 115V112.1L257.536 111.625V106.775C257.536 105.658 257.219 104.8 256.586 104.2C255.969 103.6 255.044 103.3 253.811 103.3C252.961 103.3 252.152 103.442 251.386 103.725C250.619 104.008 249.969 104.383 249.436 104.85L248.636 103.525C249.302 102.958 250.102 102.525 251.036 102.225C251.969 101.908 252.952 101.75 253.986 101.75C255.686 101.75 256.994 102.175 257.911 103.025C258.844 103.858 259.311 105.133 259.311 106.85V115H257.611ZM253.086 115.125C252.102 115.125 251.244 114.967 250.511 114.65C249.794 114.317 249.244 113.867 248.861 113.3C248.477 112.717 248.286 112.05 248.286 111.3C248.286 110.617 248.444 110 248.761 109.45C249.094 108.883 249.627 108.433 250.361 108.1C251.111 107.75 252.111 107.575 253.361 107.575H257.886V108.9H253.411C252.144 108.9 251.261 109.125 250.761 109.575C250.277 110.025 250.036 110.583 250.036 111.25C250.036 112 250.327 112.6 250.911 113.05C251.494 113.5 252.311 113.725 253.361 113.725C254.361 113.725 255.219 113.5 255.936 113.05C256.669 112.583 257.202 111.917 257.536 111.05L257.936 112.275C257.602 113.142 257.019 113.833 256.186 114.35C255.369 114.867 254.336 115.125 253.086 115.125ZM270.579 115V101.875H276.379C277.862 101.875 279.029 102.158 279.879 102.725C280.745 103.292 281.179 104.125 281.179 105.225C281.179 106.292 280.77 107.117 279.954 107.7C279.137 108.267 278.062 108.55 276.729 108.55L277.079 108.025C278.645 108.025 279.795 108.317 280.529 108.9C281.262 109.483 281.629 110.325 281.629 111.425C281.629 112.558 281.212 113.442 280.379 114.075C279.562 114.692 278.287 115 276.554 115H270.579ZM272.304 113.6H276.479C277.595 113.6 278.437 113.425 279.004 113.075C279.587 112.708 279.879 112.125 279.879 111.325C279.879 110.525 279.62 109.942 279.104 109.575C278.587 109.208 277.77 109.025 276.654 109.025H272.304V113.6ZM272.304 107.7H276.254C277.27 107.7 278.045 107.508 278.579 107.125C279.129 106.742 279.404 106.183 279.404 105.45C279.404 104.717 279.129 104.167 278.579 103.8C278.045 103.433 277.27 103.25 276.254 103.25H272.304V107.7ZM298.589 115V101.875H300.364V115H298.589ZM291.314 106.5C292.964 106.517 294.222 106.883 295.089 107.6C295.955 108.317 296.389 109.35 296.389 110.7C296.389 112.1 295.922 113.175 294.989 113.925C294.055 114.675 292.722 115.042 290.989 115.025L285.789 115V101.875H287.564V106.45L291.314 106.5ZM290.864 113.675C292.097 113.692 293.022 113.45 293.639 112.95C294.272 112.433 294.589 111.683 294.589 110.7C294.589 109.717 294.28 109 293.664 108.55C293.047 108.083 292.114 107.842 290.864 107.825L287.564 107.775V113.625L290.864 113.675ZM311.043 115.125C309.676 115.125 308.476 114.842 307.443 114.275C306.409 113.692 305.601 112.9 305.018 111.9C304.434 110.883 304.143 109.725 304.143 108.425C304.143 107.125 304.418 105.975 304.968 104.975C305.534 103.975 306.301 103.192 307.268 102.625C308.251 102.042 309.351 101.75 310.568 101.75C311.801 101.75 312.893 102.033 313.843 102.6C314.809 103.15 315.568 103.933 316.118 104.95C316.668 105.95 316.943 107.108 316.943 108.425C316.943 108.508 316.934 108.6 316.918 108.7C316.918 108.783 316.918 108.875 316.918 108.975H305.493V107.65H315.968L315.268 108.175C315.268 107.225 315.059 106.383 314.643 105.65C314.243 104.9 313.693 104.317 312.993 103.9C312.293 103.483 311.484 103.275 310.568 103.275C309.668 103.275 308.859 103.483 308.143 103.9C307.426 104.317 306.868 104.9 306.468 105.65C306.068 106.4 305.868 107.258 305.868 108.225V108.5C305.868 109.5 306.084 110.383 306.518 111.15C306.968 111.9 307.584 112.492 308.368 112.925C309.168 113.342 310.076 113.55 311.093 113.55C311.893 113.55 312.634 113.408 313.318 113.125C314.018 112.842 314.618 112.408 315.118 111.825L316.118 112.975C315.534 113.675 314.801 114.208 313.918 114.575C313.051 114.942 312.093 115.125 311.043 115.125ZM324.03 115.15C325.114 115.15 326.089 114.983 326.955 114.65C327.839 114.317 328.539 113.858 329.055 113.275C329.572 112.675 329.83 111.983 329.83 111.2C329.83 110.2 329.405 109.408 328.555 108.825C327.722 108.242 326.555 107.95 325.055 107.95L324.98 108.425C325.83 108.425 326.589 108.292 327.255 108.025C327.922 107.758 328.455 107.383 328.855 106.9C329.255 106.417 329.455 105.85 329.455 105.2C329.455 104.467 329.205 103.842 328.705 103.325C328.205 102.792 327.53 102.383 326.68 102.1C325.847 101.817 324.905 101.692 323.855 101.725C323.089 101.725 322.322 101.833 321.555 102.05C320.805 102.25 320.047 102.55 319.28 102.95L319.78 104.325C320.464 103.975 321.155 103.717 321.855 103.55C322.555 103.367 323.23 103.267 323.88 103.25C324.597 103.25 325.239 103.333 325.805 103.5C326.372 103.667 326.814 103.917 327.13 104.25C327.464 104.583 327.63 104.983 327.63 105.45C327.63 105.883 327.489 106.258 327.205 106.575C326.939 106.892 326.555 107.133 326.055 107.3C325.555 107.467 324.98 107.55 324.33 107.55H322.205V108.85H324.455C325.555 108.85 326.422 109.05 327.055 109.45C327.689 109.833 328.005 110.375 328.005 111.075C328.005 111.558 327.839 111.992 327.505 112.375C327.172 112.758 326.705 113.058 326.105 113.275C325.505 113.492 324.797 113.608 323.98 113.625C323.164 113.625 322.339 113.508 321.505 113.275C320.672 113.025 319.939 112.667 319.305 112.2L318.73 113.525C319.447 114.075 320.272 114.483 321.205 114.75C322.139 115.017 323.08 115.15 324.03 115.15ZM342.86 114.15V103.425H336.535L336.385 106.35C336.352 107.233 336.293 108.1 336.21 108.95C336.143 109.8 336.018 110.583 335.835 111.3C335.668 112 335.427 112.575 335.11 113.025C334.793 113.458 334.385 113.708 333.885 113.775L332.11 113.45C332.627 113.467 333.052 113.283 333.385 112.9C333.718 112.5 333.977 111.958 334.16 111.275C334.343 110.592 334.477 109.817 334.56 108.95C334.643 108.067 334.71 107.167 334.76 106.25L334.935 101.875H344.635V114.15H342.86ZM331.56 118.175V113.45H346.685V118.175H345.01V115H333.235V118.175H331.56ZM355.769 115.125C354.402 115.125 353.202 114.842 352.169 114.275C351.136 113.692 350.327 112.9 349.744 111.9C349.161 110.883 348.869 109.725 348.869 108.425C348.869 107.125 349.144 105.975 349.694 104.975C350.261 103.975 351.027 103.192 351.994 102.625C352.977 102.042 354.077 101.75 355.294 101.75C356.527 101.75 357.619 102.033 358.569 102.6C359.536 103.15 360.294 103.933 360.844 104.95C361.394 105.95 361.669 107.108 361.669 108.425C361.669 108.508 361.661 108.6 361.644 108.7C361.644 108.783 361.644 108.875 361.644 108.975H350.219V107.65H360.694L359.994 108.175C359.994 107.225 359.786 106.383 359.369 105.65C358.969 104.9 358.419 104.317 357.719 103.9C357.019 103.483 356.211 103.275 355.294 103.275C354.394 103.275 353.586 103.483 352.869 103.9C352.152 104.317 351.594 104.9 351.194 105.65C350.794 106.4 350.594 107.258 350.594 108.225V108.5C350.594 109.5 350.811 110.383 351.244 111.15C351.694 111.9 352.311 112.492 353.094 112.925C353.894 113.342 354.802 113.55 355.819 113.55C356.619 113.55 357.361 113.408 358.044 113.125C358.744 112.842 359.344 112.408 359.844 111.825L360.844 112.975C360.261 113.675 359.527 114.208 358.644 114.575C357.777 114.942 356.819 115.125 355.769 115.125ZM46.025 146.125C44.725 146.125 43.5583 145.842 42.525 145.275C41.5083 144.692 40.7083 143.9 40.125 142.9C39.5417 141.883 39.25 140.725 39.25 139.425C39.25 138.108 39.5417 136.95 40.125 135.95C40.7083 134.95 41.5083 134.167 42.525 133.6C43.5583 133.033 44.725 132.75 46.025 132.75C47.1417 132.75 48.15 132.967 49.05 133.4C49.95 133.833 50.6583 134.483 51.175 135.35L49.85 136.25C49.4 135.583 48.8417 135.092 48.175 134.775C47.5083 134.458 46.7833 134.3 46 134.3C45.0667 134.3 44.225 134.517 43.475 134.95C42.725 135.367 42.1333 135.958 41.7 136.725C41.2667 137.492 41.05 138.392 41.05 139.425C41.05 140.458 41.2667 141.358 41.7 142.125C42.1333 142.892 42.725 143.492 43.475 143.925C44.225 144.342 45.0667 144.55 46 144.55C46.7833 144.55 47.5083 144.392 48.175 144.075C48.8417 143.758 49.4 143.275 49.85 142.625L51.175 143.525C50.6583 144.375 49.95 145.025 49.05 145.475C48.15 145.908 47.1417 146.125 46.025 146.125ZM54.6119 146V132.875H66.4119V146H64.6369V133.95L65.0869 134.425H55.9369L56.3869 133.95V146H54.6119ZM77.0826 146.125C75.716 146.125 74.516 145.842 73.4826 145.275C72.4493 144.692 71.641 143.9 71.0576 142.9C70.4743 141.883 70.1826 140.725 70.1826 139.425C70.1826 138.125 70.4576 136.975 71.0076 135.975C71.5743 134.975 72.341 134.192 73.3076 133.625C74.291 133.042 75.391 132.75 76.6076 132.75C77.841 132.75 78.9326 133.033 79.8826 133.6C80.8493 134.15 81.6076 134.933 82.1576 135.95C82.7076 136.95 82.9826 138.108 82.9826 139.425C82.9826 139.508 82.9743 139.6 82.9576 139.7C82.9576 139.783 82.9576 139.875 82.9576 139.975H71.5326V138.65H82.0076L81.3076 139.175C81.3076 138.225 81.0993 137.383 80.6826 136.65C80.2826 135.9 79.7326 135.317 79.0326 134.9C78.3326 134.483 77.5243 134.275 76.6076 134.275C75.7076 134.275 74.8993 134.483 74.1826 134.9C73.466 135.317 72.9076 135.9 72.5076 136.65C72.1076 137.4 71.9076 138.258 71.9076 139.225V139.5C71.9076 140.5 72.1243 141.383 72.5576 142.15C73.0076 142.9 73.6243 143.492 74.4076 143.925C75.2076 144.342 76.116 144.55 77.1326 144.55C77.9326 144.55 78.6743 144.408 79.3576 144.125C80.0576 143.842 80.6576 143.408 81.1576 142.825L82.1576 143.975C81.5743 144.675 80.841 145.208 79.9576 145.575C79.091 145.942 78.1326 146.125 77.0826 146.125ZM86.9117 146V132.875H88.6867V144.45H96.7117V132.875H98.4867V146H86.9117ZM98.9367 149.175V145.85L99.3867 146H96.7117V144.45H100.612V149.175H98.9367ZM104.002 146V132.875H105.777V143.3L114.552 132.875H116.127V146H114.352V135.55L105.602 146H104.002ZM129.363 146V143.1L129.288 142.625V137.775C129.288 136.658 128.972 135.8 128.338 135.2C127.722 134.6 126.797 134.3 125.563 134.3C124.713 134.3 123.905 134.442 123.138 134.725C122.372 135.008 121.722 135.383 121.188 135.85L120.388 134.525C121.055 133.958 121.855 133.525 122.788 133.225C123.722 132.908 124.705 132.75 125.738 132.75C127.438 132.75 128.747 133.175 129.663 134.025C130.597 134.858 131.063 136.133 131.063 137.85V146H129.363ZM124.838 146.125C123.855 146.125 122.997 145.967 122.263 145.65C121.547 145.317 120.997 144.867 120.613 144.3C120.23 143.717 120.038 143.05 120.038 142.3C120.038 141.617 120.197 141 120.513 140.45C120.847 139.883 121.38 139.433 122.113 139.1C122.863 138.75 123.863 138.575 125.113 138.575H129.638V139.9H125.163C123.897 139.9 123.013 140.125 122.513 140.575C122.03 141.025 121.788 141.583 121.788 142.25C121.788 143 122.08 143.6 122.663 144.05C123.247 144.5 124.063 144.725 125.113 144.725C126.113 144.725 126.972 144.5 127.688 144.05C128.422 143.583 128.955 142.917 129.288 142.05L129.688 143.275C129.355 144.142 128.772 144.833 127.938 145.35C127.122 145.867 126.088 146.125 124.838 146.125ZM133.389 145.975L133.514 144.45C133.63 144.467 133.739 144.492 133.839 144.525C133.955 144.542 134.055 144.55 134.139 144.55C134.672 144.55 135.097 144.35 135.414 143.95C135.747 143.55 135.997 143.017 136.164 142.35C136.33 141.683 136.447 140.933 136.514 140.1C136.58 139.25 136.639 138.4 136.689 137.55L136.914 132.875H146.539V146H144.764V133.9L145.214 134.425H138.064L138.489 133.875L138.289 137.675C138.239 138.808 138.147 139.892 138.014 140.925C137.897 141.958 137.705 142.867 137.439 143.65C137.189 144.433 136.839 145.05 136.389 145.5C135.939 145.933 135.364 146.15 134.664 146.15C134.464 146.15 134.255 146.133 134.039 146.1C133.839 146.067 133.622 146.025 133.389 145.975ZM151.585 146V132.875H153.36V143.3L162.135 132.875H163.71V146H161.935V135.55L153.185 146H151.585ZM174.296 146.125C172.996 146.125 171.83 145.842 170.796 145.275C169.78 144.692 168.98 143.9 168.396 142.9C167.813 141.883 167.521 140.725 167.521 139.425C167.521 138.108 167.813 136.95 168.396 135.95C168.98 134.95 169.78 134.167 170.796 133.6C171.83 133.033 172.996 132.75 174.296 132.75C175.413 132.75 176.421 132.967 177.321 133.4C178.221 133.833 178.93 134.483 179.446 135.35L178.121 136.25C177.671 135.583 177.113 135.092 176.446 134.775C175.78 134.458 175.055 134.3 174.271 134.3C173.338 134.3 172.496 134.517 171.746 134.95C170.996 135.367 170.405 135.958 169.971 136.725C169.538 137.492 169.321 138.392 169.321 139.425C169.321 140.458 169.538 141.358 169.971 142.125C170.405 142.892 170.996 143.492 171.746 143.925C172.496 144.342 173.338 144.55 174.271 144.55C175.055 144.55 175.78 144.392 176.446 144.075C177.113 143.758 177.671 143.275 178.121 142.625L179.446 143.525C178.93 144.375 178.221 145.025 177.321 145.475C176.421 145.908 175.413 146.125 174.296 146.125ZM185.139 146V133.95L185.589 134.425H180.164V132.875H191.889V134.425H186.464L186.914 133.95V146H185.139ZM202.606 146V143.1L202.531 142.625V137.775C202.531 136.658 202.214 135.8 201.581 135.2C200.964 134.6 200.039 134.3 198.806 134.3C197.956 134.3 197.147 134.442 196.381 134.725C195.614 135.008 194.964 135.383 194.431 135.85L193.631 134.525C194.297 133.958 195.097 133.525 196.031 133.225C196.964 132.908 197.947 132.75 198.981 132.75C200.681 132.75 201.989 133.175 202.906 134.025C203.839 134.858 204.306 136.133 204.306 137.85V146H202.606ZM198.081 146.125C197.097 146.125 196.239 145.967 195.506 145.65C194.789 145.317 194.239 144.867 193.856 144.3C193.472 143.717 193.281 143.05 193.281 142.3C193.281 141.617 193.439 141 193.756 140.45C194.089 139.883 194.622 139.433 195.356 139.1C196.106 138.75 197.106 138.575 198.356 138.575H202.881V139.9H198.406C197.139 139.9 196.256 140.125 195.756 140.575C195.272 141.025 195.031 141.583 195.031 142.25C195.031 143 195.322 143.6 195.906 144.05C196.489 144.5 197.306 144.725 198.356 144.725C199.356 144.725 200.214 144.5 200.931 144.05C201.664 143.583 202.197 142.917 202.531 142.05L202.931 143.275C202.597 144.142 202.014 144.833 201.181 145.35C200.364 145.867 199.331 146.125 198.081 146.125ZM215.899 146V128.5H223.449C225.399 128.5 226.907 128.892 227.974 129.675C229.057 130.458 229.599 131.567 229.599 133C229.599 133.95 229.374 134.75 228.924 135.4C228.49 136.05 227.89 136.542 227.124 136.875C226.374 137.208 225.549 137.375 224.649 137.375L225.074 136.775C226.19 136.775 227.149 136.95 227.949 137.3C228.765 137.633 229.399 138.142 229.849 138.825C230.299 139.492 230.524 140.325 230.524 141.325C230.524 142.808 229.974 143.958 228.874 144.775C227.79 145.592 226.149 146 223.949 146H215.899ZM217.749 144.475H223.924C225.457 144.475 226.632 144.217 227.449 143.7C228.265 143.167 228.674 142.325 228.674 141.175C228.674 140.042 228.265 139.217 227.449 138.7C226.632 138.167 225.457 137.9 223.924 137.9H217.549V136.375H223.324C224.724 136.375 225.807 136.108 226.574 135.575C227.357 135.042 227.749 134.25 227.749 133.2C227.749 132.133 227.357 131.342 226.574 130.825C225.807 130.292 224.724 130.025 223.324 130.025H217.749V144.475ZM239.599 146L231.849 128.5H233.849L241.099 144.975H239.999L247.299 128.5H249.174L241.424 146H239.599ZM251.714 146V128.5H253.564V144.4H263.364V146H251.714ZM282.279 146L276.879 139.5L278.354 138.625L284.379 146H282.279ZM272.654 146V132.875H274.429V146H272.654ZM273.879 140.15V138.625H278.104V140.15H273.879ZM278.504 139.625L276.854 139.375L282.079 132.875H284.004L278.504 139.625ZM293.723 146V132.875H299.523C301.007 132.875 302.173 133.158 303.023 133.725C303.89 134.292 304.323 135.125 304.323 136.225C304.323 137.292 303.915 138.117 303.098 138.7C302.282 139.267 301.207 139.55 299.873 139.55L300.223 139.025C301.79 139.025 302.94 139.317 303.673 139.9C304.407 140.483 304.773 141.325 304.773 142.425C304.773 143.558 304.357 144.442 303.523 145.075C302.707 145.692 301.432 146 299.698 146H293.723ZM295.448 144.6H299.623C300.74 144.6 301.582 144.425 302.148 144.075C302.732 143.708 303.023 143.125 303.023 142.325C303.023 141.525 302.765 140.942 302.248 140.575C301.732 140.208 300.915 140.025 299.798 140.025H295.448V144.6ZM295.448 138.7H299.398C300.415 138.7 301.19 138.508 301.723 138.125C302.273 137.742 302.548 137.183 302.548 136.45C302.548 135.717 302.273 135.167 301.723 134.8C301.19 134.433 300.415 134.25 299.398 134.25H295.448V138.7ZM317.083 146V143.1L317.008 142.625V137.775C317.008 136.658 316.692 135.8 316.058 135.2C315.442 134.6 314.517 134.3 313.283 134.3C312.433 134.3 311.625 134.442 310.858 134.725C310.092 135.008 309.442 135.383 308.908 135.85L308.108 134.525C308.775 133.958 309.575 133.525 310.508 133.225C311.442 132.908 312.425 132.75 313.458 132.75C315.158 132.75 316.467 133.175 317.383 134.025C318.317 134.858 318.783 136.133 318.783 137.85V146H317.083ZM312.558 146.125C311.575 146.125 310.717 145.967 309.983 145.65C309.267 145.317 308.717 144.867 308.333 144.3C307.95 143.717 307.758 143.05 307.758 142.3C307.758 141.617 307.917 141 308.233 140.45C308.567 139.883 309.1 139.433 309.833 139.1C310.583 138.75 311.583 138.575 312.833 138.575H317.358V139.9H312.883C311.617 139.9 310.733 140.125 310.233 140.575C309.75 141.025 309.508 141.583 309.508 142.25C309.508 143 309.8 143.6 310.383 144.05C310.967 144.5 311.783 144.725 312.833 144.725C313.833 144.725 314.692 144.5 315.408 144.05C316.142 143.583 316.675 142.917 317.008 142.05L317.408 143.275C317.075 144.142 316.492 144.833 315.658 145.35C314.842 145.867 313.808 146.125 312.558 146.125ZM323.508 146V132.875H325.308L331.258 142.95H330.508L336.558 132.875H338.208V146H336.583V134.9L336.908 135.05L331.258 144.4H330.458L324.758 134.95L325.133 134.875V146H323.508ZM349.802 146V132.875H351.577V138.675H359.852V132.875H361.627V146H359.852V140.2H351.577V146H349.802ZM374.822 146V143.1L374.747 142.625V137.775C374.747 136.658 374.431 135.8 373.797 135.2C373.181 134.6 372.256 134.3 371.022 134.3C370.172 134.3 369.364 134.442 368.597 134.725C367.831 135.008 367.181 135.383 366.647 135.85L365.847 134.525C366.514 133.958 367.314 133.525 368.247 133.225C369.181 132.908 370.164 132.75 371.197 132.75C372.897 132.75 374.206 133.175 375.122 134.025C376.056 134.858 376.522 136.133 376.522 137.85V146H374.822ZM370.297 146.125C369.314 146.125 368.456 145.967 367.722 145.65C367.006 145.317 366.456 144.867 366.072 144.3C365.689 143.717 365.497 143.05 365.497 142.3C365.497 141.617 365.656 141 365.972 140.45C366.306 139.883 366.839 139.433 367.572 139.1C368.322 138.75 369.322 138.575 370.572 138.575H375.097V139.9H370.622C369.356 139.9 368.472 140.125 367.972 140.575C367.489 141.025 367.247 141.583 367.247 142.25C367.247 143 367.539 143.6 368.122 144.05C368.706 144.5 369.522 144.725 370.572 144.725C371.572 144.725 372.431 144.5 373.147 144.05C373.881 143.583 374.414 142.917 374.747 142.05L375.147 143.275C374.814 144.142 374.231 144.833 373.397 145.35C372.581 145.867 371.547 146.125 370.297 146.125ZM393.191 146.125C391.924 146.125 390.782 145.842 389.766 145.275C388.766 144.692 387.974 143.9 387.391 142.9C386.807 141.883 386.516 140.725 386.516 139.425C386.516 138.108 386.807 136.95 387.391 135.95C387.974 134.95 388.766 134.167 389.766 133.6C390.766 133.033 391.907 132.75 393.191 132.75C394.491 132.75 395.641 133.033 396.641 133.6C397.657 134.167 398.449 134.95 399.016 135.95C399.599 136.95 399.891 138.108 399.891 139.425C399.891 140.725 399.599 141.883 399.016 142.9C398.449 143.9 397.657 144.692 396.641 145.275C395.624 145.842 394.474 146.125 393.191 146.125ZM393.191 144.55C394.141 144.55 394.982 144.342 395.716 143.925C396.449 143.492 397.024 142.892 397.441 142.125C397.874 141.342 398.091 140.442 398.091 139.425C398.091 138.392 397.874 137.492 397.441 136.725C397.024 135.958 396.449 135.367 395.716 134.95C394.982 134.517 394.149 134.3 393.216 134.3C392.282 134.3 391.449 134.517 390.716 134.95C389.982 135.367 389.399 135.958 388.966 136.725C388.532 137.492 388.316 138.392 388.316 139.425C388.316 140.442 388.532 141.342 388.966 142.125C389.399 142.892 389.982 143.492 390.716 143.925C391.449 144.342 392.274 144.55 393.191 144.55ZM409.584 146.15C408.518 146.15 407.568 145.975 406.734 145.625C405.918 145.275 405.218 144.742 404.634 144.025C404.051 143.308 403.609 142.425 403.309 141.375C403.009 140.308 402.859 139.075 402.859 137.675C402.859 136.425 402.976 135.333 403.209 134.4C403.443 133.45 403.768 132.633 404.184 131.95C404.601 131.267 405.084 130.692 405.634 130.225C406.201 129.742 406.809 129.358 407.459 129.075C408.126 128.775 408.809 128.55 409.509 128.4L415.409 127.025L415.709 128.675L410.159 129.925C409.809 130.008 409.384 130.125 408.884 130.275C408.401 130.425 407.901 130.65 407.384 130.95C406.884 131.25 406.418 131.667 405.984 132.2C405.551 132.733 405.201 133.425 404.934 134.275C404.684 135.108 404.559 136.15 404.559 137.4C404.559 137.667 404.568 137.883 404.584 138.05C404.601 138.2 404.618 138.367 404.634 138.55C404.668 138.717 404.693 138.967 404.709 139.3L403.934 138.65C404.118 137.633 404.493 136.75 405.059 136C405.626 135.233 406.334 134.642 407.184 134.225C408.051 133.792 409.009 133.575 410.059 133.575C411.276 133.575 412.359 133.842 413.309 134.375C414.259 134.892 415.001 135.617 415.534 136.55C416.084 137.483 416.359 138.567 416.359 139.8C416.359 141.017 416.076 142.108 415.509 143.075C414.959 144.042 414.176 144.8 413.159 145.35C412.143 145.883 410.951 146.15 409.584 146.15ZM409.784 144.675C410.718 144.675 411.543 144.467 412.259 144.05C412.976 143.617 413.534 143.033 413.934 142.3C414.351 141.567 414.559 140.742 414.559 139.825C414.559 138.925 414.351 138.125 413.934 137.425C413.534 136.725 412.976 136.175 412.259 135.775C411.543 135.358 410.709 135.15 409.759 135.15C408.826 135.15 408.001 135.35 407.284 135.75C406.568 136.133 406.001 136.675 405.584 137.375C405.184 138.075 404.984 138.883 404.984 139.8C404.984 140.717 405.184 141.542 405.584 142.275C406.001 143.008 406.568 143.592 407.284 144.025C408.018 144.458 408.851 144.675 409.784 144.675ZM426.85 137.45C428.484 137.45 429.717 137.817 430.55 138.55C431.4 139.283 431.825 140.317 431.825 141.65C431.825 143.067 431.367 144.15 430.45 144.9C429.534 145.633 428.217 146 426.5 146H421.3V134.425H417.2V132.875H423.075V137.45H426.85ZM426.475 144.625C427.642 144.625 428.525 144.375 429.125 143.875C429.725 143.375 430.025 142.633 430.025 141.65C430.025 139.75 428.842 138.8 426.475 138.8H423.075V144.625H426.475ZM440.828 146.125C439.461 146.125 438.261 145.842 437.228 145.275C436.194 144.692 435.386 143.9 434.803 142.9C434.219 141.883 433.928 140.725 433.928 139.425C433.928 138.125 434.203 136.975 434.753 135.975C435.319 134.975 436.086 134.192 437.053 133.625C438.036 133.042 439.136 132.75 440.353 132.75C441.586 132.75 442.678 133.033 443.628 133.6C444.594 134.15 445.353 134.933 445.903 135.95C446.453 136.95 446.728 138.108 446.728 139.425C446.728 139.508 446.719 139.6 446.703 139.7C446.703 139.783 446.703 139.875 446.703 139.975H435.278V138.65H445.753L445.053 139.175C445.053 138.225 444.844 137.383 444.428 136.65C444.028 135.9 443.478 135.317 442.778 134.9C442.078 134.483 441.269 134.275 440.353 134.275C439.453 134.275 438.644 134.483 437.928 134.9C437.211 135.317 436.653 135.9 436.253 136.65C435.853 137.4 435.653 138.258 435.653 139.225V139.5C435.653 140.5 435.869 141.383 436.303 142.15C436.753 142.9 437.369 143.492 438.153 143.925C438.953 144.342 439.861 144.55 440.878 144.55C441.678 144.55 442.419 144.408 443.103 144.125C443.803 143.842 444.403 143.408 444.903 142.825L445.903 143.975C445.319 144.675 444.586 145.208 443.703 145.575C442.836 145.942 441.878 146.125 440.828 146.125ZM460.282 146L454.882 139.5L456.357 138.625L462.382 146H460.282ZM450.657 146V132.875H452.432V146H450.657ZM451.882 140.15V138.625H456.107V140.15H451.882ZM456.507 139.625L454.857 139.375L460.082 132.875H462.007L456.507 139.625ZM467.415 146V133.95L467.865 134.425H462.44V132.875H474.165V134.425H468.74L469.19 133.95V146H467.415ZM39.5 171V169.45H46.05V171H39.5ZM65.6139 176.15V165.425H59.2889L59.1389 168.35C59.1055 169.233 59.0472 170.1 58.9639 170.95C58.8972 171.8 58.7722 172.583 58.5889 173.3C58.4222 174 58.1805 174.575 57.8639 175.025C57.5472 175.458 57.1389 175.708 56.6389 175.775L54.8639 175.45C55.3805 175.467 55.8055 175.283 56.1389 174.9C56.4722 174.5 56.7305 173.958 56.9139 173.275C57.0972 172.592 57.2305 171.817 57.3139 170.95C57.3972 170.067 57.4639 169.167 57.5139 168.25L57.6889 163.875H67.3889V176.15H65.6139ZM54.3139 180.175V175.45H69.4389V180.175H67.7639V177H55.9889V180.175H54.3139ZM78.298 177.125C77.0314 177.125 75.8897 176.842 74.873 176.275C73.873 175.692 73.0814 174.9 72.498 173.9C71.9147 172.883 71.623 171.725 71.623 170.425C71.623 169.108 71.9147 167.95 72.498 166.95C73.0814 165.95 73.873 165.167 74.873 164.6C75.873 164.033 77.0147 163.75 78.298 163.75C79.598 163.75 80.748 164.033 81.748 164.6C82.7647 165.167 83.5564 165.95 84.123 166.95C84.7064 167.95 84.998 169.108 84.998 170.425C84.998 171.725 84.7064 172.883 84.123 173.9C83.5564 174.9 82.7647 175.692 81.748 176.275C80.7314 176.842 79.5814 177.125 78.298 177.125ZM78.298 175.55C79.248 175.55 80.0897 175.342 80.823 174.925C81.5564 174.492 82.1314 173.892 82.548 173.125C82.9814 172.342 83.198 171.442 83.198 170.425C83.198 169.392 82.9814 168.492 82.548 167.725C82.1314 166.958 81.5564 166.367 80.823 165.95C80.0897 165.517 79.2564 165.3 78.323 165.3C77.3897 165.3 76.5564 165.517 75.823 165.95C75.0897 166.367 74.5064 166.958 74.073 167.725C73.6397 168.492 73.423 169.392 73.423 170.425C73.423 171.442 73.6397 172.342 74.073 173.125C74.5064 173.892 75.0897 174.492 75.823 174.925C76.5564 175.342 77.3814 175.55 78.298 175.55ZM101.285 177.15C99.7346 177.15 98.4262 176.808 97.3596 176.125C96.2929 175.425 95.4846 174.425 94.9346 173.125C94.3846 171.808 94.1096 170.233 94.1096 168.4C94.1096 166.417 94.4429 164.758 95.1096 163.425C95.7929 162.075 96.7346 161.058 97.9346 160.375C99.1346 159.692 100.526 159.35 102.11 159.35C102.893 159.35 103.643 159.425 104.36 159.575C105.076 159.725 105.71 159.967 106.26 160.3L105.535 161.75C105.085 161.45 104.568 161.242 103.985 161.125C103.401 160.992 102.785 160.925 102.135 160.925C100.251 160.925 98.7429 161.525 97.6096 162.725C96.4929 163.925 95.9346 165.717 95.9346 168.1C95.9346 168.467 95.9512 168.925 95.9846 169.475C96.0346 170.008 96.1346 170.542 96.2846 171.075L95.6596 170.6C95.8429 169.733 96.2012 169 96.7346 168.4C97.2679 167.783 97.9346 167.317 98.7346 167C99.5346 166.683 100.41 166.525 101.36 166.525C102.526 166.525 103.551 166.742 104.435 167.175C105.318 167.608 106.01 168.217 106.51 169C107.01 169.783 107.26 170.708 107.26 171.775C107.26 172.858 107.001 173.808 106.485 174.625C105.968 175.425 105.251 176.05 104.335 176.5C103.435 176.933 102.418 177.15 101.285 177.15ZM101.21 175.625C102.043 175.625 102.776 175.475 103.41 175.175C104.06 174.858 104.568 174.417 104.935 173.85C105.301 173.267 105.485 172.592 105.485 171.825C105.485 170.675 105.085 169.758 104.285 169.075C103.501 168.392 102.435 168.05 101.085 168.05C100.185 168.05 99.4012 168.217 98.7346 168.55C98.0679 168.883 97.5429 169.342 97.1596 169.925C96.7762 170.492 96.5846 171.142 96.5846 171.875C96.5846 172.508 96.7596 173.117 97.1096 173.7C97.4596 174.267 97.9762 174.733 98.6596 175.1C99.3596 175.45 100.21 175.625 101.21 175.625ZM116.319 177.15C114.969 177.15 113.769 176.8 112.719 176.1C111.669 175.383 110.844 174.367 110.244 173.05C109.644 171.717 109.344 170.117 109.344 168.25C109.344 166.383 109.644 164.792 110.244 163.475C110.844 162.142 111.669 161.125 112.719 160.425C113.769 159.708 114.969 159.35 116.319 159.35C117.669 159.35 118.869 159.708 119.919 160.425C120.969 161.125 121.794 162.142 122.394 163.475C123.011 164.792 123.319 166.383 123.319 168.25C123.319 170.117 123.011 171.717 122.394 173.05C121.794 174.367 120.969 175.383 119.919 176.1C118.869 176.8 117.669 177.15 116.319 177.15ZM116.319 175.5C117.352 175.5 118.252 175.225 119.019 174.675C119.786 174.108 120.386 173.292 120.819 172.225C121.252 171.142 121.469 169.817 121.469 168.25C121.469 166.683 121.252 165.367 120.819 164.3C120.386 163.217 119.786 162.4 119.019 161.85C118.252 161.283 117.352 161 116.319 161C115.319 161 114.427 161.283 113.644 161.85C112.861 162.4 112.252 163.217 111.819 164.3C111.386 165.367 111.169 166.683 111.169 168.25C111.169 169.817 111.386 171.142 111.819 172.225C112.252 173.292 112.861 174.108 113.644 174.675C114.427 175.225 115.319 175.5 116.319 175.5ZM128.247 177L140.197 159.5H141.672L129.722 177H128.247ZM129.597 168.875C128.813 168.875 128.122 168.683 127.522 168.3C126.922 167.9 126.455 167.342 126.122 166.625C125.805 165.908 125.647 165.075 125.647 164.125C125.647 163.175 125.805 162.342 126.122 161.625C126.455 160.908 126.922 160.358 127.522 159.975C128.122 159.575 128.813 159.375 129.597 159.375C130.38 159.375 131.063 159.575 131.647 159.975C132.247 160.358 132.713 160.908 133.047 161.625C133.38 162.342 133.547 163.175 133.547 164.125C133.547 165.075 133.38 165.908 133.047 166.625C132.713 167.342 132.247 167.9 131.647 168.3C131.063 168.683 130.38 168.875 129.597 168.875ZM129.597 167.75C130.413 167.75 131.063 167.433 131.547 166.8C132.047 166.15 132.297 165.258 132.297 164.125C132.297 162.992 132.047 162.108 131.547 161.475C131.063 160.825 130.413 160.5 129.597 160.5C128.763 160.5 128.105 160.825 127.622 161.475C127.138 162.108 126.897 162.992 126.897 164.125C126.897 165.258 127.138 166.15 127.622 166.8C128.105 167.433 128.763 167.75 129.597 167.75ZM140.322 177.125C139.555 177.125 138.872 176.933 138.272 176.55C137.672 176.15 137.205 175.592 136.872 174.875C136.538 174.158 136.372 173.325 136.372 172.375C136.372 171.425 136.538 170.592 136.872 169.875C137.205 169.158 137.672 168.608 138.272 168.225C138.872 167.825 139.555 167.625 140.322 167.625C141.122 167.625 141.813 167.825 142.397 168.225C142.997 168.608 143.455 169.158 143.772 169.875C144.105 170.592 144.272 171.425 144.272 172.375C144.272 173.325 144.105 174.158 143.772 174.875C143.455 175.592 142.997 176.15 142.397 176.55C141.813 176.933 141.122 177.125 140.322 177.125ZM140.322 176C141.138 176 141.788 175.683 142.272 175.05C142.772 174.4 143.022 173.508 143.022 172.375C143.022 171.242 142.772 170.358 142.272 169.725C141.788 169.075 141.138 168.75 140.322 168.75C139.505 168.75 138.847 169.075 138.347 169.725C137.863 170.358 137.622 171.242 137.622 172.375C137.622 173.508 137.863 174.4 138.347 175.05C138.847 175.683 139.505 176 140.322 176ZM159.792 177.125C158.526 177.125 157.384 176.842 156.367 176.275C155.367 175.692 154.576 174.9 153.992 173.9C153.409 172.883 153.117 171.725 153.117 170.425C153.117 169.108 153.409 167.95 153.992 166.95C154.576 165.95 155.367 165.167 156.367 164.6C157.367 164.033 158.509 163.75 159.792 163.75C161.092 163.75 162.242 164.033 163.242 164.6C164.259 165.167 165.051 165.95 165.617 166.95C166.201 167.95 166.492 169.108 166.492 170.425C166.492 171.725 166.201 172.883 165.617 173.9C165.051 174.9 164.259 175.692 163.242 176.275C162.226 176.842 161.076 177.125 159.792 177.125ZM159.792 175.55C160.742 175.55 161.584 175.342 162.317 174.925C163.051 174.492 163.626 173.892 164.042 173.125C164.476 172.342 164.692 171.442 164.692 170.425C164.692 169.392 164.476 168.492 164.042 167.725C163.626 166.958 163.051 166.367 162.317 165.95C161.584 165.517 160.751 165.3 159.817 165.3C158.884 165.3 158.051 165.517 157.317 165.95C156.584 166.367 156.001 166.958 155.567 167.725C155.134 168.492 154.917 169.392 154.917 170.425C154.917 171.442 155.134 172.342 155.567 173.125C156.001 173.892 156.584 174.492 157.317 174.925C158.051 175.342 158.876 175.55 159.792 175.55ZM172.297 177V164.95L172.747 165.425H167.322V163.875H179.047V165.425H173.622L174.072 164.95V177H172.297ZM193.657 177.125C192.357 177.125 191.19 176.842 190.157 176.275C189.14 175.692 188.34 174.9 187.757 173.9C187.174 172.883 186.882 171.725 186.882 170.425C186.882 169.108 187.174 167.95 187.757 166.95C188.34 165.95 189.14 165.167 190.157 164.6C191.19 164.033 192.357 163.75 193.657 163.75C194.774 163.75 195.782 163.967 196.682 164.4C197.582 164.833 198.29 165.483 198.807 166.35L197.482 167.25C197.032 166.583 196.474 166.092 195.807 165.775C195.14 165.458 194.415 165.3 193.632 165.3C192.699 165.3 191.857 165.517 191.107 165.95C190.357 166.367 189.765 166.958 189.332 167.725C188.899 168.492 188.682 169.392 188.682 170.425C188.682 171.458 188.899 172.358 189.332 173.125C189.765 173.892 190.357 174.492 191.107 174.925C191.857 175.342 192.699 175.55 193.632 175.55C194.415 175.55 195.14 175.392 195.807 175.075C196.474 174.758 197.032 174.275 197.482 173.625L198.807 174.525C198.29 175.375 197.582 176.025 196.682 176.475C195.782 176.908 194.774 177.125 193.657 177.125ZM204.5 177V164.95L204.95 165.425H199.525V163.875H211.25V165.425H205.825L206.275 164.95V177H204.5ZM218.606 177.125C217.339 177.125 216.197 176.842 215.181 176.275C214.181 175.692 213.389 174.9 212.806 173.9C212.222 172.883 211.931 171.725 211.931 170.425C211.931 169.108 212.222 167.95 212.806 166.95C213.389 165.95 214.181 165.167 215.181 164.6C216.181 164.033 217.322 163.75 218.606 163.75C219.906 163.75 221.056 164.033 222.056 164.6C223.072 165.167 223.864 165.95 224.431 166.95C225.014 167.95 225.306 169.108 225.306 170.425C225.306 171.725 225.014 172.883 224.431 173.9C223.864 174.9 223.072 175.692 222.056 176.275C221.039 176.842 219.889 177.125 218.606 177.125ZM218.606 175.55C219.556 175.55 220.397 175.342 221.131 174.925C221.864 174.492 222.439 173.892 222.856 173.125C223.289 172.342 223.506 171.442 223.506 170.425C223.506 169.392 223.289 168.492 222.856 167.725C222.439 166.958 221.864 166.367 221.131 165.95C220.397 165.517 219.564 165.3 218.631 165.3C217.697 165.3 216.864 165.517 216.131 165.95C215.397 166.367 214.814 166.958 214.381 167.725C213.947 168.492 213.731 169.392 213.731 170.425C213.731 171.442 213.947 172.342 214.381 173.125C214.814 173.892 215.397 174.492 216.131 174.925C216.864 175.342 217.689 175.55 218.606 175.55ZM229.099 177V163.875H230.874V174.3L239.649 163.875H241.224V177H239.449V166.55L230.699 177H229.099ZM246.311 177V163.875H248.111L254.061 173.95H253.311L259.361 163.875H261.011V177H259.386V165.9L259.711 166.05L254.061 175.4H253.261L247.561 165.95L247.936 165.875V177H246.311ZM271.462 177.125C270.195 177.125 269.054 176.842 268.037 176.275C267.037 175.692 266.245 174.9 265.662 173.9C265.079 172.883 264.787 171.725 264.787 170.425C264.787 169.108 265.079 167.95 265.662 166.95C266.245 165.95 267.037 165.167 268.037 164.6C269.037 164.033 270.179 163.75 271.462 163.75C272.762 163.75 273.912 164.033 274.912 164.6C275.929 165.167 276.72 165.95 277.287 166.95C277.87 167.95 278.162 169.108 278.162 170.425C278.162 171.725 277.87 172.883 277.287 173.9C276.72 174.9 275.929 175.692 274.912 176.275C273.895 176.842 272.745 177.125 271.462 177.125ZM271.462 175.55C272.412 175.55 273.254 175.342 273.987 174.925C274.72 174.492 275.295 173.892 275.712 173.125C276.145 172.342 276.362 171.442 276.362 170.425C276.362 169.392 276.145 168.492 275.712 167.725C275.295 166.958 274.72 166.367 273.987 165.95C273.254 165.517 272.42 165.3 271.487 165.3C270.554 165.3 269.72 165.517 268.987 165.95C268.254 166.367 267.67 166.958 267.237 167.725C266.804 168.492 266.587 169.392 266.587 170.425C266.587 171.442 266.804 172.342 267.237 173.125C267.67 173.892 268.254 174.492 268.987 174.925C269.72 175.342 270.545 175.55 271.462 175.55ZM287.456 177.125C286.156 177.125 284.989 176.842 283.956 176.275C282.939 175.692 282.139 174.9 281.556 173.9C280.972 172.883 280.681 171.725 280.681 170.425C280.681 169.108 280.972 167.95 281.556 166.95C282.139 165.95 282.939 165.167 283.956 164.6C284.989 164.033 286.156 163.75 287.456 163.75C288.572 163.75 289.581 163.967 290.481 164.4C291.381 164.833 292.089 165.483 292.606 166.35L291.281 167.25C290.831 166.583 290.272 166.092 289.606 165.775C288.939 165.458 288.214 165.3 287.431 165.3C286.497 165.3 285.656 165.517 284.906 165.95C284.156 166.367 283.564 166.958 283.131 167.725C282.697 168.492 282.481 169.392 282.481 170.425C282.481 171.458 282.697 172.358 283.131 173.125C283.564 173.892 284.156 174.492 284.906 174.925C285.656 175.342 286.497 175.55 287.431 175.55C288.214 175.55 288.939 175.392 289.606 175.075C290.272 174.758 290.831 174.275 291.281 173.625L292.606 174.525C292.089 175.375 291.381 176.025 290.481 176.475C289.581 176.908 288.572 177.125 287.456 177.125ZM298.298 177V164.95L298.748 165.425H293.323V163.875H305.048V165.425H299.623L300.073 164.95V177H298.298ZM307.615 177V163.875H309.39V174.3L318.165 163.875H319.74V177H317.965V166.55L309.215 177H307.615ZM331.37 177V163.875H337.17C338.653 163.875 339.82 164.158 340.67 164.725C341.536 165.292 341.97 166.125 341.97 167.225C341.97 168.292 341.561 169.117 340.745 169.7C339.928 170.267 338.853 170.55 337.52 170.55L337.87 170.025C339.436 170.025 340.586 170.317 341.32 170.9C342.053 171.483 342.42 172.325 342.42 173.425C342.42 174.558 342.003 175.442 341.17 176.075C340.353 176.692 339.078 177 337.345 177H331.37ZM333.095 175.6H337.27C338.386 175.6 339.228 175.425 339.795 175.075C340.378 174.708 340.67 174.125 340.67 173.325C340.67 172.525 340.411 171.942 339.895 171.575C339.378 171.208 338.561 171.025 337.445 171.025H333.095V175.6ZM333.095 169.7H337.045C338.061 169.7 338.836 169.508 339.37 169.125C339.92 168.742 340.195 168.183 340.195 167.45C340.195 166.717 339.92 166.167 339.37 165.8C338.836 165.433 338.061 165.25 337.045 165.25H333.095V169.7ZM352.08 177.125C350.78 177.125 349.613 176.842 348.58 176.275C347.563 175.692 346.763 174.9 346.18 173.9C345.596 172.883 345.305 171.725 345.305 170.425C345.305 169.108 345.596 167.95 346.18 166.95C346.763 165.95 347.563 165.167 348.58 164.6C349.613 164.033 350.78 163.75 352.08 163.75C353.196 163.75 354.205 163.967 355.105 164.4C356.005 164.833 356.713 165.483 357.23 166.35L355.905 167.25C355.455 166.583 354.896 166.092 354.23 165.775C353.563 165.458 352.838 165.3 352.055 165.3C351.121 165.3 350.28 165.517 349.53 165.95C348.78 166.367 348.188 166.958 347.755 167.725C347.321 168.492 347.105 169.392 347.105 170.425C347.105 171.458 347.321 172.358 347.755 173.125C348.188 173.892 348.78 174.492 349.53 174.925C350.28 175.342 351.121 175.55 352.055 175.55C352.838 175.55 353.563 175.392 354.23 175.075C354.896 174.758 355.455 174.275 355.905 173.625L357.23 174.525C356.713 175.375 356.005 176.025 355.105 176.475C354.205 176.908 353.196 177.125 352.08 177.125ZM366.072 177.125C364.705 177.125 363.505 176.842 362.472 176.275C361.439 175.692 360.63 174.9 360.047 173.9C359.464 172.883 359.172 171.725 359.172 170.425C359.172 169.125 359.447 167.975 359.997 166.975C360.564 165.975 361.33 165.192 362.297 164.625C363.28 164.042 364.38 163.75 365.597 163.75C366.83 163.75 367.922 164.033 368.872 164.6C369.839 165.15 370.597 165.933 371.147 166.95C371.697 167.95 371.972 169.108 371.972 170.425C371.972 170.508 371.964 170.6 371.947 170.7C371.947 170.783 371.947 170.875 371.947 170.975H360.522V169.65H370.997L370.297 170.175C370.297 169.225 370.089 168.383 369.672 167.65C369.272 166.9 368.722 166.317 368.022 165.9C367.322 165.483 366.514 165.275 365.597 165.275C364.697 165.275 363.889 165.483 363.172 165.9C362.455 166.317 361.897 166.9 361.497 167.65C361.097 168.4 360.897 169.258 360.897 170.225V170.5C360.897 171.5 361.114 172.383 361.547 173.15C361.997 173.9 362.614 174.492 363.397 174.925C364.197 175.342 365.105 175.55 366.122 175.55C366.922 175.55 367.664 175.408 368.347 175.125C369.047 174.842 369.647 174.408 370.147 173.825L371.147 174.975C370.564 175.675 369.83 176.208 368.947 176.575C368.08 176.942 367.122 177.125 366.072 177.125ZM375.901 177V163.875H385.201V165.425H377.226L377.676 164.975V177H375.901ZM392.556 177.125C391.289 177.125 390.148 176.842 389.131 176.275C388.131 175.692 387.339 174.9 386.756 173.9C386.173 172.883 385.881 171.725 385.881 170.425C385.881 169.108 386.173 167.95 386.756 166.95C387.339 165.95 388.131 165.167 389.131 164.6C390.131 164.033 391.273 163.75 392.556 163.75C393.856 163.75 395.006 164.033 396.006 164.6C397.023 165.167 397.814 165.95 398.381 166.95C398.964 167.95 399.256 169.108 399.256 170.425C399.256 171.725 398.964 172.883 398.381 173.9C397.814 174.9 397.023 175.692 396.006 176.275C394.989 176.842 393.839 177.125 392.556 177.125ZM392.556 175.55C393.506 175.55 394.348 175.342 395.081 174.925C395.814 174.492 396.389 173.892 396.806 173.125C397.239 172.342 397.456 171.442 397.456 170.425C397.456 169.392 397.239 168.492 396.806 167.725C396.389 166.958 395.814 166.367 395.081 165.95C394.348 165.517 393.514 165.3 392.581 165.3C391.648 165.3 390.814 165.517 390.081 165.95C389.348 166.367 388.764 166.958 388.331 167.725C387.898 168.492 387.681 169.392 387.681 170.425C387.681 171.442 387.898 172.342 388.331 173.125C388.764 173.892 389.348 174.492 390.081 174.925C390.814 175.342 391.639 175.55 392.556 175.55ZM40.525 208V194.875H52.325V208H50.55V195.95L51 196.425H41.85L42.3 195.95V208H40.525ZM64.1457 208.125C63.0124 208.125 61.9874 207.867 61.0707 207.35C60.154 206.817 59.4207 206.058 58.8707 205.075C58.3374 204.075 58.0707 202.858 58.0707 201.425C58.0707 199.992 58.3374 198.783 58.8707 197.8C59.404 196.8 60.129 196.042 61.0457 195.525C61.9624 195.008 62.9957 194.75 64.1457 194.75C65.3957 194.75 66.5124 195.033 67.4957 195.6C68.4957 196.15 69.279 196.933 69.8457 197.95C70.4124 198.95 70.6957 200.108 70.6957 201.425C70.6957 202.758 70.4124 203.925 69.8457 204.925C69.279 205.925 68.4957 206.708 67.4957 207.275C66.5124 207.842 65.3957 208.125 64.1457 208.125ZM57.3707 212.85V194.875H59.0707V198.825L58.8957 201.45L59.1457 204.1V212.85H57.3707ZM64.0207 206.55C64.954 206.55 65.7874 206.342 66.5207 205.925C67.254 205.492 67.8374 204.892 68.2707 204.125C68.704 203.342 68.9207 202.442 68.9207 201.425C68.9207 200.408 68.704 199.517 68.2707 198.75C67.8374 197.983 67.254 197.383 66.5207 196.95C65.7874 196.517 64.954 196.3 64.0207 196.3C63.0874 196.3 62.2457 196.517 61.4957 196.95C60.7624 197.383 60.179 197.983 59.7457 198.75C59.329 199.517 59.1207 200.408 59.1207 201.425C59.1207 202.442 59.329 203.342 59.7457 204.125C60.179 204.892 60.7624 205.492 61.4957 205.925C62.2457 206.342 63.0874 206.55 64.0207 206.55ZM79.9094 208.125C78.6427 208.125 77.501 207.842 76.4844 207.275C75.4844 206.692 74.6927 205.9 74.1094 204.9C73.526 203.883 73.2344 202.725 73.2344 201.425C73.2344 200.108 73.526 198.95 74.1094 197.95C74.6927 196.95 75.4844 196.167 76.4844 195.6C77.4844 195.033 78.626 194.75 79.9094 194.75C81.2094 194.75 82.3594 195.033 83.3594 195.6C84.376 196.167 85.1677 196.95 85.7344 197.95C86.3177 198.95 86.6094 200.108 86.6094 201.425C86.6094 202.725 86.3177 203.883 85.7344 204.9C85.1677 205.9 84.376 206.692 83.3594 207.275C82.3427 207.842 81.1927 208.125 79.9094 208.125ZM79.9094 206.55C80.8594 206.55 81.701 206.342 82.4344 205.925C83.1677 205.492 83.7427 204.892 84.1594 204.125C84.5927 203.342 84.8094 202.442 84.8094 201.425C84.8094 200.392 84.5927 199.492 84.1594 198.725C83.7427 197.958 83.1677 197.367 82.4344 196.95C81.701 196.517 80.8677 196.3 79.9344 196.3C79.001 196.3 78.1677 196.517 77.4344 196.95C76.701 197.367 76.1177 197.958 75.6844 198.725C75.251 199.492 75.0344 200.392 75.0344 201.425C75.0344 202.442 75.251 203.342 75.6844 204.125C76.1177 204.892 76.701 205.492 77.4344 205.925C78.1677 206.342 78.9927 206.55 79.9094 206.55ZM96.0279 208.125C94.6613 208.125 93.4613 207.842 92.4279 207.275C91.3946 206.692 90.5863 205.9 90.0029 204.9C89.4196 203.883 89.1279 202.725 89.1279 201.425C89.1279 200.125 89.4029 198.975 89.9529 197.975C90.5196 196.975 91.2863 196.192 92.2529 195.625C93.2363 195.042 94.3363 194.75 95.5529 194.75C96.7863 194.75 97.8779 195.033 98.8279 195.6C99.7946 196.15 100.553 196.933 101.103 197.95C101.653 198.95 101.928 200.108 101.928 201.425C101.928 201.508 101.92 201.6 101.903 201.7C101.903 201.783 101.903 201.875 101.903 201.975H90.4779V200.65H100.953L100.253 201.175C100.253 200.225 100.045 199.383 99.6279 198.65C99.2279 197.9 98.6779 197.317 97.9779 196.9C97.2779 196.483 96.4696 196.275 95.5529 196.275C94.6529 196.275 93.8446 196.483 93.1279 196.9C92.4113 197.317 91.8529 197.9 91.4529 198.65C91.0529 199.4 90.8529 200.258 90.8529 201.225V201.5C90.8529 202.5 91.0696 203.383 91.5029 204.15C91.9529 204.9 92.5696 205.492 93.3529 205.925C94.1529 206.342 95.0613 206.55 96.0779 206.55C96.8779 206.55 97.6196 206.408 98.3029 206.125C99.0029 205.842 99.6029 205.408 100.103 204.825L101.103 205.975C100.52 206.675 99.7863 207.208 98.9029 207.575C98.0363 207.942 97.0779 208.125 96.0279 208.125ZM115.482 208L110.082 201.5L111.557 200.625L117.582 208H115.482ZM105.857 208V194.875H107.632V208H105.857ZM107.082 202.15V200.625H111.307V202.15H107.082ZM111.707 201.625L110.057 201.375L115.282 194.875H117.207L111.707 201.625ZM122.615 208V195.95L123.065 196.425H117.64V194.875H129.365V196.425H123.94L124.39 195.95V208H122.615ZM140.081 208V205.1L140.006 204.625V199.775C140.006 198.658 139.69 197.8 139.056 197.2C138.44 196.6 137.515 196.3 136.281 196.3C135.431 196.3 134.623 196.442 133.856 196.725C133.09 197.008 132.44 197.383 131.906 197.85L131.106 196.525C131.773 195.958 132.573 195.525 133.506 195.225C134.44 194.908 135.423 194.75 136.456 194.75C138.156 194.75 139.465 195.175 140.381 196.025C141.315 196.858 141.781 198.133 141.781 199.85V208H140.081ZM135.556 208.125C134.573 208.125 133.715 207.967 132.981 207.65C132.265 207.317 131.715 206.867 131.331 206.3C130.948 205.717 130.756 205.05 130.756 204.3C130.756 203.617 130.915 203 131.231 202.45C131.565 201.883 132.098 201.433 132.831 201.1C133.581 200.75 134.581 200.575 135.831 200.575H140.356V201.9H135.881C134.615 201.9 133.731 202.125 133.231 202.575C132.748 203.025 132.506 203.583 132.506 204.25C132.506 205 132.798 205.6 133.381 206.05C133.965 206.5 134.781 206.725 135.831 206.725C136.831 206.725 137.69 206.5 138.406 206.05C139.14 205.583 139.673 204.917 140.006 204.05L140.406 205.275C140.073 206.142 139.49 206.833 138.656 207.35C137.84 207.867 136.806 208.125 135.556 208.125ZM146.631 208.125C146.265 208.125 145.948 207.992 145.681 207.725C145.431 207.458 145.306 207.133 145.306 206.75C145.306 206.35 145.431 206.025 145.681 205.775C145.948 205.525 146.265 205.4 146.631 205.4C146.998 205.4 147.306 205.525 147.556 205.775C147.823 206.025 147.956 206.35 147.956 206.75C147.956 207.133 147.823 207.458 147.556 207.725C147.306 207.992 146.998 208.125 146.631 208.125Z" fill="black"/>
<defs>
<filter id="filter0_b_1_129" x="-110" y="-110" width="786.129" height="490" filterUnits="userSpaceOnUse" color-interpolation-filters="sRGB">
<feFlood flood-opacity="0" result="BackgroundImageFix"/>
<feGaussianBlur in="BackgroundImageFix" stdDeviation="55"/>
<feComposite in2="SourceAlpha" operator="in" result="effect1_backgroundBlur_1_129"/>
<feBlend mode="normal" in="SourceGraphic" in2="effect1_backgroundBlur_1_129" result="shape"/>
</filter>
<linearGradient id="paint0_linear_1_129" x1="51.4717" y1="47.5981" x2="108.337" y2="47.5981" gradientUnits="userSpaceOnUse">
<stop stop-color="#005F87"/>
<stop offset="1" stop-color="#029BDB" stop-opacity="0.31"/>
</linearGradient>
</defs>
</svg>
