<svg width="35" height="35" viewBox="0 0 35 35" fill="none" xmlns="http://www.w3.org/2000/svg">
<circle cx="17.5" cy="17.5" r="17.5" fill="white"/>
<path d="M10.4381 26.2812L21.9101 9.48125H24.7661L13.2941 26.2812H10.4381ZM11.9021 18.5532C11.0861 18.5532 10.3661 18.3692 9.74213 18.0012C9.11813 17.6172 8.62213 17.0812 8.25413 16.3932C7.90213 15.6892 7.72613 14.8652 7.72613 13.9212C7.72613 12.9772 7.90213 12.1612 8.25413 11.4732C8.62213 10.7852 9.11813 10.2492 9.74213 9.86525C10.3661 9.48125 11.0861 9.28925 11.9021 9.28925C12.7181 9.28925 13.4381 9.48125 14.0621 9.86525C14.6861 10.2492 15.1741 10.7852 15.5261 11.4732C15.8781 12.1612 16.0541 12.9772 16.0541 13.9212C16.0541 14.8652 15.8781 15.6892 15.5261 16.3932C15.1741 17.0812 14.6861 17.6172 14.0621 18.0012C13.4381 18.3692 12.7181 18.5532 11.9021 18.5532ZM11.9021 16.5852C12.4301 16.5852 12.8541 16.3692 13.1741 15.9372C13.4941 15.4892 13.6541 14.8172 13.6541 13.9212C13.6541 13.0252 13.4941 12.3612 13.1741 11.9292C12.8541 11.4812 12.4301 11.2572 11.9021 11.2572C11.3901 11.2572 10.9661 11.4812 10.6301 11.9292C10.3101 12.3612 10.1501 13.0252 10.1501 13.9212C10.1501 14.8012 10.3101 15.4652 10.6301 15.9132C10.9661 16.3612 11.3901 16.5852 11.9021 16.5852ZM23.3021 26.4733C22.5021 26.4733 21.7821 26.2893 21.1421 25.9212C20.5181 25.5372 20.0301 25.0012 19.6781 24.3132C19.3261 23.6092 19.1501 22.7852 19.1501 21.8412C19.1501 20.8972 19.3261 20.0812 19.6781 19.3932C20.0301 18.7052 20.5181 18.1692 21.1421 17.7852C21.7821 17.4012 22.5021 17.2092 23.3021 17.2092C24.1341 17.2092 24.8621 17.4012 25.4861 17.7852C26.1101 18.1692 26.5981 18.7052 26.9501 19.3932C27.3021 20.0812 27.4781 20.8972 27.4781 21.8412C27.4781 22.7852 27.3021 23.6092 26.9501 24.3132C26.5981 25.0012 26.1101 25.5372 25.4861 25.9212C24.8621 26.2893 24.1341 26.4733 23.3021 26.4733ZM23.3021 24.5052C23.8301 24.5052 24.2541 24.2892 24.5741 23.8572C24.8941 23.4092 25.0541 22.7372 25.0541 21.8412C25.0541 20.9612 24.8941 20.2972 24.5741 19.8492C24.2541 19.4012 23.8301 19.1772 23.3021 19.1772C22.7901 19.1772 22.3661 19.4012 22.0301 19.8492C21.7101 20.2812 21.5501 20.9452 21.5501 21.8412C21.5501 22.7372 21.7101 23.4092 22.0301 23.8572C22.3661 24.2892 22.7901 24.5052 23.3021 24.5052Z" fill="#0678A8"/>
</svg>
