<svg width="35" height="35" viewBox="0 0 35 35" fill="none" xmlns="http://www.w3.org/2000/svg">
<circle cx="17.5" cy="17.5" r="17.5" fill="white"/>
<path d="M17.3274 19.2451C17.056 19.2451 16.8286 19.1531 16.6453 18.9692C16.4614 18.7859 16.3695 18.5586 16.3695 18.2872C16.3695 18.0158 16.4614 17.7881 16.6453 17.6042C16.8286 17.4209 17.056 17.3292 17.3274 17.3292C17.5988 17.3292 17.8265 17.4209 18.0104 17.6042C18.1937 17.7881 18.2853 18.0158 18.2853 18.2872C18.2853 18.5586 18.1937 18.7859 18.0104 18.9692C17.8265 19.1531 17.5988 19.2451 17.3274 19.2451ZM13.4957 19.2451C13.2243 19.2451 12.9966 19.1531 12.8127 18.9692C12.6294 18.7859 12.5378 18.5586 12.5378 18.2872C12.5378 18.0158 12.6294 17.7881 12.8127 17.6042C12.9966 17.4209 13.2243 17.3292 13.4957 17.3292C13.7671 17.3292 13.9948 17.4209 14.1787 17.6042C14.362 17.7881 14.4536 18.0158 14.4536 18.2872C14.4536 18.5586 14.362 18.7859 14.1787 18.9692C13.9948 19.1531 13.7671 19.2451 13.4957 19.2451ZM21.1591 19.2451C20.8877 19.2451 20.6603 19.1531 20.477 18.9692C20.2931 18.7859 20.2012 18.5586 20.2012 18.2872C20.2012 18.0158 20.2931 17.7881 20.477 17.6042C20.6603 17.4209 20.8877 17.3292 21.1591 17.3292C21.4305 17.3292 21.6578 17.4209 21.8411 17.6042C22.025 17.7881 22.117 18.0158 22.117 18.2872C22.117 18.5586 22.025 18.7859 21.8411 18.9692C21.6578 19.1531 21.4305 19.2451 21.1591 19.2451ZM17.3274 23.0768C17.056 23.0768 16.8286 22.9848 16.6453 22.8009C16.4614 22.6176 16.3695 22.3903 16.3695 22.1189C16.3695 21.8475 16.4614 21.6201 16.6453 21.4368C16.8286 21.2529 17.056 21.1609 17.3274 21.1609C17.5988 21.1609 17.8265 21.2529 18.0104 21.4368C18.1937 21.6201 18.2853 21.8475 18.2853 22.1189C18.2853 22.3903 18.1937 22.6176 18.0104 22.8009C17.8265 22.9848 17.5988 23.0768 17.3274 23.0768ZM13.4957 23.0768C13.2243 23.0768 12.9966 22.9848 12.8127 22.8009C12.6294 22.6176 12.5378 22.3903 12.5378 22.1189C12.5378 21.8475 12.6294 21.6201 12.8127 21.4368C12.9966 21.2529 13.2243 21.1609 13.4957 21.1609C13.7671 21.1609 13.9948 21.2529 14.1787 21.4368C14.362 21.6201 14.4536 21.8475 14.4536 22.1189C14.4536 22.3903 14.362 22.6176 14.1787 22.8009C13.9948 22.9848 13.7671 23.0768 13.4957 23.0768ZM21.1591 23.0768C20.8877 23.0768 20.6603 22.9848 20.477 22.8009C20.2931 22.6176 20.2012 22.3903 20.2012 22.1189C20.2012 21.8475 20.2931 21.6201 20.477 21.4368C20.6603 21.2529 20.8877 21.1609 21.1591 21.1609C21.4305 21.1609 21.6578 21.2529 21.8411 21.4368C22.025 21.6201 22.117 21.8475 22.117 22.1189C22.117 22.3903 22.025 22.6176 21.8411 22.8009C21.6578 22.9848 21.4305 23.0768 21.1591 23.0768ZM10.6219 26.9085C10.095 26.9085 9.64386 26.7211 9.26836 26.3462C8.89349 25.9707 8.70605 25.5195 8.70605 24.9926V11.5817C8.70605 11.0548 8.89349 10.604 9.26836 10.2291C9.64386 9.8536 10.095 9.66585 10.6219 9.66585H11.5798V7.75H13.4957V9.66585H21.1591V7.75H23.0749V9.66585H24.0329C24.5597 9.66585 25.0109 9.8536 25.3864 10.2291C25.7613 10.604 25.9487 11.0548 25.9487 11.5817V24.9926C25.9487 25.5195 25.7613 25.9707 25.3864 26.3462C25.0109 26.7211 24.5597 26.9085 24.0329 26.9085H10.6219ZM10.6219 24.9926H24.0329V15.4134H10.6219V24.9926Z" fill="#0678A8"/>
</svg>
