<svg width="567" height="270" viewBox="0 0 567 270" fill="none" xmlns="http://www.w3.org/2000/svg">
<rect x="0.871094" width="566.129" height="270" rx="5" fill="white"/>
<rect width="49" height="49" transform="translate(39 20)" fill="white"/>
<path d="M71.58 21.225C60.3454 21.225 53.5331 33.7044 59.5875 43.1362C59.1069 43.1362 44.3313 43.1362 43.4067 43.1362C41.6521 43.1362 40.2246 44.5637 40.2246 46.3184V64.5928C40.2246 66.3475 41.6521 67.775 43.4067 67.775H61.6812C63.4359 67.775 64.8634 66.3475 64.8634 64.5928V48.0184C66.8655 49.094 69.1526 49.705 71.58 49.705C79.4318 49.705 85.82 43.317 85.82 35.465C85.82 27.6131 79.4318 21.225 71.58 21.225ZM50.0147 45.8638H55.0734V49.9134L53.7302 49.0903C52.9989 48.6434 52.0897 48.6434 51.3561 49.0914L50.0148 49.9134L50.0147 45.8638ZM62.1358 64.5928C62.1358 64.8436 61.9319 65.0474 61.6812 65.0474H43.4067C43.1561 65.0474 42.9521 64.8436 42.9521 64.5928V46.3184C42.9521 46.0677 43.1561 45.8638 43.4067 45.8638H47.2872V50.726C47.2872 51.9746 48.2998 52.9984 49.5597 52.9984C50.3669 52.9984 50.634 52.7328 52.5439 51.5623L54.3397 52.6628C55.8507 53.5907 57.8009 52.5007 57.8009 50.726V45.8638H61.6812C61.9319 45.8638 62.1358 46.0677 62.1358 46.3184V64.5928ZM71.58 46.9775C65.232 46.9775 60.0674 41.8129 60.0674 35.465C60.0674 29.117 65.232 23.9525 71.58 23.9525C77.9279 23.9525 83.0924 29.117 83.0924 35.465C83.0924 41.8129 77.9279 46.9775 71.58 46.9775Z" fill="url(#paint0_linear_1_134)"/>
<path d="M55.7565 57.66H49.3316C48.5784 57.66 47.9678 58.2706 47.9678 59.0238C47.9678 59.777 48.5784 60.3875 49.3316 60.3875H55.7565C56.5096 60.3875 57.1203 59.777 57.1203 59.0238C57.1203 58.2706 56.5096 57.66 55.7565 57.66Z" fill="#00A3E0"/>
<path d="M71.5803 27.4681C70.8271 27.4681 70.2165 28.0787 70.2165 28.8318V34.8736L67.6974 37.231C67.1475 37.7456 67.1189 38.6086 67.6334 39.1586C68.1482 39.7087 69.0113 39.737 69.5611 39.2225L72.5121 36.4608C72.7876 36.2031 72.9441 35.8426 72.9441 35.4651V28.8318C72.9441 28.0786 72.3334 27.4681 71.5803 27.4681Z" fill="#00A3E0"/>
<path d="M98.0139 56.63C99.3672 57.0267 100.499 57.1433 101.409 56.98C102.342 56.7933 103.171 56.14 103.894 55.02L105.084 53.235L105.609 52.64L113.729 36.75H119.294L108.864 56.14C107.931 57.89 106.822 59.2317 105.539 60.165C104.279 61.0983 102.891 61.6233 101.374 61.74C99.8572 61.88 98.2822 61.6117 96.6489 60.935L98.0139 56.63ZM105.504 57.365L94.4439 36.75H100.499L108.619 53.2L105.504 57.365ZM133.493 58.8V46.9H127.333L127.228 49.315C127.181 50.3183 127.123 51.275 127.053 52.185C126.983 53.095 126.843 53.9233 126.633 54.67C126.446 55.3933 126.166 56.0117 125.793 56.525C125.42 57.015 124.918 57.3533 124.288 57.54L118.898 56.77C119.575 56.77 120.123 56.5717 120.543 56.175C120.963 55.755 121.29 55.1833 121.523 54.46C121.756 53.7133 121.931 52.8733 122.048 51.94C122.165 50.9833 122.246 49.98 122.293 48.93L122.538 42.42H138.953V58.8H133.493ZM118.268 65.31V56.77H141.648V65.31H136.573V61.25H123.343V65.31H118.268ZM153.904 61.53C151.897 61.53 150.112 61.11 148.549 60.27C147.009 59.43 145.784 58.2867 144.874 56.84C143.987 55.37 143.544 53.7017 143.544 51.835C143.544 49.945 143.987 48.2767 144.874 46.83C145.784 45.36 147.009 44.2167 148.549 43.4C150.112 42.56 151.897 42.14 153.904 42.14C155.887 42.14 157.661 42.56 159.224 43.4C160.787 44.2167 162.012 45.3483 162.899 46.795C163.786 48.2417 164.229 49.9217 164.229 51.835C164.229 53.7017 163.786 55.37 162.899 56.84C162.012 58.2867 160.787 59.43 159.224 60.27C157.661 61.11 155.887 61.53 153.904 61.53ZM153.904 57.05C154.814 57.05 155.631 56.84 156.354 56.42C157.077 56 157.649 55.405 158.069 54.635C158.489 53.8417 158.699 52.9083 158.699 51.835C158.699 50.7383 158.489 49.805 158.069 49.035C157.649 48.265 157.077 47.67 156.354 47.25C155.631 46.83 154.814 46.62 153.904 46.62C152.994 46.62 152.177 46.83 151.454 47.25C150.731 47.67 150.147 48.265 149.704 49.035C149.284 49.805 149.074 50.7383 149.074 51.835C149.074 52.9083 149.284 53.8417 149.704 54.635C150.147 55.405 150.731 56 151.454 56.42C152.177 56.84 152.994 57.05 153.904 57.05ZM177.329 61.67C175.789 61.67 174.389 61.4483 173.129 61.005C171.869 60.5383 170.773 59.8267 169.839 58.87C168.929 57.89 168.218 56.6417 167.704 55.125C167.214 53.6083 166.969 51.8 166.969 49.7C166.969 48.2067 167.098 46.8417 167.354 45.605C167.611 44.3683 167.996 43.2483 168.509 42.245C169.023 41.2183 169.676 40.32 170.469 39.55C171.286 38.7567 172.231 38.1033 173.304 37.59C174.401 37.0533 175.638 36.645 177.014 36.365L185.974 34.58L186.709 39.27L178.799 40.845C178.333 40.9383 177.796 41.0667 177.189 41.23C176.606 41.37 176.011 41.5917 175.404 41.895C174.821 42.1983 174.273 42.63 173.759 43.19C173.269 43.7267 172.873 44.4383 172.569 45.325C172.266 46.1883 172.114 47.2617 172.114 48.545C172.114 48.9417 172.126 49.245 172.149 49.455C172.196 49.665 172.231 49.8867 172.254 50.12C172.301 50.3533 172.324 50.715 172.324 51.205L170.574 49.49C171.088 48.3933 171.741 47.46 172.534 46.69C173.351 45.92 174.284 45.3367 175.334 44.94C176.408 44.52 177.598 44.31 178.904 44.31C180.678 44.31 182.229 44.6717 183.559 45.395C184.913 46.095 185.963 47.0867 186.709 48.37C187.456 49.6533 187.829 51.1117 187.829 52.745C187.829 54.5183 187.386 56.0817 186.499 57.435C185.613 58.765 184.376 59.8033 182.789 60.55C181.226 61.2967 179.406 61.67 177.329 61.67ZM177.609 57.435C178.519 57.435 179.324 57.2367 180.024 56.84C180.724 56.42 181.261 55.8717 181.634 55.195C182.031 54.495 182.229 53.7133 182.229 52.85C182.229 52.01 182.031 51.2633 181.634 50.61C181.261 49.9567 180.724 49.4433 180.024 49.07C179.324 48.6967 178.508 48.51 177.574 48.51C176.664 48.51 175.848 48.6967 175.124 49.07C174.401 49.42 173.841 49.91 173.444 50.54C173.048 51.17 172.849 51.905 172.849 52.745C172.849 53.6083 173.048 54.4017 173.444 55.125C173.864 55.825 174.424 56.385 175.124 56.805C175.848 57.225 176.676 57.435 177.609 57.435ZM191.534 61.25V42.42H196.959V49.77H205.149V42.42H210.609V61.25H205.149V54.215H196.959V61.25H191.534ZM224.656 61.53C222.649 61.53 220.864 61.11 219.301 60.27C217.761 59.43 216.536 58.2867 215.626 56.84C214.739 55.37 214.296 53.7017 214.296 51.835C214.296 49.945 214.739 48.2767 215.626 46.83C216.536 45.36 217.761 44.2167 219.301 43.4C220.864 42.56 222.649 42.14 224.656 42.14C226.639 42.14 228.413 42.56 229.976 43.4C231.539 44.2167 232.764 45.3483 233.651 46.795C234.538 48.2417 234.981 49.9217 234.981 51.835C234.981 53.7017 234.538 55.37 233.651 56.84C232.764 58.2867 231.539 59.43 229.976 60.27C228.413 61.11 226.639 61.53 224.656 61.53ZM224.656 57.05C225.566 57.05 226.383 56.84 227.106 56.42C227.829 56 228.401 55.405 228.821 54.635C229.241 53.8417 229.451 52.9083 229.451 51.835C229.451 50.7383 229.241 49.805 228.821 49.035C228.401 48.265 227.829 47.67 227.106 47.25C226.383 46.83 225.566 46.62 224.656 46.62C223.746 46.62 222.929 46.83 222.206 47.25C221.483 47.67 220.899 48.265 220.456 49.035C220.036 49.805 219.826 50.7383 219.826 51.835C219.826 52.9083 220.036 53.8417 220.456 54.635C220.899 55.405 221.483 56 222.206 56.42C222.929 56.84 223.746 57.05 224.656 57.05Z" fill="#005F87"/>
<path d="M45.425 115V98.6L45.925 99.1H39.275V97.5H53.4V99.1H46.775L47.25 98.6V115H45.425ZM63.6398 115V112.1L63.5648 111.625V106.775C63.5648 105.658 63.2482 104.8 62.6148 104.2C61.9982 103.6 61.0732 103.3 59.8398 103.3C58.9898 103.3 58.1815 103.442 57.4148 103.725C56.6482 104.008 55.9982 104.383 55.4648 104.85L54.6648 103.525C55.3315 102.958 56.1315 102.525 57.0648 102.225C57.9982 101.908 58.9815 101.75 60.0148 101.75C61.7148 101.75 63.0232 102.175 63.9398 103.025C64.8732 103.858 65.3398 105.133 65.3398 106.85V115H63.6398ZM59.1148 115.125C58.1315 115.125 57.2732 114.967 56.5398 114.65C55.8232 114.317 55.2732 113.867 54.8898 113.3C54.5065 112.717 54.3148 112.05 54.3148 111.3C54.3148 110.617 54.4732 110 54.7898 109.45C55.1232 108.883 55.6565 108.433 56.3898 108.1C57.1398 107.75 58.1398 107.575 59.3898 107.575H63.9148V108.9H59.4398C58.1732 108.9 57.2898 109.125 56.7898 109.575C56.3065 110.025 56.0648 110.583 56.0648 111.25C56.0648 112 56.3565 112.6 56.9398 113.05C57.5232 113.5 58.3398 113.725 59.3898 113.725C60.3898 113.725 61.2482 113.5 61.9648 113.05C62.6982 112.583 63.2315 111.917 63.5648 111.05L63.9648 112.275C63.6315 113.142 63.0482 113.833 62.2148 114.35C61.3982 114.867 60.3648 115.125 59.1148 115.125ZM79.69 115L74.29 108.5L75.765 107.625L81.79 115H79.69ZM70.065 115V101.875H71.84V115H70.065ZM71.29 109.15V107.625H75.515V109.15H71.29ZM75.915 108.625L74.265 108.375L79.49 101.875H81.415L75.915 108.625ZM91.1344 115V101.875H92.9344L98.8844 111.95H98.1344L104.184 101.875H105.834V115H104.209V103.9L104.534 104.05L98.8844 113.4H98.0844L92.3844 103.95L92.7594 103.875V115H91.1344ZM123.685 115V101.875H125.46V115H123.685ZM116.41 106.5C118.06 106.517 119.319 106.883 120.185 107.6C121.052 108.317 121.485 109.35 121.485 110.7C121.485 112.1 121.019 113.175 120.085 113.925C119.152 114.675 117.819 115.042 116.085 115.025L110.885 115V101.875H112.66V106.45L116.41 106.5ZM115.96 113.675C117.194 113.692 118.119 113.45 118.735 112.95C119.369 112.433 119.685 111.683 119.685 110.7C119.685 109.717 119.377 109 118.76 108.55C118.144 108.083 117.21 107.842 115.96 107.825L112.66 107.775V113.625L115.96 113.675ZM137.282 119.975C136.666 119.975 136.074 119.875 135.507 119.675C134.957 119.475 134.482 119.175 134.082 118.775L134.907 117.45C135.241 117.767 135.599 118.008 135.982 118.175C136.382 118.358 136.824 118.45 137.307 118.45C137.891 118.45 138.391 118.283 138.807 117.95C139.241 117.633 139.649 117.067 140.032 116.25L140.882 114.325L141.082 114.05L146.482 101.875H148.232L141.657 116.575C141.291 117.425 140.882 118.1 140.432 118.6C139.999 119.1 139.524 119.45 139.007 119.65C138.491 119.867 137.916 119.975 137.282 119.975ZM140.782 115.375L134.732 101.875H136.582L141.932 113.925L140.782 115.375ZM150.998 115V101.875H162.798V115H161.023V102.95L161.473 103.425H152.323L152.773 102.95V115H150.998ZM174.618 115.125C173.485 115.125 172.46 114.867 171.543 114.35C170.627 113.817 169.893 113.058 169.343 112.075C168.81 111.075 168.543 109.858 168.543 108.425C168.543 106.992 168.81 105.783 169.343 104.8C169.877 103.8 170.602 103.042 171.518 102.525C172.435 102.008 173.468 101.75 174.618 101.75C175.868 101.75 176.985 102.033 177.968 102.6C178.968 103.15 179.752 103.933 180.318 104.95C180.885 105.95 181.168 107.108 181.168 108.425C181.168 109.758 180.885 110.925 180.318 111.925C179.752 112.925 178.968 113.708 177.968 114.275C176.985 114.842 175.868 115.125 174.618 115.125ZM167.843 119.85V101.875H169.543V105.825L169.368 108.45L169.618 111.1V119.85H167.843ZM174.493 113.55C175.427 113.55 176.26 113.342 176.993 112.925C177.727 112.492 178.31 111.892 178.743 111.125C179.177 110.342 179.393 109.442 179.393 108.425C179.393 107.408 179.177 106.517 178.743 105.75C178.31 104.983 177.727 104.383 176.993 103.95C176.26 103.517 175.427 103.3 174.493 103.3C173.56 103.3 172.718 103.517 171.968 103.95C171.235 104.383 170.652 104.983 170.218 105.75C169.802 106.517 169.593 107.408 169.593 108.425C169.593 109.442 169.802 110.342 170.218 111.125C170.652 111.892 171.235 112.492 171.968 112.925C172.718 113.342 173.56 113.55 174.493 113.55ZM190.382 115.125C189.115 115.125 187.974 114.842 186.957 114.275C185.957 113.692 185.165 112.9 184.582 111.9C183.999 110.883 183.707 109.725 183.707 108.425C183.707 107.108 183.999 105.95 184.582 104.95C185.165 103.95 185.957 103.167 186.957 102.6C187.957 102.033 189.099 101.75 190.382 101.75C191.682 101.75 192.832 102.033 193.832 102.6C194.849 103.167 195.64 103.95 196.207 104.95C196.79 105.95 197.082 107.108 197.082 108.425C197.082 109.725 196.79 110.883 196.207 111.9C195.64 112.9 194.849 113.692 193.832 114.275C192.815 114.842 191.665 115.125 190.382 115.125ZM190.382 113.55C191.332 113.55 192.174 113.342 192.907 112.925C193.64 112.492 194.215 111.892 194.632 111.125C195.065 110.342 195.282 109.442 195.282 108.425C195.282 107.392 195.065 106.492 194.632 105.725C194.215 104.958 193.64 104.367 192.907 103.95C192.174 103.517 191.34 103.3 190.407 103.3C189.474 103.3 188.64 103.517 187.907 103.95C187.174 104.367 186.59 104.958 186.157 105.725C185.724 106.492 185.507 107.392 185.507 108.425C185.507 109.442 185.724 110.342 186.157 111.125C186.59 111.892 187.174 112.492 187.907 112.925C188.64 113.342 189.465 113.55 190.382 113.55ZM209.501 113.45L209.101 113.925V101.875H210.876V113.925L210.401 113.45H217.726L217.251 113.925V101.875H219.026V115H200.876V101.875H202.651V113.925L202.201 113.45H209.501ZM219.376 117.875V114.525L219.826 115H217.151V113.45H221.051V117.875H219.376ZM232.219 115V112.1L232.144 111.625V106.775C232.144 105.658 231.827 104.8 231.194 104.2C230.577 103.6 229.652 103.3 228.419 103.3C227.569 103.3 226.761 103.442 225.994 103.725C225.227 104.008 224.577 104.383 224.044 104.85L223.244 103.525C223.911 102.958 224.711 102.525 225.644 102.225C226.577 101.908 227.561 101.75 228.594 101.75C230.294 101.75 231.602 102.175 232.519 103.025C233.452 103.858 233.919 105.133 233.919 106.85V115H232.219ZM227.694 115.125C226.711 115.125 225.852 114.967 225.119 114.65C224.402 114.317 223.852 113.867 223.469 113.3C223.086 112.717 222.894 112.05 222.894 111.3C222.894 110.617 223.052 110 223.369 109.45C223.702 108.883 224.236 108.433 224.969 108.1C225.719 107.75 226.719 107.575 227.969 107.575H232.494V108.9H228.019C226.752 108.9 225.869 109.125 225.369 109.575C224.886 110.025 224.644 110.583 224.644 111.25C224.644 112 224.936 112.6 225.519 113.05C226.102 113.5 226.919 113.725 227.969 113.725C228.969 113.725 229.827 113.5 230.544 113.05C231.277 112.583 231.811 111.917 232.144 111.05L232.544 112.275C232.211 113.142 231.627 113.833 230.794 114.35C229.977 114.867 228.944 115.125 227.694 115.125ZM244.269 115.125C242.902 115.125 241.702 114.842 240.669 114.275C239.636 113.692 238.827 112.9 238.244 111.9C237.661 110.883 237.369 109.725 237.369 108.425C237.369 107.125 237.644 105.975 238.194 104.975C238.761 103.975 239.527 103.192 240.494 102.625C241.477 102.042 242.577 101.75 243.794 101.75C245.027 101.75 246.119 102.033 247.069 102.6C248.036 103.15 248.794 103.933 249.344 104.95C249.894 105.95 250.169 107.108 250.169 108.425C250.169 108.508 250.161 108.6 250.144 108.7C250.144 108.783 250.144 108.875 250.144 108.975H238.719V107.65H249.194L248.494 108.175C248.494 107.225 248.286 106.383 247.869 105.65C247.469 104.9 246.919 104.317 246.219 103.9C245.519 103.483 244.711 103.275 243.794 103.275C242.894 103.275 242.086 103.483 241.369 103.9C240.652 104.317 240.094 104.9 239.694 105.65C239.294 106.4 239.094 107.258 239.094 108.225V108.5C239.094 109.5 239.311 110.383 239.744 111.15C240.194 111.9 240.811 112.492 241.594 112.925C242.394 113.342 243.302 113.55 244.319 113.55C245.119 113.55 245.861 113.408 246.544 113.125C247.244 112.842 247.844 112.408 248.344 111.825L249.344 112.975C248.761 113.675 248.027 114.208 247.144 114.575C246.277 114.942 245.319 115.125 244.269 115.125ZM254.098 115V101.875H255.898L261.848 111.95H261.098L267.148 101.875H268.798V115H267.173V103.9L267.498 104.05L261.848 113.4H261.048L255.348 103.95L255.723 103.875V115H254.098ZM280.392 115V101.875H282.167V112.3L290.942 101.875H292.517V115H290.742V104.55L281.992 115H280.392ZM304.372 119.975C303.755 119.975 303.164 119.875 302.597 119.675C302.047 119.475 301.572 119.175 301.172 118.775L301.997 117.45C302.33 117.767 302.689 118.008 303.072 118.175C303.472 118.358 303.914 118.45 304.397 118.45C304.98 118.45 305.48 118.283 305.897 117.95C306.33 117.633 306.739 117.067 307.122 116.25L307.972 114.325L308.172 114.05L313.572 101.875H315.322L308.747 116.575C308.38 117.425 307.972 118.1 307.522 118.6C307.089 119.1 306.614 119.45 306.097 119.65C305.58 119.867 305.005 119.975 304.372 119.975ZM307.872 115.375L301.822 101.875H303.672L309.022 113.925L307.872 115.375ZM323.221 115.125C321.921 115.125 320.755 114.842 319.721 114.275C318.705 113.692 317.905 112.9 317.321 111.9C316.738 110.883 316.446 109.725 316.446 108.425C316.446 107.108 316.738 105.95 317.321 104.95C317.905 103.95 318.705 103.167 319.721 102.6C320.755 102.033 321.921 101.75 323.221 101.75C324.338 101.75 325.346 101.967 326.246 102.4C327.146 102.833 327.855 103.483 328.371 104.35L327.046 105.25C326.596 104.583 326.038 104.092 325.371 103.775C324.705 103.458 323.98 103.3 323.196 103.3C322.263 103.3 321.421 103.517 320.671 103.95C319.921 104.367 319.33 104.958 318.896 105.725C318.463 106.492 318.246 107.392 318.246 108.425C318.246 109.458 318.463 110.358 318.896 111.125C319.33 111.892 319.921 112.492 320.671 112.925C321.421 113.342 322.263 113.55 323.196 113.55C323.98 113.55 324.705 113.392 325.371 113.075C326.038 112.758 326.596 112.275 327.046 111.625L328.371 112.525C327.855 113.375 327.146 114.025 326.246 114.475C325.346 114.908 324.338 115.125 323.221 115.125ZM341.433 115L336.033 108.5L337.508 107.625L343.533 115H341.433ZM331.808 115V101.875H333.583V115H331.808ZM333.033 109.15V107.625H337.258V109.15H333.033ZM337.658 108.625L336.008 108.375L341.233 101.875H343.158L337.658 108.625ZM351.271 115.125C350.004 115.125 348.862 114.842 347.846 114.275C346.846 113.692 346.054 112.9 345.471 111.9C344.887 110.883 344.596 109.725 344.596 108.425C344.596 107.108 344.887 105.95 345.471 104.95C346.054 103.95 346.846 103.167 347.846 102.6C348.846 102.033 349.987 101.75 351.271 101.75C352.571 101.75 353.721 102.033 354.721 102.6C355.737 103.167 356.529 103.95 357.096 104.95C357.679 105.95 357.971 107.108 357.971 108.425C357.971 109.725 357.679 110.883 357.096 111.9C356.529 112.9 355.737 113.692 354.721 114.275C353.704 114.842 352.554 115.125 351.271 115.125ZM351.271 113.55C352.221 113.55 353.062 113.342 353.796 112.925C354.529 112.492 355.104 111.892 355.521 111.125C355.954 110.342 356.171 109.442 356.171 108.425C356.171 107.392 355.954 106.492 355.521 105.725C355.104 104.958 354.529 104.367 353.796 103.95C353.062 103.517 352.229 103.3 351.296 103.3C350.362 103.3 349.529 103.517 348.796 103.95C348.062 104.367 347.479 104.958 347.046 105.725C346.612 106.492 346.396 107.392 346.396 108.425C346.396 109.442 346.612 110.342 347.046 111.125C347.479 111.892 348.062 112.492 348.796 112.925C349.529 113.342 350.354 113.55 351.271 113.55ZM368.539 115.125C367.406 115.125 366.381 114.867 365.464 114.35C364.548 113.817 363.814 113.058 363.264 112.075C362.731 111.075 362.464 109.858 362.464 108.425C362.464 106.992 362.731 105.783 363.264 104.8C363.798 103.8 364.523 103.042 365.439 102.525C366.356 102.008 367.389 101.75 368.539 101.75C369.789 101.75 370.906 102.033 371.889 102.6C372.889 103.15 373.673 103.933 374.239 104.95C374.806 105.95 375.089 107.108 375.089 108.425C375.089 109.758 374.806 110.925 374.239 111.925C373.673 112.925 372.889 113.708 371.889 114.275C370.906 114.842 369.789 115.125 368.539 115.125ZM361.764 119.85V101.875H363.464V105.825L363.289 108.45L363.539 111.1V119.85H361.764ZM368.414 113.55C369.348 113.55 370.181 113.342 370.914 112.925C371.648 112.492 372.231 111.892 372.664 111.125C373.098 110.342 373.314 109.442 373.314 108.425C373.314 107.408 373.098 106.517 372.664 105.75C372.231 104.983 371.648 104.383 370.914 103.95C370.181 103.517 369.348 103.3 368.414 103.3C367.481 103.3 366.639 103.517 365.889 103.95C365.156 104.383 364.573 104.983 364.139 105.75C363.723 106.517 363.514 107.408 363.514 108.425C363.514 109.442 363.723 110.342 364.139 111.125C364.573 111.892 365.156 112.492 365.889 112.925C366.639 113.342 367.481 113.55 368.414 113.55ZM386.914 115V110.275L387.239 110.65H382.789C381.106 110.65 379.789 110.283 378.839 109.55C377.889 108.817 377.414 107.75 377.414 106.35C377.414 104.85 377.922 103.733 378.939 103C379.956 102.25 381.314 101.875 383.014 101.875H388.539V115H386.914ZM377.314 115L380.914 109.95H382.764L379.239 115H377.314ZM386.914 109.75V102.9L387.239 103.425H383.064C381.847 103.425 380.897 103.658 380.214 104.125C379.547 104.592 379.214 105.35 379.214 106.4C379.214 108.35 380.456 109.325 382.939 109.325H387.239L386.914 109.75ZM399.225 115.125C397.859 115.125 396.659 114.842 395.625 114.275C394.592 113.692 393.784 112.9 393.2 111.9C392.617 110.883 392.325 109.725 392.325 108.425C392.325 107.125 392.6 105.975 393.15 104.975C393.717 103.975 394.484 103.192 395.45 102.625C396.434 102.042 397.534 101.75 398.75 101.75C399.984 101.75 401.075 102.033 402.025 102.6C402.992 103.15 403.75 103.933 404.3 104.95C404.85 105.95 405.125 107.108 405.125 108.425C405.125 108.508 405.117 108.6 405.1 108.7C405.1 108.783 405.1 108.875 405.1 108.975H393.675V107.65H404.15L403.45 108.175C403.45 107.225 403.242 106.383 402.825 105.65C402.425 104.9 401.875 104.317 401.175 103.9C400.475 103.483 399.667 103.275 398.75 103.275C397.85 103.275 397.042 103.483 396.325 103.9C395.609 104.317 395.05 104.9 394.65 105.65C394.25 106.4 394.05 107.258 394.05 108.225V108.5C394.05 109.5 394.267 110.383 394.7 111.15C395.15 111.9 395.767 112.492 396.55 112.925C397.35 113.342 398.259 113.55 399.275 113.55C400.075 113.55 400.817 113.408 401.5 113.125C402.2 112.842 402.8 112.408 403.3 111.825L404.3 112.975C403.717 113.675 402.984 114.208 402.1 114.575C401.234 114.942 400.275 115.125 399.225 115.125ZM409.054 115V101.875H410.854L416.804 111.95H416.054L422.104 101.875H423.754V115H422.129V103.9L422.454 104.05L416.804 113.4H416.004L410.304 103.95L410.679 103.875V115H409.054ZM41.525 146V132.875H53.325V146H51.55V133.95L52 134.425H42.85L43.3 133.95V146H41.525ZM65.1457 146.125C64.0124 146.125 62.9874 145.867 62.0707 145.35C61.154 144.817 60.4207 144.058 59.8707 143.075C59.3374 142.075 59.0707 140.858 59.0707 139.425C59.0707 137.992 59.3374 136.783 59.8707 135.8C60.404 134.8 61.129 134.042 62.0457 133.525C62.9624 133.008 63.9957 132.75 65.1457 132.75C66.3957 132.75 67.5124 133.033 68.4957 133.6C69.4957 134.15 70.279 134.933 70.8457 135.95C71.4124 136.95 71.6957 138.108 71.6957 139.425C71.6957 140.758 71.4124 141.925 70.8457 142.925C70.279 143.925 69.4957 144.708 68.4957 145.275C67.5124 145.842 66.3957 146.125 65.1457 146.125ZM58.3707 150.85V132.875H60.0707V136.825L59.8957 139.45L60.1457 142.1V150.85H58.3707ZM65.0207 144.55C65.954 144.55 66.7874 144.342 67.5207 143.925C68.254 143.492 68.8374 142.892 69.2707 142.125C69.704 141.342 69.9207 140.442 69.9207 139.425C69.9207 138.408 69.704 137.517 69.2707 136.75C68.8374 135.983 68.254 135.383 67.5207 134.95C66.7874 134.517 65.954 134.3 65.0207 134.3C64.0874 134.3 63.2457 134.517 62.4957 134.95C61.7624 135.383 61.179 135.983 60.7457 136.75C60.329 137.517 60.1207 138.408 60.1207 139.425C60.1207 140.442 60.329 141.342 60.7457 142.125C61.179 142.892 61.7624 143.492 62.4957 143.925C63.2457 144.342 64.0874 144.55 65.0207 144.55ZM80.9094 146.125C79.6427 146.125 78.501 145.842 77.4844 145.275C76.4844 144.692 75.6927 143.9 75.1094 142.9C74.526 141.883 74.2344 140.725 74.2344 139.425C74.2344 138.108 74.526 136.95 75.1094 135.95C75.6927 134.95 76.4844 134.167 77.4844 133.6C78.4844 133.033 79.626 132.75 80.9094 132.75C82.2094 132.75 83.3594 133.033 84.3594 133.6C85.376 134.167 86.1677 134.95 86.7344 135.95C87.3177 136.95 87.6094 138.108 87.6094 139.425C87.6094 140.725 87.3177 141.883 86.7344 142.9C86.1677 143.9 85.376 144.692 84.3594 145.275C83.3427 145.842 82.1927 146.125 80.9094 146.125ZM80.9094 144.55C81.8594 144.55 82.701 144.342 83.4344 143.925C84.1677 143.492 84.7427 142.892 85.1594 142.125C85.5927 141.342 85.8094 140.442 85.8094 139.425C85.8094 138.392 85.5927 137.492 85.1594 136.725C84.7427 135.958 84.1677 135.367 83.4344 134.95C82.701 134.517 81.8677 134.3 80.9344 134.3C80.001 134.3 79.1677 134.517 78.4344 134.95C77.701 135.367 77.1177 135.958 76.6844 136.725C76.251 137.492 76.0344 138.392 76.0344 139.425C76.0344 140.442 76.251 141.342 76.6844 142.125C77.1177 142.892 77.701 143.492 78.4344 143.925C79.1677 144.342 79.9927 144.55 80.9094 144.55ZM91.4029 146V132.875H93.1779V144.45H101.203V132.875H102.978V146H91.4029ZM103.428 149.175V145.85L103.878 146H101.203V144.45H105.103V149.175H103.428ZM114.118 146.125C112.751 146.125 111.551 145.842 110.518 145.275C109.484 144.692 108.676 143.9 108.093 142.9C107.509 141.883 107.218 140.725 107.218 139.425C107.218 138.125 107.493 136.975 108.043 135.975C108.609 134.975 109.376 134.192 110.343 133.625C111.326 133.042 112.426 132.75 113.643 132.75C114.876 132.75 115.968 133.033 116.918 133.6C117.884 134.15 118.643 134.933 119.193 135.95C119.743 136.95 120.018 138.108 120.018 139.425C120.018 139.508 120.009 139.6 119.993 139.7C119.993 139.783 119.993 139.875 119.993 139.975H108.568V138.65H119.043L118.343 139.175C118.343 138.225 118.134 137.383 117.718 136.65C117.318 135.9 116.768 135.317 116.068 134.9C115.368 134.483 114.559 134.275 113.643 134.275C112.743 134.275 111.934 134.483 111.218 134.9C110.501 135.317 109.943 135.9 109.543 136.65C109.143 137.4 108.943 138.258 108.943 139.225V139.5C108.943 140.5 109.159 141.383 109.593 142.15C110.043 142.9 110.659 143.492 111.443 143.925C112.243 144.342 113.151 144.55 114.168 144.55C114.968 144.55 115.709 144.408 116.393 144.125C117.093 143.842 117.693 143.408 118.193 142.825L119.193 143.975C118.609 144.675 117.876 145.208 116.993 145.575C116.126 145.942 115.168 146.125 114.118 146.125ZM129.447 146.125C128.147 146.125 126.98 145.842 125.947 145.275C124.93 144.692 124.13 143.9 123.547 142.9C122.964 141.883 122.672 140.725 122.672 139.425C122.672 138.108 122.964 136.95 123.547 135.95C124.13 134.95 124.93 134.167 125.947 133.6C126.98 133.033 128.147 132.75 129.447 132.75C130.564 132.75 131.572 132.967 132.472 133.4C133.372 133.833 134.08 134.483 134.597 135.35L133.272 136.25C132.822 135.583 132.264 135.092 131.597 134.775C130.93 134.458 130.205 134.3 129.422 134.3C128.489 134.3 127.647 134.517 126.897 134.95C126.147 135.367 125.555 135.958 125.122 136.725C124.689 137.492 124.472 138.392 124.472 139.425C124.472 140.458 124.689 141.358 125.122 142.125C125.555 142.892 126.147 143.492 126.897 143.925C127.647 144.342 128.489 144.55 129.422 144.55C130.205 144.55 130.93 144.392 131.597 144.075C132.264 143.758 132.822 143.275 133.272 142.625L134.597 143.525C134.08 144.375 133.372 145.025 132.472 145.475C131.572 145.908 130.564 146.125 129.447 146.125ZM143.314 146.125C142.014 146.125 140.847 145.842 139.814 145.275C138.797 144.692 137.997 143.9 137.414 142.9C136.831 141.883 136.539 140.725 136.539 139.425C136.539 138.108 136.831 136.95 137.414 135.95C137.997 134.95 138.797 134.167 139.814 133.6C140.847 133.033 142.014 132.75 143.314 132.75C144.431 132.75 145.439 132.967 146.339 133.4C147.239 133.833 147.947 134.483 148.464 135.35L147.139 136.25C146.689 135.583 146.131 135.092 145.464 134.775C144.797 134.458 144.072 134.3 143.289 134.3C142.356 134.3 141.514 134.517 140.764 134.95C140.014 135.367 139.422 135.958 138.989 136.725C138.556 137.492 138.339 138.392 138.339 139.425C138.339 140.458 138.556 141.358 138.989 142.125C139.422 142.892 140.014 143.492 140.764 143.925C141.514 144.342 142.356 144.55 143.289 144.55C144.072 144.55 144.797 144.392 145.464 144.075C146.131 143.758 146.689 143.275 147.139 142.625L148.464 143.525C147.947 144.375 147.239 145.025 146.339 145.475C145.439 145.908 144.431 146.125 143.314 146.125ZM158.669 150.975C158.052 150.975 157.461 150.875 156.894 150.675C156.344 150.475 155.869 150.175 155.469 149.775L156.294 148.45C156.627 148.767 156.986 149.008 157.369 149.175C157.769 149.358 158.211 149.45 158.694 149.45C159.277 149.45 159.777 149.283 160.194 148.95C160.627 148.633 161.036 148.067 161.419 147.25L162.269 145.325L162.469 145.05L167.869 132.875H169.619L163.044 147.575C162.677 148.425 162.269 149.1 161.819 149.6C161.386 150.1 160.911 150.45 160.394 150.65C159.877 150.867 159.302 150.975 158.669 150.975ZM162.169 146.375L156.119 132.875H157.969L163.319 144.925L162.169 146.375ZM177.518 146.125C176.218 146.125 175.051 145.842 174.018 145.275C173.001 144.692 172.201 143.9 171.618 142.9C171.035 141.883 170.743 140.725 170.743 139.425C170.743 138.108 171.035 136.95 171.618 135.95C172.201 134.95 173.001 134.167 174.018 133.6C175.051 133.033 176.218 132.75 177.518 132.75C178.635 132.75 179.643 132.967 180.543 133.4C181.443 133.833 182.151 134.483 182.668 135.35L181.343 136.25C180.893 135.583 180.335 135.092 179.668 134.775C179.001 134.458 178.276 134.3 177.493 134.3C176.56 134.3 175.718 134.517 174.968 134.95C174.218 135.367 173.626 135.958 173.193 136.725C172.76 137.492 172.543 138.392 172.543 139.425C172.543 140.458 172.76 141.358 173.193 142.125C173.626 142.892 174.218 143.492 174.968 143.925C175.718 144.342 176.56 144.55 177.493 144.55C178.276 144.55 179.001 144.392 179.668 144.075C180.335 143.758 180.893 143.275 181.343 142.625L182.668 143.525C182.151 144.375 181.443 145.025 180.543 145.475C179.643 145.908 178.635 146.125 177.518 146.125ZM188.361 146V133.95L188.811 134.425H183.386V132.875H195.111V134.425H189.686L190.136 133.95V146H188.361ZM205.827 146V143.1L205.752 142.625V137.775C205.752 136.658 205.436 135.8 204.802 135.2C204.186 134.6 203.261 134.3 202.027 134.3C201.177 134.3 200.369 134.442 199.602 134.725C198.836 135.008 198.186 135.383 197.652 135.85L196.852 134.525C197.519 133.958 198.319 133.525 199.252 133.225C200.186 132.908 201.169 132.75 202.202 132.75C203.902 132.75 205.211 133.175 206.127 134.025C207.061 134.858 207.527 136.133 207.527 137.85V146H205.827ZM201.302 146.125C200.319 146.125 199.461 145.967 198.727 145.65C198.011 145.317 197.461 144.867 197.077 144.3C196.694 143.717 196.502 143.05 196.502 142.3C196.502 141.617 196.661 141 196.977 140.45C197.311 139.883 197.844 139.433 198.577 139.1C199.327 138.75 200.327 138.575 201.577 138.575H206.102V139.9H201.627C200.361 139.9 199.477 140.125 198.977 140.575C198.494 141.025 198.252 141.583 198.252 142.25C198.252 143 198.544 143.6 199.127 144.05C199.711 144.5 200.527 144.725 201.577 144.725C202.577 144.725 203.436 144.5 204.152 144.05C204.886 143.583 205.419 142.917 205.752 142.05L206.152 143.275C205.819 144.142 205.236 144.833 204.402 145.35C203.586 145.867 202.552 146.125 201.302 146.125ZM212.253 146V132.875H214.028V138.675H222.303V132.875H224.078V146H222.303V140.2H214.028V146H212.253ZM234.523 146.125C233.256 146.125 232.114 145.842 231.098 145.275C230.098 144.692 229.306 143.9 228.723 142.9C228.139 141.883 227.848 140.725 227.848 139.425C227.848 138.108 228.139 136.95 228.723 135.95C229.306 134.95 230.098 134.167 231.098 133.6C232.098 133.033 233.239 132.75 234.523 132.75C235.823 132.75 236.973 133.033 237.973 133.6C238.989 134.167 239.781 134.95 240.348 135.95C240.931 136.95 241.223 138.108 241.223 139.425C241.223 140.725 240.931 141.883 240.348 142.9C239.781 143.9 238.989 144.692 237.973 145.275C236.956 145.842 235.806 146.125 234.523 146.125ZM234.523 144.55C235.473 144.55 236.314 144.342 237.048 143.925C237.781 143.492 238.356 142.892 238.773 142.125C239.206 141.342 239.423 140.442 239.423 139.425C239.423 138.392 239.206 137.492 238.773 136.725C238.356 135.958 237.781 135.367 237.048 134.95C236.314 134.517 235.481 134.3 234.548 134.3C233.614 134.3 232.781 134.517 232.048 134.95C231.314 135.367 230.731 135.958 230.298 136.725C229.864 137.492 229.648 138.392 229.648 139.425C229.648 140.442 229.864 141.342 230.298 142.125C230.731 142.892 231.314 143.492 232.048 143.925C232.781 144.342 233.606 144.55 234.523 144.55ZM245.016 146V132.875H250.816C252.3 132.875 253.466 133.158 254.316 133.725C255.183 134.292 255.616 135.125 255.616 136.225C255.616 137.292 255.208 138.117 254.391 138.7C253.575 139.267 252.5 139.55 251.166 139.55L251.516 139.025C253.083 139.025 254.233 139.317 254.966 139.9C255.7 140.483 256.066 141.325 256.066 142.425C256.066 143.558 255.65 144.442 254.816 145.075C254 145.692 252.725 146 250.991 146H245.016ZM246.741 144.6H250.916C252.033 144.6 252.875 144.425 253.441 144.075C254.025 143.708 254.316 143.125 254.316 142.325C254.316 141.525 254.058 140.942 253.541 140.575C253.025 140.208 252.208 140.025 251.091 140.025H246.741V144.6ZM246.741 138.7H250.691C251.708 138.7 252.483 138.508 253.016 138.125C253.566 137.742 253.841 137.183 253.841 136.45C253.841 135.717 253.566 135.167 253.016 134.8C252.483 134.433 251.708 134.25 250.691 134.25H246.741V138.7ZM269.851 146L264.451 139.5L265.926 138.625L271.951 146H269.851ZM260.226 146V132.875H262.001V146H260.226ZM261.451 140.15V138.625H265.676V140.15H261.451ZM266.076 139.625L264.426 139.375L269.651 132.875H271.576L266.076 139.625ZM274.753 146V132.875H276.528V143.3L285.303 132.875H286.878V146H285.103V135.55L276.353 146H274.753ZM298.507 146V132.875H300.282V143.3L309.057 132.875H310.632V146H308.857V135.55L300.107 146H298.507ZM331.262 145.15V134.425H324.937L324.787 137.35C324.754 138.233 324.696 139.1 324.612 139.95C324.546 140.8 324.421 141.583 324.237 142.3C324.071 143 323.829 143.575 323.512 144.025C323.196 144.458 322.787 144.708 322.287 144.775L320.512 144.45C321.029 144.467 321.454 144.283 321.787 143.9C322.121 143.5 322.379 142.958 322.562 142.275C322.746 141.592 322.879 140.817 322.962 139.95C323.046 139.067 323.112 138.167 323.162 137.25L323.337 132.875H333.037V145.15H331.262ZM319.962 149.175V144.45H335.087V149.175H333.412V146H321.637V149.175H319.962ZM346.696 146V143.1L346.621 142.625V137.775C346.621 136.658 346.305 135.8 345.671 135.2C345.055 134.6 344.13 134.3 342.896 134.3C342.046 134.3 341.238 134.442 340.471 134.725C339.705 135.008 339.055 135.383 338.521 135.85L337.721 134.525C338.388 133.958 339.188 133.525 340.121 133.225C341.055 132.908 342.038 132.75 343.071 132.75C344.771 132.75 346.08 133.175 346.996 134.025C347.93 134.858 348.396 136.133 348.396 137.85V146H346.696ZM342.171 146.125C341.188 146.125 340.33 145.967 339.596 145.65C338.88 145.317 338.33 144.867 337.946 144.3C337.563 143.717 337.371 143.05 337.371 142.3C337.371 141.617 337.53 141 337.846 140.45C338.18 139.883 338.713 139.433 339.446 139.1C340.196 138.75 341.196 138.575 342.446 138.575H346.971V139.9H342.496C341.23 139.9 340.346 140.125 339.846 140.575C339.363 141.025 339.121 141.583 339.121 142.25C339.121 143 339.413 143.6 339.996 144.05C340.58 144.5 341.396 144.725 342.446 144.725C343.446 144.725 344.305 144.5 345.021 144.05C345.755 143.583 346.288 142.917 346.621 142.05L347.021 143.275C346.688 144.142 346.105 144.833 345.271 145.35C344.455 145.867 343.421 146.125 342.171 146.125ZM350.722 145.975L350.847 144.45C350.963 144.467 351.072 144.492 351.172 144.525C351.288 144.542 351.388 144.55 351.472 144.55C352.005 144.55 352.43 144.35 352.747 143.95C353.08 143.55 353.33 143.017 353.497 142.35C353.663 141.683 353.78 140.933 353.847 140.1C353.913 139.25 353.972 138.4 354.022 137.55L354.247 132.875H363.872V146H362.097V133.9L362.547 134.425H355.397L355.822 133.875L355.622 137.675C355.572 138.808 355.48 139.892 355.347 140.925C355.23 141.958 355.038 142.867 354.772 143.65C354.522 144.433 354.172 145.05 353.722 145.5C353.272 145.933 352.697 146.15 351.997 146.15C351.797 146.15 351.588 146.133 351.372 146.1C351.172 146.067 350.955 146.025 350.722 145.975ZM374.568 137.5C376.218 137.517 377.468 137.883 378.318 138.6C379.184 139.317 379.618 140.35 379.618 141.7C379.618 143.1 379.151 144.175 378.218 144.925C377.301 145.675 375.968 146.042 374.218 146.025L368.918 146V132.875H370.693V137.45L374.568 137.5ZM374.118 144.675C375.334 144.692 376.251 144.45 376.868 143.95C377.501 143.433 377.818 142.683 377.818 141.7C377.818 140.717 377.509 140 376.893 139.55C376.276 139.083 375.351 138.842 374.118 138.825L370.693 138.775V144.625L374.118 144.675ZM383.004 146V132.875H384.779V138.675H393.054V132.875H394.829V146H393.054V140.2H384.779V146H383.004ZM405.5 146.125C404.133 146.125 402.933 145.842 401.9 145.275C400.866 144.692 400.058 143.9 399.475 142.9C398.891 141.883 398.6 140.725 398.6 139.425C398.6 138.125 398.875 136.975 399.425 135.975C399.991 134.975 400.758 134.192 401.725 133.625C402.708 133.042 403.808 132.75 405.025 132.75C406.258 132.75 407.35 133.033 408.3 133.6C409.266 134.15 410.025 134.933 410.575 135.95C411.125 136.95 411.4 138.108 411.4 139.425C411.4 139.508 411.391 139.6 411.375 139.7C411.375 139.783 411.375 139.875 411.375 139.975H399.95V138.65H410.425L409.725 139.175C409.725 138.225 409.516 137.383 409.1 136.65C408.7 135.9 408.15 135.317 407.45 134.9C406.75 134.483 405.941 134.275 405.025 134.275C404.125 134.275 403.316 134.483 402.6 134.9C401.883 135.317 401.325 135.9 400.925 136.65C400.525 137.4 400.325 138.258 400.325 139.225V139.5C400.325 140.5 400.541 141.383 400.975 142.15C401.425 142.9 402.041 143.492 402.825 143.925C403.625 144.342 404.533 144.55 405.55 144.55C406.35 144.55 407.091 144.408 407.775 144.125C408.475 143.842 409.075 143.408 409.575 142.825L410.575 143.975C409.991 144.675 409.258 145.208 408.375 145.575C407.508 145.942 406.55 146.125 405.5 146.125ZM415.329 146V132.875H417.104V143.3L425.879 132.875H427.454V146H425.679V135.55L416.929 146H415.329ZM421.279 130.975C420.179 130.975 419.287 130.7 418.604 130.15C417.937 129.583 417.587 128.775 417.554 127.725H418.829C418.845 128.392 419.079 128.917 419.529 129.3C419.979 129.683 420.562 129.875 421.279 129.875C421.995 129.875 422.579 129.683 423.029 129.3C423.495 128.917 423.737 128.392 423.754 127.725H425.029C425.012 128.775 424.662 129.583 423.979 130.15C423.295 130.7 422.395 130.975 421.279 130.975ZM441.166 144.45L440.766 144.925V132.875H442.541V144.925L442.066 144.45H449.391L448.916 144.925V132.875H450.691V146H432.541V132.875H434.316V144.925L433.866 144.45H441.166ZM461.359 146.125C459.992 146.125 458.792 145.842 457.759 145.275C456.726 144.692 455.917 143.9 455.334 142.9C454.751 141.883 454.459 140.725 454.459 139.425C454.459 138.125 454.734 136.975 455.284 135.975C455.851 134.975 456.617 134.192 457.584 133.625C458.567 133.042 459.667 132.75 460.884 132.75C462.117 132.75 463.209 133.033 464.159 133.6C465.126 134.15 465.884 134.933 466.434 135.95C466.984 136.95 467.259 138.108 467.259 139.425C467.259 139.508 467.251 139.6 467.234 139.7C467.234 139.783 467.234 139.875 467.234 139.975H455.809V138.65H466.284L465.584 139.175C465.584 138.225 465.376 137.383 464.959 136.65C464.559 135.9 464.009 135.317 463.309 134.9C462.609 134.483 461.801 134.275 460.884 134.275C459.984 134.275 459.176 134.483 458.459 134.9C457.742 135.317 457.184 135.9 456.784 136.65C456.384 137.4 456.184 138.258 456.184 139.225V139.5C456.184 140.5 456.401 141.383 456.834 142.15C457.284 142.9 457.901 143.492 458.684 143.925C459.484 144.342 460.392 144.55 461.409 144.55C462.209 144.55 462.951 144.408 463.634 144.125C464.334 143.842 464.934 143.408 465.434 142.825L466.434 143.975C465.851 144.675 465.117 145.208 464.234 145.575C463.367 145.942 462.409 146.125 461.359 146.125ZM471.188 146V132.875H480.488V134.425H472.513L472.963 133.975V146H471.188ZM487.843 146.125C486.576 146.125 485.435 145.842 484.418 145.275C483.418 144.692 482.626 143.9 482.043 142.9C481.46 141.883 481.168 140.725 481.168 139.425C481.168 138.108 481.46 136.95 482.043 135.95C482.626 134.95 483.418 134.167 484.418 133.6C485.418 133.033 486.56 132.75 487.843 132.75C489.143 132.75 490.293 133.033 491.293 133.6C492.31 134.167 493.101 134.95 493.668 135.95C494.251 136.95 494.543 138.108 494.543 139.425C494.543 140.725 494.251 141.883 493.668 142.9C493.101 143.9 492.31 144.692 491.293 145.275C490.276 145.842 489.126 146.125 487.843 146.125ZM487.843 144.55C488.793 144.55 489.635 144.342 490.368 143.925C491.101 143.492 491.676 142.892 492.093 142.125C492.526 141.342 492.743 140.442 492.743 139.425C492.743 138.392 492.526 137.492 492.093 136.725C491.676 135.958 491.101 135.367 490.368 134.95C489.635 134.517 488.801 134.3 487.868 134.3C486.935 134.3 486.101 134.517 485.368 134.95C484.635 135.367 484.051 135.958 483.618 136.725C483.185 137.492 482.968 138.392 482.968 139.425C482.968 140.442 483.185 141.342 483.618 142.125C484.051 142.892 484.635 143.492 485.368 143.925C486.101 144.342 486.926 144.55 487.843 144.55ZM46.925 177.125C45.6583 177.125 44.5167 176.842 43.5 176.275C42.5 175.692 41.7083 174.9 41.125 173.9C40.5417 172.883 40.25 171.725 40.25 170.425C40.25 169.108 40.5417 167.95 41.125 166.95C41.7083 165.95 42.5 165.167 43.5 164.6C44.5 164.033 45.6417 163.75 46.925 163.75C48.225 163.75 49.375 164.033 50.375 164.6C51.3917 165.167 52.1833 165.95 52.75 166.95C53.3333 167.95 53.625 169.108 53.625 170.425C53.625 171.725 53.3333 172.883 52.75 173.9C52.1833 174.9 51.3917 175.692 50.375 176.275C49.3583 176.842 48.2083 177.125 46.925 177.125ZM46.925 175.55C47.875 175.55 48.7167 175.342 49.45 174.925C50.1833 174.492 50.7583 173.892 51.175 173.125C51.6083 172.342 51.825 171.442 51.825 170.425C51.825 169.392 51.6083 168.492 51.175 167.725C50.7583 166.958 50.1833 166.367 49.45 165.95C48.7167 165.517 47.8833 165.3 46.95 165.3C46.0167 165.3 45.1833 165.517 44.45 165.95C43.7167 166.367 43.1333 166.958 42.7 167.725C42.2667 168.492 42.05 169.392 42.05 170.425C42.05 171.442 42.2667 172.342 42.7 173.125C43.1333 173.892 43.7167 174.492 44.45 174.925C45.1833 175.342 46.0083 175.55 46.925 175.55ZM63.3186 177.15C62.2519 177.15 61.3019 176.975 60.4686 176.625C59.6519 176.275 58.9519 175.742 58.3686 175.025C57.7852 174.308 57.3436 173.425 57.0436 172.375C56.7436 171.308 56.5936 170.075 56.5936 168.675C56.5936 167.425 56.7102 166.333 56.9436 165.4C57.1769 164.45 57.5019 163.633 57.9186 162.95C58.3352 162.267 58.8186 161.692 59.3686 161.225C59.9352 160.742 60.5436 160.358 61.1936 160.075C61.8602 159.775 62.5436 159.55 63.2436 159.4L69.1436 158.025L69.4436 159.675L63.8936 160.925C63.5436 161.008 63.1186 161.125 62.6186 161.275C62.1352 161.425 61.6352 161.65 61.1186 161.95C60.6186 162.25 60.1519 162.667 59.7186 163.2C59.2852 163.733 58.9352 164.425 58.6686 165.275C58.4186 166.108 58.2936 167.15 58.2936 168.4C58.2936 168.667 58.3019 168.883 58.3186 169.05C58.3352 169.2 58.3519 169.367 58.3686 169.55C58.4019 169.717 58.4269 169.967 58.4436 170.3L57.6686 169.65C57.8519 168.633 58.2269 167.75 58.7936 167C59.3602 166.233 60.0686 165.642 60.9186 165.225C61.7852 164.792 62.7436 164.575 63.7936 164.575C65.0102 164.575 66.0936 164.842 67.0436 165.375C67.9936 165.892 68.7352 166.617 69.2686 167.55C69.8186 168.483 70.0936 169.567 70.0936 170.8C70.0936 172.017 69.8102 173.108 69.2436 174.075C68.6936 175.042 67.9102 175.8 66.8936 176.35C65.8769 176.883 64.6852 177.15 63.3186 177.15ZM63.5186 175.675C64.4519 175.675 65.2769 175.467 65.9936 175.05C66.7102 174.617 67.2686 174.033 67.6686 173.3C68.0852 172.567 68.2936 171.742 68.2936 170.825C68.2936 169.925 68.0852 169.125 67.6686 168.425C67.2686 167.725 66.7102 167.175 65.9936 166.775C65.2769 166.358 64.4436 166.15 63.4936 166.15C62.5602 166.15 61.7352 166.35 61.0186 166.75C60.3019 167.133 59.7352 167.675 59.3186 168.375C58.9186 169.075 58.7186 169.883 58.7186 170.8C58.7186 171.717 58.9186 172.542 59.3186 173.275C59.7352 174.008 60.3019 174.592 61.0186 175.025C61.7519 175.458 62.5852 175.675 63.5186 175.675ZM79.398 177.125C78.098 177.125 76.9314 176.842 75.898 176.275C74.8814 175.692 74.0814 174.9 73.498 173.9C72.9147 172.883 72.623 171.725 72.623 170.425C72.623 169.108 72.9147 167.95 73.498 166.95C74.0814 165.95 74.8814 165.167 75.898 164.6C76.9314 164.033 78.098 163.75 79.398 163.75C80.5147 163.75 81.523 163.967 82.423 164.4C83.323 164.833 84.0314 165.483 84.548 166.35L83.223 167.25C82.773 166.583 82.2147 166.092 81.548 165.775C80.8814 165.458 80.1564 165.3 79.373 165.3C78.4397 165.3 77.598 165.517 76.848 165.95C76.098 166.367 75.5064 166.958 75.073 167.725C74.6397 168.492 74.423 169.392 74.423 170.425C74.423 171.458 74.6397 172.358 75.073 173.125C75.5064 173.892 76.098 174.492 76.848 174.925C77.598 175.342 78.4397 175.55 79.373 175.55C80.1564 175.55 80.8814 175.392 81.548 175.075C82.2147 174.758 82.773 174.275 83.223 173.625L84.548 174.525C84.0314 175.375 83.323 176.025 82.423 176.475C81.523 176.908 80.5147 177.125 79.398 177.125ZM85.1211 176.975L85.2461 175.45C85.3628 175.467 85.4711 175.492 85.5711 175.525C85.6878 175.542 85.7878 175.55 85.8711 175.55C86.4044 175.55 86.8294 175.35 87.1461 174.95C87.4794 174.55 87.7294 174.017 87.8961 173.35C88.0628 172.683 88.1794 171.933 88.2461 171.1C88.3128 170.25 88.3711 169.4 88.4211 168.55L88.6461 163.875H98.2711V177H96.4961V164.9L96.9461 165.425H89.7961L90.2211 164.875L90.0211 168.675C89.9711 169.808 89.8794 170.892 89.7461 171.925C89.6294 172.958 89.4378 173.867 89.1711 174.65C88.9211 175.433 88.5711 176.05 88.1211 176.5C87.6711 176.933 87.0961 177.15 86.3961 177.15C86.1961 177.15 85.9878 177.133 85.7711 177.1C85.5711 177.067 85.3544 177.025 85.1211 176.975ZM103.542 181.975C102.925 181.975 102.334 181.875 101.767 181.675C101.217 181.475 100.742 181.175 100.342 180.775L101.167 179.45C101.5 179.767 101.859 180.008 102.242 180.175C102.642 180.358 103.084 180.45 103.567 180.45C104.15 180.45 104.65 180.283 105.067 179.95C105.5 179.633 105.909 179.067 106.292 178.25L107.142 176.325L107.342 176.05L112.742 163.875H114.492L107.917 178.575C107.55 179.425 107.142 180.1 106.692 180.6C106.259 181.1 105.784 181.45 105.267 181.65C104.75 181.867 104.175 181.975 103.542 181.975ZM107.042 177.375L100.992 163.875H102.842L108.192 175.925L107.042 177.375ZM132.076 177L127.576 170.5L129.051 169.625L134.201 177H132.076ZM124.626 171.15V169.625H128.776V171.15H124.626ZM129.226 170.625L127.526 170.375L131.901 163.875H133.826L129.226 170.625ZM116.526 177H114.401L119.551 169.625L121.001 170.5L116.526 177ZM125.176 177H123.401V163.875H125.176V177ZM123.951 171.15H119.826V169.625H123.951V171.15ZM119.401 170.625L114.776 163.875H116.701L121.051 170.375L119.401 170.625ZM137.155 177V163.875H138.93V174.3L147.705 163.875H149.28V177H147.505V166.55L138.755 177H137.155ZM154.367 177V163.875H160.167C161.65 163.875 162.817 164.158 163.667 164.725C164.533 165.292 164.967 166.125 164.967 167.225C164.967 168.292 164.558 169.117 163.742 169.7C162.925 170.267 161.85 170.55 160.517 170.55L160.867 170.025C162.433 170.025 163.583 170.317 164.317 170.9C165.05 171.483 165.417 172.325 165.417 173.425C165.417 174.558 165 175.442 164.167 176.075C163.35 176.692 162.075 177 160.342 177H154.367ZM156.092 175.6H160.267C161.383 175.6 162.225 175.425 162.792 175.075C163.375 174.708 163.667 174.125 163.667 173.325C163.667 172.525 163.408 171.942 162.892 171.575C162.375 171.208 161.558 171.025 160.442 171.025H156.092V175.6ZM156.092 169.7H160.042C161.058 169.7 161.833 169.508 162.367 169.125C162.917 168.742 163.192 168.183 163.192 167.45C163.192 166.717 162.917 166.167 162.367 165.8C161.833 165.433 161.058 165.25 160.042 165.25H156.092V169.7ZM177.727 177V174.1L177.652 173.625V168.775C177.652 167.658 177.335 166.8 176.702 166.2C176.085 165.6 175.16 165.3 173.927 165.3C173.077 165.3 172.268 165.442 171.502 165.725C170.735 166.008 170.085 166.383 169.552 166.85L168.752 165.525C169.418 164.958 170.218 164.525 171.152 164.225C172.085 163.908 173.068 163.75 174.102 163.75C175.802 163.75 177.11 164.175 178.027 165.025C178.96 165.858 179.427 167.133 179.427 168.85V177H177.727ZM173.202 177.125C172.218 177.125 171.36 176.967 170.627 176.65C169.91 176.317 169.36 175.867 168.977 175.3C168.593 174.717 168.402 174.05 168.402 173.3C168.402 172.617 168.56 172 168.877 171.45C169.21 170.883 169.743 170.433 170.477 170.1C171.227 169.75 172.227 169.575 173.477 169.575H178.002V170.9H173.527C172.26 170.9 171.377 171.125 170.877 171.575C170.393 172.025 170.152 172.583 170.152 173.25C170.152 174 170.443 174.6 171.027 175.05C171.61 175.5 172.427 175.725 173.477 175.725C174.477 175.725 175.335 175.5 176.052 175.05C176.785 174.583 177.318 173.917 177.652 173.05L178.052 174.275C177.718 175.142 177.135 175.833 176.302 176.35C175.485 176.867 174.452 177.125 173.202 177.125ZM184.152 177V163.875H185.927V169.675H194.202V163.875H195.977V177H194.202V171.2H185.927V177H184.152ZM201.022 177V163.875H202.797V174.3L211.572 163.875H213.147V177H211.372V166.55L202.622 177H201.022ZM226.709 177V172.275L227.034 172.65H222.584C220.901 172.65 219.584 172.283 218.634 171.55C217.684 170.817 217.209 169.75 217.209 168.35C217.209 166.85 217.717 165.733 218.734 165C219.751 164.25 221.109 163.875 222.809 163.875H228.334V177H226.709ZM217.109 177L220.709 171.95H222.559L219.034 177H217.109ZM226.709 171.75V164.9L227.034 165.425H222.859C221.642 165.425 220.692 165.658 220.009 166.125C219.342 166.592 219.009 167.35 219.009 168.4C219.009 170.35 220.251 171.325 222.734 171.325H227.034L226.709 171.75ZM240.363 177V159.5H255.088V177H253.263V160.6L253.738 161.1H241.713L242.188 160.6V177H240.363ZM268.668 177.15C267.351 177.15 266.126 176.933 264.993 176.5C263.876 176.05 262.901 175.425 262.068 174.625C261.251 173.808 260.61 172.867 260.143 171.8C259.693 170.717 259.468 169.533 259.468 168.25C259.468 166.967 259.693 165.792 260.143 164.725C260.61 163.642 261.251 162.7 262.068 161.9C262.901 161.083 263.876 160.458 264.993 160.025C266.11 159.575 267.335 159.35 268.668 159.35C269.985 159.35 271.201 159.575 272.318 160.025C273.435 160.458 274.401 161.075 275.218 161.875C276.051 162.675 276.693 163.617 277.143 164.7C277.61 165.783 277.843 166.967 277.843 168.25C277.843 169.533 277.61 170.717 277.143 171.8C276.693 172.883 276.051 173.825 275.218 174.625C274.401 175.425 273.435 176.05 272.318 176.5C271.201 176.933 269.985 177.15 268.668 177.15ZM268.668 175.5C269.718 175.5 270.685 175.325 271.568 174.975C272.468 174.608 273.243 174.1 273.893 173.45C274.56 172.783 275.076 172.017 275.443 171.15C275.81 170.267 275.993 169.3 275.993 168.25C275.993 167.2 275.81 166.242 275.443 165.375C275.076 164.492 274.56 163.725 273.893 163.075C273.243 162.408 272.468 161.9 271.568 161.55C270.685 161.183 269.718 161 268.668 161C267.618 161 266.643 161.183 265.743 161.55C264.843 161.9 264.06 162.408 263.393 163.075C262.743 163.725 262.226 164.492 261.843 165.375C261.476 166.242 261.293 167.2 261.293 168.25C261.293 169.283 261.476 170.242 261.843 171.125C262.226 172.008 262.743 172.783 263.393 173.45C264.06 174.1 264.843 174.608 265.743 174.975C266.643 175.325 267.618 175.5 268.668 175.5ZM280.219 180.65L281.319 176.025L281.519 177.1C281.136 177.1 280.811 176.975 280.544 176.725C280.294 176.475 280.169 176.15 280.169 175.75C280.169 175.35 280.294 175.025 280.544 174.775C280.811 174.525 281.128 174.4 281.494 174.4C281.878 174.4 282.186 174.533 282.419 174.8C282.669 175.067 282.794 175.383 282.794 175.75C282.794 175.883 282.786 176.017 282.769 176.15C282.753 176.283 282.719 176.433 282.669 176.6C282.619 176.767 282.553 176.967 282.469 177.2L281.419 180.65H280.219ZM301.485 171.45C300.718 171.783 299.943 172.05 299.16 172.25C298.393 172.433 297.627 172.525 296.86 172.525C295.31 172.525 294.085 172.175 293.185 171.475C292.285 170.758 291.835 169.658 291.835 168.175V163.875H293.585V168.075C293.585 169.075 293.91 169.825 294.56 170.325C295.21 170.825 296.085 171.075 297.185 171.075C297.852 171.075 298.552 170.992 299.285 170.825C300.018 170.642 300.76 170.383 301.51 170.05L301.485 171.45ZM301.335 177V163.875H303.11V177H301.335ZM310.651 177V164.95L311.101 165.425H305.676V163.875H317.401V165.425H311.976L312.426 164.95V177H310.651ZM324.757 177.125C323.49 177.125 322.349 176.842 321.332 176.275C320.332 175.692 319.54 174.9 318.957 173.9C318.374 172.883 318.082 171.725 318.082 170.425C318.082 169.108 318.374 167.95 318.957 166.95C319.54 165.95 320.332 165.167 321.332 164.6C322.332 164.033 323.474 163.75 324.757 163.75C326.057 163.75 327.207 164.033 328.207 164.6C329.224 165.167 330.015 165.95 330.582 166.95C331.165 167.95 331.457 169.108 331.457 170.425C331.457 171.725 331.165 172.883 330.582 173.9C330.015 174.9 329.224 175.692 328.207 176.275C327.19 176.842 326.04 177.125 324.757 177.125ZM324.757 175.55C325.707 175.55 326.549 175.342 327.282 174.925C328.015 174.492 328.59 173.892 329.007 173.125C329.44 172.342 329.657 171.442 329.657 170.425C329.657 169.392 329.44 168.492 329.007 167.725C328.59 166.958 328.015 166.367 327.282 165.95C326.549 165.517 325.715 165.3 324.782 165.3C323.849 165.3 323.015 165.517 322.282 165.95C321.549 166.367 320.965 166.958 320.532 167.725C320.099 168.492 319.882 169.392 319.882 170.425C319.882 171.442 320.099 172.342 320.532 173.125C320.965 173.892 321.549 174.492 322.282 174.925C323.015 175.342 323.84 175.55 324.757 175.55ZM341.794 177V163.875H353.594V177H351.819V164.95L352.269 165.425H343.119L343.569 164.95V177H341.794ZM364.039 177.125C362.773 177.125 361.631 176.842 360.614 176.275C359.614 175.692 358.823 174.9 358.239 173.9C357.656 172.883 357.364 171.725 357.364 170.425C357.364 169.108 357.656 167.95 358.239 166.95C358.823 165.95 359.614 165.167 360.614 164.6C361.614 164.033 362.756 163.75 364.039 163.75C365.339 163.75 366.489 164.033 367.489 164.6C368.506 165.167 369.298 165.95 369.864 166.95C370.448 167.95 370.739 169.108 370.739 170.425C370.739 171.725 370.448 172.883 369.864 173.9C369.298 174.9 368.506 175.692 367.489 176.275C366.473 176.842 365.323 177.125 364.039 177.125ZM364.039 175.55C364.989 175.55 365.831 175.342 366.564 174.925C367.298 174.492 367.873 173.892 368.289 173.125C368.723 172.342 368.939 171.442 368.939 170.425C368.939 169.392 368.723 168.492 368.289 167.725C367.873 166.958 367.298 166.367 366.564 165.95C365.831 165.517 364.998 165.3 364.064 165.3C363.131 165.3 362.298 165.517 361.564 165.95C360.831 166.367 360.248 166.958 359.814 167.725C359.381 168.492 359.164 169.392 359.164 170.425C359.164 171.442 359.381 172.342 359.814 173.125C360.248 173.892 360.831 174.492 361.564 174.925C362.298 175.342 363.123 175.55 364.039 175.55ZM377.96 177.15C379.043 177.15 380.018 176.983 380.885 176.65C381.768 176.317 382.468 175.858 382.985 175.275C383.502 174.675 383.76 173.983 383.76 173.2C383.76 172.2 383.335 171.408 382.485 170.825C381.652 170.242 380.485 169.95 378.985 169.95L378.91 170.425C379.76 170.425 380.518 170.292 381.185 170.025C381.852 169.758 382.385 169.383 382.785 168.9C383.185 168.417 383.385 167.85 383.385 167.2C383.385 166.467 383.135 165.842 382.635 165.325C382.135 164.792 381.46 164.383 380.61 164.1C379.777 163.817 378.835 163.692 377.785 163.725C377.018 163.725 376.252 163.833 375.485 164.05C374.735 164.25 373.977 164.55 373.21 164.95L373.71 166.325C374.393 165.975 375.085 165.717 375.785 165.55C376.485 165.367 377.16 165.267 377.81 165.25C378.527 165.25 379.168 165.333 379.735 165.5C380.302 165.667 380.743 165.917 381.06 166.25C381.393 166.583 381.56 166.983 381.56 167.45C381.56 167.883 381.418 168.258 381.135 168.575C380.868 168.892 380.485 169.133 379.985 169.3C379.485 169.467 378.91 169.55 378.26 169.55H376.135V170.85H378.385C379.485 170.85 380.352 171.05 380.985 171.45C381.618 171.833 381.935 172.375 381.935 173.075C381.935 173.558 381.768 173.992 381.435 174.375C381.102 174.758 380.635 175.058 380.035 175.275C379.435 175.492 378.727 175.608 377.91 175.625C377.093 175.625 376.268 175.508 375.435 175.275C374.602 175.025 373.868 174.667 373.235 174.2L372.66 175.525C373.377 176.075 374.202 176.483 375.135 176.75C376.068 177.017 377.01 177.15 377.96 177.15ZM387.79 177V163.875H393.59C395.073 163.875 396.24 164.158 397.09 164.725C397.956 165.292 398.39 166.125 398.39 167.225C398.39 168.292 397.981 169.117 397.165 169.7C396.348 170.267 395.273 170.55 393.94 170.55L394.29 170.025C395.856 170.025 397.006 170.317 397.74 170.9C398.473 171.483 398.84 172.325 398.84 173.425C398.84 174.558 398.423 175.442 397.59 176.075C396.773 176.692 395.498 177 393.765 177H387.79ZM389.515 175.6H393.69C394.806 175.6 395.648 175.425 396.215 175.075C396.798 174.708 397.09 174.125 397.09 173.325C397.09 172.525 396.831 171.942 396.315 171.575C395.798 171.208 394.981 171.025 393.865 171.025H389.515V175.6ZM389.515 169.7H393.465C394.481 169.7 395.256 169.508 395.79 169.125C396.34 168.742 396.615 168.183 396.615 167.45C396.615 166.717 396.34 166.167 395.79 165.8C395.256 165.433 394.481 165.25 393.465 165.25H389.515V169.7ZM408.4 177.125C407.133 177.125 405.991 176.842 404.975 176.275C403.975 175.692 403.183 174.9 402.6 173.9C402.016 172.883 401.725 171.725 401.725 170.425C401.725 169.108 402.016 167.95 402.6 166.95C403.183 165.95 403.975 165.167 404.975 164.6C405.975 164.033 407.116 163.75 408.4 163.75C409.7 163.75 410.85 164.033 411.85 164.6C412.866 165.167 413.658 165.95 414.225 166.95C414.808 167.95 415.1 169.108 415.1 170.425C415.1 171.725 414.808 172.883 414.225 173.9C413.658 174.9 412.866 175.692 411.85 176.275C410.833 176.842 409.683 177.125 408.4 177.125ZM408.4 175.55C409.35 175.55 410.191 175.342 410.925 174.925C411.658 174.492 412.233 173.892 412.65 173.125C413.083 172.342 413.3 171.442 413.3 170.425C413.3 169.392 413.083 168.492 412.65 167.725C412.233 166.958 411.658 166.367 410.925 165.95C410.191 165.517 409.358 165.3 408.425 165.3C407.491 165.3 406.658 165.517 405.925 165.95C405.191 166.367 404.608 166.958 404.175 167.725C403.741 168.492 403.525 169.392 403.525 170.425C403.525 171.442 403.741 172.342 404.175 173.125C404.608 173.892 405.191 174.492 405.925 174.925C406.658 175.342 407.483 175.55 408.4 175.55ZM416.42 176.975L416.545 175.45C416.662 175.467 416.77 175.492 416.87 175.525C416.987 175.542 417.087 175.55 417.17 175.55C417.703 175.55 418.128 175.35 418.445 174.95C418.778 174.55 419.028 174.017 419.195 173.35C419.362 172.683 419.478 171.933 419.545 171.1C419.612 170.25 419.67 169.4 419.72 168.55L419.945 163.875H429.57V177H427.795V164.9L428.245 165.425H421.095L421.52 164.875L421.32 168.675C421.27 169.808 421.178 170.892 421.045 171.925C420.928 172.958 420.737 173.867 420.47 174.65C420.22 175.433 419.87 176.05 419.42 176.5C418.97 176.933 418.395 177.15 417.695 177.15C417.495 177.15 417.287 177.133 417.07 177.1C416.87 177.067 416.653 177.025 416.42 176.975ZM434.616 177V163.875H436.391V174.3L445.166 163.875H446.741V177H444.966V166.55L436.216 177H434.616ZM454.328 177V164.95L454.778 165.425H449.353V163.875H461.078V165.425H455.653L456.103 164.95V177H454.328ZM470.187 177V163.875H475.987C477.47 163.875 478.637 164.158 479.487 164.725C480.354 165.292 480.787 166.125 480.787 167.225C480.787 168.292 480.379 169.117 479.562 169.7C478.745 170.267 477.67 170.55 476.337 170.55L476.687 170.025C478.254 170.025 479.404 170.317 480.137 170.9C480.87 171.483 481.237 172.325 481.237 173.425C481.237 174.558 480.82 175.442 479.987 176.075C479.17 176.692 477.895 177 476.162 177H470.187ZM471.912 175.6H476.087C477.204 175.6 478.045 175.425 478.612 175.075C479.195 174.708 479.487 174.125 479.487 173.325C479.487 172.525 479.229 171.942 478.712 171.575C478.195 171.208 477.379 171.025 476.262 171.025H471.912V175.6ZM471.912 169.7H475.862C476.879 169.7 477.654 169.508 478.187 169.125C478.737 168.742 479.012 168.183 479.012 167.45C479.012 166.717 478.737 166.167 478.187 165.8C477.654 165.433 476.879 165.25 475.862 165.25H471.912V169.7ZM493.547 177V174.1L493.472 173.625V168.775C493.472 167.658 493.155 166.8 492.522 166.2C491.905 165.6 490.98 165.3 489.747 165.3C488.897 165.3 488.089 165.442 487.322 165.725C486.555 166.008 485.905 166.383 485.372 166.85L484.572 165.525C485.239 164.958 486.039 164.525 486.972 164.225C487.905 163.908 488.889 163.75 489.922 163.75C491.622 163.75 492.93 164.175 493.847 165.025C494.78 165.858 495.247 167.133 495.247 168.85V177H493.547ZM489.022 177.125C488.039 177.125 487.18 176.967 486.447 176.65C485.73 176.317 485.18 175.867 484.797 175.3C484.414 174.717 484.222 174.05 484.222 173.3C484.222 172.617 484.38 172 484.697 171.45C485.03 170.883 485.564 170.433 486.297 170.1C487.047 169.75 488.047 169.575 489.297 169.575H493.822V170.9H489.347C488.08 170.9 487.197 171.125 486.697 171.575C486.214 172.025 485.972 172.583 485.972 173.25C485.972 174 486.264 174.6 486.847 175.05C487.43 175.5 488.247 175.725 489.297 175.725C490.297 175.725 491.155 175.5 491.872 175.05C492.605 174.583 493.139 173.917 493.472 173.05L493.872 174.275C493.539 175.142 492.955 175.833 492.122 176.35C491.305 176.867 490.272 177.125 489.022 177.125ZM499.972 177V163.875H501.772L507.722 173.95H506.972L513.022 163.875H514.672V177H513.047V165.9L513.372 166.05L507.722 175.4H506.922L501.222 165.95L501.597 165.875V177H499.972ZM41.525 208V194.875H43.3V205.3L52.075 194.875H53.65V208H51.875V197.55L43.125 208H41.525ZM64.2369 208.125C62.9369 208.125 61.7702 207.842 60.7369 207.275C59.7202 206.692 58.9202 205.9 58.3369 204.9C57.7536 203.883 57.4619 202.725 57.4619 201.425C57.4619 200.108 57.7536 198.95 58.3369 197.95C58.9202 196.95 59.7202 196.167 60.7369 195.6C61.7702 195.033 62.9369 194.75 64.2369 194.75C65.3536 194.75 66.3619 194.967 67.2619 195.4C68.1619 195.833 68.8702 196.483 69.3869 197.35L68.0619 198.25C67.6119 197.583 67.0536 197.092 66.3869 196.775C65.7202 196.458 64.9952 196.3 64.2119 196.3C63.2786 196.3 62.4369 196.517 61.6869 196.95C60.9369 197.367 60.3452 197.958 59.9119 198.725C59.4786 199.492 59.2619 200.392 59.2619 201.425C59.2619 202.458 59.4786 203.358 59.9119 204.125C60.3452 204.892 60.9369 205.492 61.6869 205.925C62.4369 206.342 63.2786 206.55 64.2119 206.55C64.9952 206.55 65.7202 206.392 66.3869 206.075C67.0536 205.758 67.6119 205.275 68.0619 204.625L69.3869 205.525C68.8702 206.375 68.1619 207.025 67.2619 207.475C66.3619 207.908 65.3536 208.125 64.2369 208.125ZM72.8238 208V194.875H84.6238V208H82.8488V195.95L83.2988 196.425H74.1488L74.5988 195.95V208H72.8238ZM95.0695 208.125C93.8029 208.125 92.6612 207.842 91.6445 207.275C90.6445 206.692 89.8529 205.9 89.2695 204.9C88.6862 203.883 88.3945 202.725 88.3945 201.425C88.3945 200.108 88.6862 198.95 89.2695 197.95C89.8529 196.95 90.6445 196.167 91.6445 195.6C92.6445 195.033 93.7862 194.75 95.0695 194.75C96.3695 194.75 97.5195 195.033 98.5195 195.6C99.5362 196.167 100.328 196.95 100.895 197.95C101.478 198.95 101.77 200.108 101.77 201.425C101.77 202.725 101.478 203.883 100.895 204.9C100.328 205.9 99.5362 206.692 98.5195 207.275C97.5029 207.842 96.3529 208.125 95.0695 208.125ZM95.0695 206.55C96.0195 206.55 96.8612 206.342 97.5945 205.925C98.3279 205.492 98.9029 204.892 99.3195 204.125C99.7529 203.342 99.9695 202.442 99.9695 201.425C99.9695 200.392 99.7529 199.492 99.3195 198.725C98.9029 197.958 98.3279 197.367 97.5945 196.95C96.8612 196.517 96.0279 196.3 95.0945 196.3C94.1612 196.3 93.3279 196.517 92.5945 196.95C91.8612 197.367 91.2779 197.958 90.8445 198.725C90.4112 199.492 90.1945 200.392 90.1945 201.425C90.1945 202.442 90.4112 203.342 90.8445 204.125C91.2779 204.892 91.8612 205.492 92.5945 205.925C93.3279 206.342 94.1529 206.55 95.0695 206.55ZM103.09 207.975L103.215 206.45C103.332 206.467 103.44 206.492 103.54 206.525C103.657 206.542 103.757 206.55 103.84 206.55C104.373 206.55 104.798 206.35 105.115 205.95C105.448 205.55 105.698 205.017 105.865 204.35C106.032 203.683 106.148 202.933 106.215 202.1C106.282 201.25 106.34 200.4 106.39 199.55L106.615 194.875H116.24V208H114.465V195.9L114.915 196.425H107.765L108.19 195.875L107.99 199.675C107.94 200.808 107.848 201.892 107.715 202.925C107.598 203.958 107.407 204.867 107.14 205.65C106.89 206.433 106.54 207.05 106.09 207.5C105.64 207.933 105.065 208.15 104.365 208.15C104.165 208.15 103.957 208.133 103.74 208.1C103.54 208.067 103.323 208.025 103.09 207.975ZM126.936 199.5C128.586 199.517 129.836 199.883 130.686 200.6C131.552 201.317 131.986 202.35 131.986 203.7C131.986 205.1 131.519 206.175 130.586 206.925C129.669 207.675 128.336 208.042 126.586 208.025L121.286 208V194.875H123.061V199.45L126.936 199.5ZM126.486 206.675C127.702 206.692 128.619 206.45 129.236 205.95C129.869 205.433 130.186 204.683 130.186 203.7C130.186 202.717 129.877 202 129.261 201.55C128.644 201.083 127.719 200.842 126.486 200.825L123.061 200.775V206.625L126.486 206.675ZM138.776 208.15C139.859 208.15 140.834 207.983 141.701 207.65C142.584 207.317 143.284 206.858 143.801 206.275C144.317 205.675 144.576 204.983 144.576 204.2C144.576 203.2 144.151 202.408 143.301 201.825C142.467 201.242 141.301 200.95 139.801 200.95L139.726 201.425C140.576 201.425 141.334 201.292 142.001 201.025C142.667 200.758 143.201 200.383 143.601 199.9C144.001 199.417 144.201 198.85 144.201 198.2C144.201 197.467 143.951 196.842 143.451 196.325C142.951 195.792 142.276 195.383 141.426 195.1C140.592 194.817 139.651 194.692 138.601 194.725C137.834 194.725 137.067 194.833 136.301 195.05C135.551 195.25 134.792 195.55 134.026 195.95L134.526 197.325C135.209 196.975 135.901 196.717 136.601 196.55C137.301 196.367 137.976 196.267 138.626 196.25C139.342 196.25 139.984 196.333 140.551 196.5C141.117 196.667 141.559 196.917 141.876 197.25C142.209 197.583 142.376 197.983 142.376 198.45C142.376 198.883 142.234 199.258 141.951 199.575C141.684 199.892 141.301 200.133 140.801 200.3C140.301 200.467 139.726 200.55 139.076 200.55H136.951V201.85H139.201C140.301 201.85 141.167 202.05 141.801 202.45C142.434 202.833 142.751 203.375 142.751 204.075C142.751 204.558 142.584 204.992 142.251 205.375C141.917 205.758 141.451 206.058 140.851 206.275C140.251 206.492 139.542 206.608 138.726 206.625C137.909 206.625 137.084 206.508 136.251 206.275C135.417 206.025 134.684 205.667 134.051 205.2L133.476 206.525C134.192 207.075 135.017 207.483 135.951 207.75C136.884 208.017 137.826 208.15 138.776 208.15ZM154.005 208.125C152.738 208.125 151.597 207.842 150.58 207.275C149.58 206.692 148.788 205.9 148.205 204.9C147.622 203.883 147.33 202.725 147.33 201.425C147.33 200.108 147.622 198.95 148.205 197.95C148.788 196.95 149.58 196.167 150.58 195.6C151.58 195.033 152.722 194.75 154.005 194.75C155.305 194.75 156.455 195.033 157.455 195.6C158.472 196.167 159.263 196.95 159.83 197.95C160.413 198.95 160.705 200.108 160.705 201.425C160.705 202.725 160.413 203.883 159.83 204.9C159.263 205.9 158.472 206.692 157.455 207.275C156.438 207.842 155.288 208.125 154.005 208.125ZM154.005 206.55C154.955 206.55 155.797 206.342 156.53 205.925C157.263 205.492 157.838 204.892 158.255 204.125C158.688 203.342 158.905 202.442 158.905 201.425C158.905 200.392 158.688 199.492 158.255 198.725C157.838 197.958 157.263 197.367 156.53 196.95C155.797 196.517 154.963 196.3 154.03 196.3C153.097 196.3 152.263 196.517 151.53 196.95C150.797 197.367 150.213 197.958 149.78 198.725C149.347 199.492 149.13 200.392 149.13 201.425C149.13 202.442 149.347 203.342 149.78 204.125C150.213 204.892 150.797 205.492 151.53 205.925C152.263 206.342 153.088 206.55 154.005 206.55ZM164.499 208V194.875H170.299C171.782 194.875 172.949 195.158 173.799 195.725C174.665 196.292 175.099 197.125 175.099 198.225C175.099 199.292 174.69 200.117 173.874 200.7C173.057 201.267 171.982 201.55 170.649 201.55L170.999 201.025C172.565 201.025 173.715 201.317 174.449 201.9C175.182 202.483 175.549 203.325 175.549 204.425C175.549 205.558 175.132 206.442 174.299 207.075C173.482 207.692 172.207 208 170.474 208H164.499ZM166.224 206.6H170.399C171.515 206.6 172.357 206.425 172.924 206.075C173.507 205.708 173.799 205.125 173.799 204.325C173.799 203.525 173.54 202.942 173.024 202.575C172.507 202.208 171.69 202.025 170.574 202.025H166.224V206.6ZM166.224 200.7H170.174C171.19 200.7 171.965 200.508 172.499 200.125C173.049 199.742 173.324 199.183 173.324 198.45C173.324 197.717 173.049 197.167 172.499 196.8C171.965 196.433 171.19 196.25 170.174 196.25H166.224V200.7ZM187.859 208V205.1L187.784 204.625V199.775C187.784 198.658 187.467 197.8 186.834 197.2C186.217 196.6 185.292 196.3 184.059 196.3C183.209 196.3 182.4 196.442 181.634 196.725C180.867 197.008 180.217 197.383 179.684 197.85L178.884 196.525C179.55 195.958 180.35 195.525 181.284 195.225C182.217 194.908 183.2 194.75 184.234 194.75C185.934 194.75 187.242 195.175 188.159 196.025C189.092 196.858 189.559 198.133 189.559 199.85V208H187.859ZM183.334 208.125C182.35 208.125 181.492 207.967 180.759 207.65C180.042 207.317 179.492 206.867 179.109 206.3C178.725 205.717 178.534 205.05 178.534 204.3C178.534 203.617 178.692 203 179.009 202.45C179.342 201.883 179.875 201.433 180.609 201.1C181.359 200.75 182.359 200.575 183.609 200.575H188.134V201.9H183.659C182.392 201.9 181.509 202.125 181.009 202.575C180.525 203.025 180.284 203.583 180.284 204.25C180.284 205 180.575 205.6 181.159 206.05C181.742 206.5 182.559 206.725 183.609 206.725C184.609 206.725 185.467 206.5 186.184 206.05C186.917 205.583 187.45 204.917 187.784 204.05L188.184 205.275C187.85 206.142 187.267 206.833 186.434 207.35C185.617 207.867 184.584 208.125 183.334 208.125ZM196.784 208V195.95L197.234 196.425H191.809V194.875H203.534V196.425H198.109L198.559 195.95V208H196.784ZM211.75 199.5C213.4 199.517 214.65 199.883 215.5 200.6C216.367 201.317 216.8 202.35 216.8 203.7C216.8 205.1 216.334 206.175 215.4 206.925C214.484 207.675 213.15 208.042 211.4 208.025L206.1 208V194.875H207.875V199.45L211.75 199.5ZM211.3 206.675C212.517 206.692 213.434 206.45 214.05 205.95C214.684 205.433 215 204.683 215 203.7C215 202.717 214.692 202 214.075 201.55C213.459 201.083 212.534 200.842 211.3 200.825L207.875 200.775V206.625L211.3 206.675ZM232.23 208.125C230.93 208.125 229.763 207.842 228.73 207.275C227.713 206.692 226.913 205.9 226.33 204.9C225.747 203.883 225.455 202.725 225.455 201.425C225.455 200.108 225.747 198.95 226.33 197.95C226.913 196.95 227.713 196.167 228.73 195.6C229.763 195.033 230.93 194.75 232.23 194.75C233.347 194.75 234.355 194.967 235.255 195.4C236.155 195.833 236.863 196.483 237.38 197.35L236.055 198.25C235.605 197.583 235.047 197.092 234.38 196.775C233.713 196.458 232.988 196.3 232.205 196.3C231.272 196.3 230.43 196.517 229.68 196.95C228.93 197.367 228.338 197.958 227.905 198.725C227.472 199.492 227.255 200.392 227.255 201.425C227.255 202.458 227.472 203.358 227.905 204.125C228.338 204.892 228.93 205.492 229.68 205.925C230.43 206.342 231.272 206.55 232.205 206.55C232.988 206.55 233.713 206.392 234.38 206.075C235.047 205.758 235.605 205.275 236.055 204.625L237.38 205.525C236.863 206.375 236.155 207.025 235.255 207.475C234.355 207.908 233.347 208.125 232.23 208.125ZM240.817 208V194.875H246.617C248.1 194.875 249.267 195.158 250.117 195.725C250.984 196.292 251.417 197.125 251.417 198.225C251.417 199.292 251.009 200.117 250.192 200.7C249.375 201.267 248.3 201.55 246.967 201.55L247.317 201.025C248.884 201.025 250.034 201.317 250.767 201.9C251.5 202.483 251.867 203.325 251.867 204.425C251.867 205.558 251.45 206.442 250.617 207.075C249.8 207.692 248.525 208 246.792 208H240.817ZM242.542 206.6H246.717C247.834 206.6 248.675 206.425 249.242 206.075C249.825 205.708 250.117 205.125 250.117 204.325C250.117 203.525 249.859 202.942 249.342 202.575C248.825 202.208 248.009 202.025 246.892 202.025H242.542V206.6ZM242.542 200.7H246.492C247.509 200.7 248.284 200.508 248.817 200.125C249.367 199.742 249.642 199.183 249.642 198.45C249.642 197.717 249.367 197.167 248.817 196.8C248.284 196.433 247.509 196.25 246.492 196.25H242.542V200.7ZM261.427 208.125C260.16 208.125 259.019 207.842 258.002 207.275C257.002 206.692 256.21 205.9 255.627 204.9C255.044 203.883 254.752 202.725 254.752 201.425C254.752 200.108 255.044 198.95 255.627 197.95C256.21 196.95 257.002 196.167 258.002 195.6C259.002 195.033 260.144 194.75 261.427 194.75C262.727 194.75 263.877 195.033 264.877 195.6C265.894 196.167 266.685 196.95 267.252 197.95C267.835 198.95 268.127 200.108 268.127 201.425C268.127 202.725 267.835 203.883 267.252 204.9C266.685 205.9 265.894 206.692 264.877 207.275C263.86 207.842 262.71 208.125 261.427 208.125ZM261.427 206.55C262.377 206.55 263.219 206.342 263.952 205.925C264.685 205.492 265.26 204.892 265.677 204.125C266.11 203.342 266.327 202.442 266.327 201.425C266.327 200.392 266.11 199.492 265.677 198.725C265.26 197.958 264.685 197.367 263.952 196.95C263.219 196.517 262.385 196.3 261.452 196.3C260.519 196.3 259.685 196.517 258.952 196.95C258.219 197.367 257.635 197.958 257.202 198.725C256.769 199.492 256.552 200.392 256.552 201.425C256.552 202.442 256.769 203.342 257.202 204.125C257.635 204.892 258.219 205.492 258.952 205.925C259.685 206.342 260.51 206.55 261.427 206.55ZM277.546 208.125C276.179 208.125 274.979 207.842 273.946 207.275C272.912 206.692 272.104 205.9 271.521 204.9C270.937 203.883 270.646 202.725 270.646 201.425C270.646 200.125 270.921 198.975 271.471 197.975C272.037 196.975 272.804 196.192 273.771 195.625C274.754 195.042 275.854 194.75 277.071 194.75C278.304 194.75 279.396 195.033 280.346 195.6C281.312 196.15 282.071 196.933 282.621 197.95C283.171 198.95 283.446 200.108 283.446 201.425C283.446 201.508 283.437 201.6 283.421 201.7C283.421 201.783 283.421 201.875 283.421 201.975H271.996V200.65H282.471L281.771 201.175C281.771 200.225 281.562 199.383 281.146 198.65C280.746 197.9 280.196 197.317 279.496 196.9C278.796 196.483 277.987 196.275 277.071 196.275C276.171 196.275 275.362 196.483 274.646 196.9C273.929 197.317 273.371 197.9 272.971 198.65C272.571 199.4 272.371 200.258 272.371 201.225V201.5C272.371 202.5 272.587 203.383 273.021 204.15C273.471 204.9 274.087 205.492 274.871 205.925C275.671 206.342 276.579 206.55 277.596 206.55C278.396 206.55 279.137 206.408 279.821 206.125C280.521 205.842 281.121 205.408 281.621 204.825L282.621 205.975C282.037 206.675 281.304 207.208 280.421 207.575C279.554 207.942 278.596 208.125 277.546 208.125ZM293.918 208V194.875H299.718C301.201 194.875 302.368 195.158 303.218 195.725C304.084 196.292 304.518 197.125 304.518 198.225C304.518 199.292 304.109 200.117 303.293 200.7C302.476 201.267 301.401 201.55 300.068 201.55L300.418 201.025C301.984 201.025 303.134 201.317 303.868 201.9C304.601 202.483 304.968 203.325 304.968 204.425C304.968 205.558 304.551 206.442 303.718 207.075C302.901 207.692 301.626 208 299.893 208H293.918ZM295.643 206.6H299.818C300.934 206.6 301.776 206.425 302.343 206.075C302.926 205.708 303.218 205.125 303.218 204.325C303.218 203.525 302.959 202.942 302.443 202.575C301.926 202.208 301.109 202.025 299.993 202.025H295.643V206.6ZM295.643 200.7H299.593C300.609 200.7 301.384 200.508 301.918 200.125C302.468 199.742 302.743 199.183 302.743 198.45C302.743 197.717 302.468 197.167 301.918 196.8C301.384 196.433 300.609 196.25 299.593 196.25H295.643V200.7ZM315.903 208.125C314.769 208.125 313.744 207.867 312.828 207.35C311.911 206.817 311.178 206.058 310.628 205.075C310.094 204.075 309.828 202.858 309.828 201.425C309.828 199.992 310.094 198.783 310.628 197.8C311.161 196.8 311.886 196.042 312.803 195.525C313.719 195.008 314.753 194.75 315.903 194.75C317.153 194.75 318.269 195.033 319.253 195.6C320.253 196.15 321.036 196.933 321.603 197.95C322.169 198.95 322.453 200.108 322.453 201.425C322.453 202.758 322.169 203.925 321.603 204.925C321.036 205.925 320.253 206.708 319.253 207.275C318.269 207.842 317.153 208.125 315.903 208.125ZM309.128 212.85V194.875H310.828V198.825L310.653 201.45L310.903 204.1V212.85H309.128ZM315.778 206.55C316.711 206.55 317.544 206.342 318.278 205.925C319.011 205.492 319.594 204.892 320.028 204.125C320.461 203.342 320.678 202.442 320.678 201.425C320.678 200.408 320.461 199.517 320.028 198.75C319.594 197.983 319.011 197.383 318.278 196.95C317.544 196.517 316.711 196.3 315.778 196.3C314.844 196.3 314.003 196.517 313.253 196.95C312.519 197.383 311.936 197.983 311.503 198.75C311.086 199.517 310.878 200.408 310.878 201.425C310.878 202.442 311.086 203.342 311.503 204.125C311.936 204.892 312.519 205.492 313.253 205.925C314.003 206.342 314.844 206.55 315.778 206.55ZM331.891 208.125C330.525 208.125 329.325 207.842 328.291 207.275C327.258 206.692 326.45 205.9 325.866 204.9C325.283 203.883 324.991 202.725 324.991 201.425C324.991 200.125 325.266 198.975 325.816 197.975C326.383 196.975 327.15 196.192 328.116 195.625C329.1 195.042 330.2 194.75 331.416 194.75C332.65 194.75 333.741 195.033 334.691 195.6C335.658 196.15 336.416 196.933 336.966 197.95C337.516 198.95 337.791 200.108 337.791 201.425C337.791 201.508 337.783 201.6 337.766 201.7C337.766 201.783 337.766 201.875 337.766 201.975H326.341V200.65H336.816L336.116 201.175C336.116 200.225 335.908 199.383 335.491 198.65C335.091 197.9 334.541 197.317 333.841 196.9C333.141 196.483 332.333 196.275 331.416 196.275C330.516 196.275 329.708 196.483 328.991 196.9C328.275 197.317 327.716 197.9 327.316 198.65C326.916 199.4 326.716 200.258 326.716 201.225V201.5C326.716 202.5 326.933 203.383 327.366 204.15C327.816 204.9 328.433 205.492 329.216 205.925C330.016 206.342 330.925 206.55 331.941 206.55C332.741 206.55 333.483 206.408 334.166 206.125C334.866 205.842 335.466 205.408 335.966 204.825L336.966 205.975C336.383 206.675 335.65 207.208 334.766 207.575C333.9 207.942 332.941 208.125 331.891 208.125ZM341.72 208V194.875H343.52L349.47 204.95H348.72L354.77 194.875H356.42V208H354.795V196.9L355.12 197.05L349.47 206.4H348.67L342.97 196.95L343.345 196.875V208H341.72ZM369.946 208V203.275L370.271 203.65H365.821C364.138 203.65 362.821 203.283 361.871 202.55C360.921 201.817 360.446 200.75 360.446 199.35C360.446 197.85 360.955 196.733 361.971 196C362.988 195.25 364.346 194.875 366.046 194.875H371.571V208H369.946ZM360.346 208L363.946 202.95H365.796L362.271 208H360.346ZM369.946 202.75V195.9L370.271 196.425H366.096C364.88 196.425 363.93 196.658 363.246 197.125C362.58 197.592 362.246 198.35 362.246 199.4C362.246 201.35 363.488 202.325 365.971 202.325H370.271L369.946 202.75ZM383.175 208V194.875H384.95V200.675H393.225V194.875H395V208H393.225V202.2H384.95V208H383.175ZM408.196 208V205.1L408.121 204.625V199.775C408.121 198.658 407.804 197.8 407.171 197.2C406.554 196.6 405.629 196.3 404.396 196.3C403.546 196.3 402.737 196.442 401.971 196.725C401.204 197.008 400.554 197.383 400.021 197.85L399.221 196.525C399.887 195.958 400.687 195.525 401.621 195.225C402.554 194.908 403.537 194.75 404.571 194.75C406.271 194.75 407.579 195.175 408.496 196.025C409.429 196.858 409.896 198.133 409.896 199.85V208H408.196ZM403.671 208.125C402.687 208.125 401.829 207.967 401.096 207.65C400.379 207.317 399.829 206.867 399.446 206.3C399.062 205.717 398.871 205.05 398.871 204.3C398.871 203.617 399.029 203 399.346 202.45C399.679 201.883 400.212 201.433 400.946 201.1C401.696 200.75 402.696 200.575 403.946 200.575H408.471V201.9H403.996C402.729 201.9 401.846 202.125 401.346 202.575C400.862 203.025 400.621 203.583 400.621 204.25C400.621 205 400.912 205.6 401.496 206.05C402.079 206.5 402.896 206.725 403.946 206.725C404.946 206.725 405.804 206.5 406.521 206.05C407.254 205.583 407.787 204.917 408.121 204.05L408.521 205.275C408.187 206.142 407.604 206.833 406.771 207.35C405.954 207.867 404.921 208.125 403.671 208.125ZM429.464 202.45C428.697 202.783 427.922 203.05 427.139 203.25C426.372 203.433 425.605 203.525 424.839 203.525C423.289 203.525 422.064 203.175 421.164 202.475C420.264 201.758 419.814 200.658 419.814 199.175V194.875H421.564V199.075C421.564 200.075 421.889 200.825 422.539 201.325C423.189 201.825 424.064 202.075 425.164 202.075C425.83 202.075 426.53 201.992 427.264 201.825C427.997 201.642 428.739 201.383 429.489 201.05L429.464 202.45ZM429.314 208V194.875H431.089V208H429.314ZM438.629 208V195.95L439.079 196.425H433.654V194.875H445.379V196.425H439.954L440.404 195.95V208H438.629ZM452.736 208.125C451.469 208.125 450.327 207.842 449.311 207.275C448.311 206.692 447.519 205.9 446.936 204.9C446.352 203.883 446.061 202.725 446.061 201.425C446.061 200.108 446.352 198.95 446.936 197.95C447.519 196.95 448.311 196.167 449.311 195.6C450.311 195.033 451.452 194.75 452.736 194.75C454.036 194.75 455.186 195.033 456.186 195.6C457.202 196.167 457.994 196.95 458.561 197.95C459.144 198.95 459.436 200.108 459.436 201.425C459.436 202.725 459.144 203.883 458.561 204.9C457.994 205.9 457.202 206.692 456.186 207.275C455.169 207.842 454.019 208.125 452.736 208.125ZM452.736 206.55C453.686 206.55 454.527 206.342 455.261 205.925C455.994 205.492 456.569 204.892 456.986 204.125C457.419 203.342 457.636 202.442 457.636 201.425C457.636 200.392 457.419 199.492 456.986 198.725C456.569 197.958 455.994 197.367 455.261 196.95C454.527 196.517 453.694 196.3 452.761 196.3C451.827 196.3 450.994 196.517 450.261 196.95C449.527 197.367 448.944 197.958 448.511 198.725C448.077 199.492 447.861 200.392 447.861 201.425C447.861 202.442 448.077 203.342 448.511 204.125C448.944 204.892 449.527 205.492 450.261 205.925C450.994 206.342 451.819 206.55 452.736 206.55ZM462.448 202V200.45H468.998V202H462.448ZM474.958 208V195.95L475.408 196.425H469.983V194.875H481.708V196.425H476.283L476.733 195.95V208H474.958ZM489.064 208.125C487.797 208.125 486.655 207.842 485.639 207.275C484.639 206.692 483.847 205.9 483.264 204.9C482.68 203.883 482.389 202.725 482.389 201.425C482.389 200.108 482.68 198.95 483.264 197.95C483.847 196.95 484.639 196.167 485.639 195.6C486.639 195.033 487.78 194.75 489.064 194.75C490.364 194.75 491.514 195.033 492.514 195.6C493.53 196.167 494.322 196.95 494.889 197.95C495.472 198.95 495.764 200.108 495.764 201.425C495.764 202.725 495.472 203.883 494.889 204.9C494.322 205.9 493.53 206.692 492.514 207.275C491.497 207.842 490.347 208.125 489.064 208.125ZM489.064 206.55C490.014 206.55 490.855 206.342 491.589 205.925C492.322 205.492 492.897 204.892 493.314 204.125C493.747 203.342 493.964 202.442 493.964 201.425C493.964 200.392 493.747 199.492 493.314 198.725C492.897 197.958 492.322 197.367 491.589 196.95C490.855 196.517 490.022 196.3 489.089 196.3C488.155 196.3 487.322 196.517 486.589 196.95C485.855 197.367 485.272 197.958 484.839 198.725C484.405 199.492 484.189 200.392 484.189 201.425C484.189 202.442 484.405 203.342 484.839 204.125C485.272 204.892 485.855 205.492 486.589 205.925C487.322 206.342 488.147 206.55 489.064 206.55ZM50.525 238.15V227.425H44.2L44.05 230.35C44.0167 231.233 43.9583 232.1 43.875 232.95C43.8083 233.8 43.6833 234.583 43.5 235.3C43.3333 236 43.0917 236.575 42.775 237.025C42.4583 237.458 42.05 237.708 41.55 237.775L39.775 237.45C40.2917 237.467 40.7167 237.283 41.05 236.9C41.3833 236.5 41.6417 235.958 41.825 235.275C42.0083 234.592 42.1417 233.817 42.225 232.95C42.3083 232.067 42.375 231.167 42.425 230.25L42.6 225.875H52.3V238.15H50.525ZM39.225 242.175V237.45H54.35V242.175H52.675V239H40.9V242.175H39.225ZM64.5842 239.125C63.4508 239.125 62.4258 238.867 61.5092 238.35C60.5925 237.817 59.8592 237.058 59.3092 236.075C58.7758 235.075 58.5092 233.858 58.5092 232.425C58.5092 230.992 58.7758 229.783 59.3092 228.8C59.8425 227.8 60.5675 227.042 61.4842 226.525C62.4008 226.008 63.4342 225.75 64.5842 225.75C65.8342 225.75 66.9508 226.033 67.9342 226.6C68.9342 227.15 69.7175 227.933 70.2842 228.95C70.8508 229.95 71.1342 231.108 71.1342 232.425C71.1342 233.758 70.8508 234.925 70.2842 235.925C69.7175 236.925 68.9342 237.708 67.9342 238.275C66.9508 238.842 65.8342 239.125 64.5842 239.125ZM57.8092 243.85V225.875H59.5092V229.825L59.3342 232.45L59.5842 235.1V243.85H57.8092ZM64.4592 237.55C65.3925 237.55 66.2258 237.342 66.9592 236.925C67.6925 236.492 68.2758 235.892 68.7092 235.125C69.1425 234.342 69.3592 233.442 69.3592 232.425C69.3592 231.408 69.1425 230.517 68.7092 229.75C68.2758 228.983 67.6925 228.383 66.9592 227.95C66.2258 227.517 65.3925 227.3 64.4592 227.3C63.5258 227.3 62.6842 227.517 61.9342 227.95C61.2008 228.383 60.6175 228.983 60.1842 229.75C59.7675 230.517 59.5592 231.408 59.5592 232.425C59.5592 233.442 59.7675 234.342 60.1842 235.125C60.6175 235.892 61.2008 236.492 61.9342 236.925C62.6842 237.342 63.5258 237.55 64.4592 237.55ZM74.8066 243.975C74.19 243.975 73.5983 243.875 73.0316 243.675C72.4816 243.475 72.0066 243.175 71.6066 242.775L72.4316 241.45C72.765 241.767 73.1233 242.008 73.5066 242.175C73.9066 242.358 74.3483 242.45 74.8316 242.45C75.415 242.45 75.915 242.283 76.3316 241.95C76.765 241.633 77.1733 241.067 77.5566 240.25L78.4066 238.325L78.6066 238.05L84.0066 225.875H85.7566L79.1816 240.575C78.815 241.425 78.4066 242.1 77.9566 242.6C77.5233 243.1 77.0483 243.45 76.5316 243.65C76.015 243.867 75.44 243.975 74.8066 243.975ZM78.3066 239.375L72.2566 225.875H74.1066L79.4566 237.925L78.3066 239.375ZM88.5221 239V225.875H97.8221V227.425H89.8471L90.2971 226.975V239H88.5221ZM105.177 239.125C103.91 239.125 102.769 238.842 101.752 238.275C100.752 237.692 99.9603 236.9 99.377 235.9C98.7936 234.883 98.502 233.725 98.502 232.425C98.502 231.108 98.7936 229.95 99.377 228.95C99.9603 227.95 100.752 227.167 101.752 226.6C102.752 226.033 103.894 225.75 105.177 225.75C106.477 225.75 107.627 226.033 108.627 226.6C109.644 227.167 110.435 227.95 111.002 228.95C111.585 229.95 111.877 231.108 111.877 232.425C111.877 233.725 111.585 234.883 111.002 235.9C110.435 236.9 109.644 237.692 108.627 238.275C107.61 238.842 106.46 239.125 105.177 239.125ZM105.177 237.55C106.127 237.55 106.969 237.342 107.702 236.925C108.435 236.492 109.01 235.892 109.427 235.125C109.86 234.342 110.077 233.442 110.077 232.425C110.077 231.392 109.86 230.492 109.427 229.725C109.01 228.958 108.435 228.367 107.702 227.95C106.969 227.517 106.135 227.3 105.202 227.3C104.269 227.3 103.435 227.517 102.702 227.95C101.969 228.367 101.385 228.958 100.952 229.725C100.519 230.492 100.302 231.392 100.302 232.425C100.302 233.442 100.519 234.342 100.952 235.125C101.385 235.892 101.969 236.492 102.702 236.925C103.435 237.342 104.26 237.55 105.177 237.55ZM121.296 239.125C119.929 239.125 118.729 238.842 117.696 238.275C116.662 237.692 115.854 236.9 115.271 235.9C114.687 234.883 114.396 233.725 114.396 232.425C114.396 231.125 114.671 229.975 115.221 228.975C115.787 227.975 116.554 227.192 117.521 226.625C118.504 226.042 119.604 225.75 120.821 225.75C122.054 225.75 123.146 226.033 124.096 226.6C125.062 227.15 125.821 227.933 126.371 228.95C126.921 229.95 127.196 231.108 127.196 232.425C127.196 232.508 127.187 232.6 127.171 232.7C127.171 232.783 127.171 232.875 127.171 232.975H115.746V231.65H126.221L125.521 232.175C125.521 231.225 125.312 230.383 124.896 229.65C124.496 228.9 123.946 228.317 123.246 227.9C122.546 227.483 121.737 227.275 120.821 227.275C119.921 227.275 119.112 227.483 118.396 227.9C117.679 228.317 117.121 228.9 116.721 229.65C116.321 230.4 116.121 231.258 116.121 232.225V232.5C116.121 233.5 116.337 234.383 116.771 235.15C117.221 235.9 117.837 236.492 118.621 236.925C119.421 237.342 120.329 237.55 121.346 237.55C122.146 237.55 122.887 237.408 123.571 237.125C124.271 236.842 124.871 236.408 125.371 235.825L126.371 236.975C125.787 237.675 125.054 238.208 124.171 238.575C123.304 238.942 122.346 239.125 121.296 239.125ZM131.25 239.125C130.883 239.125 130.566 238.992 130.3 238.725C130.05 238.458 129.925 238.133 129.925 237.75C129.925 237.35 130.05 237.025 130.3 236.775C130.566 236.525 130.883 236.4 131.25 236.4C131.616 236.4 131.925 236.525 132.175 236.775C132.441 237.025 132.575 237.35 132.575 237.75C132.575 238.133 132.441 238.458 132.175 238.725C131.925 238.992 131.616 239.125 131.25 239.125Z" fill="black"/>
<defs>
<linearGradient id="paint0_linear_1_134" x1="55.581" y1="44.5" x2="120.402" y2="44.5" gradientUnits="userSpaceOnUse">
<stop stop-color="#005F87"/>
<stop offset="1" stop-color="#029BDB" stop-opacity="0.31"/>
</linearGradient>
</defs>
</svg>
