<svg width="40" height="48" viewBox="0 0 40 48" fill="none" xmlns="http://www.w3.org/2000/svg">
<path d="M38.1813 23.7961V17.1626C38.1813 14.9134 36.7026 13.0842 34.8344 12.9067L29.6134 2.14701C29.1296 1.15189 28.3483 0.44064 27.4135 0.1453C26.4831 -0.148028 25.5102 0.00602688 24.6774 0.577903L6.77972 12.8722H3.63633C1.63088 12.8722 0 14.7963 0 17.1626V42.9057C0 45.2719 1.6308 47.1962 3.63633 47.1962H34.5449C36.5504 47.1962 38.1813 45.272 38.1813 42.9057V36.2723C39.2371 35.828 39.9994 34.6486 39.9994 33.252V26.8163C39.9994 25.4197 39.2371 24.2403 38.1813 23.7961ZM32.7217 12.8722H24.7982L30.7409 8.78989L32.7217 12.8722ZM29.8376 6.92827L21.1847 12.8722H17.5956L28.9401 5.0789L29.8376 6.92827ZM25.5926 2.4319C26.0037 2.14802 26.4839 2.07261 26.943 2.2172C27.4073 2.36382 27.7944 2.71789 28.035 3.21334L28.0368 3.21726L13.9822 12.8722H10.3933L25.5926 2.4319ZM36.3631 42.9057C36.3631 44.0882 35.5472 45.0509 34.5449 45.0509H3.63633C2.63408 45.0509 1.81821 44.0882 1.81821 42.9057V17.1626C1.81821 15.9801 2.63408 15.0175 3.63633 15.0175H34.5449C35.5472 15.0175 36.3631 15.9801 36.3631 17.1626V23.5984H30.9086C27.9008 23.5984 25.4542 26.4853 25.4542 30.0342C25.4542 33.583 27.9008 36.4699 30.9086 36.4699H36.3631V42.9057ZM38.1813 33.252C38.1813 33.8438 37.7738 34.3247 37.2722 34.3247H30.9086C28.9032 34.3247 27.2723 32.4005 27.2723 30.0342C27.2723 27.6679 28.9031 25.7436 30.9086 25.7436H37.2722C37.7737 25.7436 38.1813 26.2244 38.1813 26.8163V33.252Z" fill="url(#paint0_linear_1_131)"/>
<defs>
<linearGradient id="paint0_linear_1_131" x1="13.4717" y1="23.5981" x2="70.3375" y2="23.5981" gradientUnits="userSpaceOnUse">
<stop stop-color="#005F87"/>
<stop offset="1" stop-color="#029BDB" stop-opacity="0.31"/>
</linearGradient>
</defs>
</svg>
