<svg width="35" height="35" viewBox="0 0 35 35" fill="none" xmlns="http://www.w3.org/2000/svg">
<path d="M17.5 0C27.125 0 35 7.875 35 17.5C35 27.125 27.125 35 17.5 35C7.875 35 0 27.125 0 17.5C0 7.875 7.875 0 17.5 0ZM22.61 18.9175C20.72 18.9175 19.1625 20.23 18.7425 21.98C17.7975 21.5775 16.905 21.6825 16.2575 21.9625C15.8375 20.2125 14.2625 18.9175 12.39 18.9175C10.2025 18.9175 8.435 20.685 8.435 22.8725C8.435 25.06 10.2025 26.8275 12.39 26.8275C14.49 26.8275 16.17 25.235 16.3275 23.1875C16.6775 22.96 17.57 22.505 18.6725 23.205C18.7463 24.23 19.2165 25.1859 19.9833 25.87C20.7502 26.5541 21.7534 26.9125 22.7801 26.8693C23.8069 26.826 24.7764 26.3845 25.483 25.6383C26.1896 24.8922 26.5777 23.9001 26.565 22.8725C26.565 20.685 24.7975 18.9175 22.61 18.9175ZM12.39 20.0375C14 20.0375 15.225 21.315 15.225 22.8725C15.225 24.43 14 25.7075 12.39 25.7075C10.8325 25.7075 9.555 24.43 9.555 22.8725C9.555 21.315 10.8325 20.0375 12.39 20.0375ZM22.61 20.0375C24.1675 20.0375 25.445 21.315 25.445 22.8725C25.445 24.43 24.1675 25.7075 22.61 25.7075C21 25.7075 19.775 24.43 19.775 22.8725C19.775 21.315 21 20.0375 22.61 20.0375ZM27.7025 16.625H7.2975V17.7975H27.7025V16.625ZM21.2625 8.5575C21.1433 8.30219 20.9364 8.09816 20.6795 7.98254C20.4225 7.86691 20.1326 7.84738 19.8625 7.9275L17.5 8.75L15.1375 7.9275L15.0675 7.875C14.7921 7.81582 14.5046 7.85746 14.2573 7.99235C14.01 8.12724 13.8193 8.34641 13.72 8.61L11.13 15.4525H23.87L21.28 8.61L21.2625 8.5575Z" fill="white"/>
</svg>
